<?xml version="1.0" encoding="utf-8"?>
<!-- Generator: Adobe Illustrator 16.0.4, SVG Export Plug-In . SVG Version: 6.00 Build 0)  -->
<!DOCTYPE svg PUBLIC "-//W3C//DTD SVG 1.1//EN" "http://www.w3.org/Graphics/SVG/1.1/DTD/svg11.dtd">
<svg version="1.1" id="Layer_1" xmlns="http://www.w3.org/2000/svg" xmlns:xlink="http://www.w3.org/1999/xlink" x="0px" y="0px"
	 width="305px" height="373px" viewBox="19.5 -18 305 373" enable-background="new 19.5 -18 305 373" xml:space="preserve">
<g id="Layer_1_1_">
	<g>
		<g>
			<path d="M230.525,113.62c0.926,0.796,1.508,1.296,2.123,1.824c4.463-6.424,8.871-12.77,13.275-19.112
				c-0.199-0.317-0.402-0.638-0.604-0.957c-9.926,4.332-20.273,1.927-30.439,2.424c-1.471,0.071-2.992-0.883-5.031-1.536
				c-0.023,0.167-0.559,1.342-0.188,1.836c4.383,5.833,8.896,11.562,13.375,17.315c3.072-2.22,5.426-2.019,6.484,0.827
				c-1.521,0-2.894,0.013-4.263-0.002c-2.491-0.028-4.252,0.979-6.026,2.881c-2.481,2.666-5.586,4.764-8.461,7.056
				c-3.938,3.14-8.082,6.049-11.812,9.418c-2.312,2.091-5.771,2.884-6.507,6.979c-0.702,3.908-2.809,7.561-4.254,11.344
				c-1.491,3.902-3.653,7.729-4.211,11.771c-0.717,5.198-4.647,7.806-7.129,11.603c-3.938,6.033-9.799,9.033-16.088,11.521
				c-2.535,1.006-7.199-3.604-6.074-6.088c2.439-5.383,5.31-10.567,7.939-15.864c0.562-1.136,0.848-2.408,1.295-3.604
				c3.436-9.196,6.877-18.39,10.318-27.582c0.795-2.127,2.021-4.19,2.327-6.386c0.927-6.623,6.149-9.78,10.317-13.952
				c5.021-5.024,9.1-11.067,14.446-15.669c4.569-3.932,4.822-8.223,4.56-13.459c-0.356-7.113-0.088-14.262-0.088-20.945
				c-4.72-2.987-9.082-5.889-13.583-8.545c-2.164-1.276-4.662-1.977-6.89-3.155c-4.942-2.625-9.854-5.315-14.666-8.173
				c-0.815-0.48-1.526-1.914-1.517-2.898c0.132-10.9,0.416-21.805,0.638-32.707c0.011-0.479-0.069-1.078-0.351-1.422
				c-3.434-4.223-1.121-8.648,0.287-12.502c0.771-2.104,4.101-3.794,6.605-4.52c1.129-0.325,3.502,1.863,4.566,3.424
				c3.695,5.404,2.889,11.061,0.309,16.711c-0.48,1.057-0.736,2.418-0.543,3.543c0.875,5.045,1.879,10.07,2.988,15.07
				c0.459,2.062,1.305,4.047,2.051,6.303c11.562,2.354,22.56,9.188,35.782,6.755c-1.512-1.104-3.021-1.983-4.252-3.153
				c-2.869-2.722-3.411-6.502-3.688-10.104c-0.426-5.518-0.644-11.215,3.229-15.834c1.55-1.852,3.494-3.945,5.646-4.545
				c2.199-0.613,4.863,0.579,7.347,0.756c0.984,0.068,2.021-0.472,2.688-0.646c7.402,3.215,9.914,10.528,9.482,16.891
				c-0.398,5.834-0.389,14.088-10.104,16.053c4.271,1.016,7.166,2.352,9.984,2.199c2.896-0.158,5.695-1.809,8.557-2.736
				c6.182-2.01,12.369-3.979,18.742-6.023c1.064-6.12,1.41-12.803,3.588-18.819c1.232-3.407,0.523-5.019-1.014-7.578
				c-3.119-5.205-2.02-8.041,1.357-12.01c0.719-0.843,1.221-1.875,1.746-2.858c1.99-3.719,4.6-5.205,8.229-3.88
				c2.781,1.015,3.914,3.64,3.812,6.582c-0.146,4.349,1.062,9.076-3.506,12.261c-0.52,0.362-0.248,1.938-0.25,2.948
				c-0.016,9.308-0.361,18.632,0.148,27.908c0.234,4.295-2.264,5.858-4.936,7.534c-6.604,4.136-13.316,8.087-20.041,12.018
				c-2.48,1.446-5.004,3.002-7.717,3.807c-2.188,0.647-1.898,1.91-1.898,3.369c-0.004,6.883,0.889,13.92-0.258,20.606
				c-1.061,6.165,2.188,9.151,5.646,12.7c7.422,7.611,14.899,15.18,22.049,23.043c1.662,1.828,2.303,4.707,3.062,7.209
				c1.447,4.781,2.445,9.701,3.996,14.443c1.965,6.004,5.203,11.744,6.15,17.869c0.648,4.182,3.871,5.733,5.219,8.817
				c1.396,3.201,2.162,6.669,3.445,9.925c1.336,3.379-0.021,5.977-2.895,6.86c-1.988,0.61-4.803-0.211-6.824-1.229
				c-3.254-1.634-6.631-3.511-9.102-6.102c-3.486-3.656-6.525-7.862-9.08-12.229c-1.148-1.961-0.234-5.021-0.984-7.342
				c-2.32-7.173-4.646-14.387-7.715-21.255c-1.102-2.472-4.199-4.147-6.574-5.937c-5.229-3.939-10.643-7.639-15.854-11.599
				c-2.938-2.229-5.646-4.754-8.383-7.233C230.273,115.559,230.525,114.696,230.525,113.62z M286.75,163.75
				c0.049-0.896,0.271-1.578,0.088-2.125c-3.309-9.882-6.629-19.759-10.023-29.606c-1.393-4.021-2.623-8.029-6.457-10.787
				c-2.506-1.803-4.32-4.56-6.484-6.853c-3.381-3.586-6.793-7.142-10.229-10.744c-4.229,6.396-8.387,12.688-12.354,18.699
				c2.31,1.95,4.459,3.866,6.711,5.655c4.646,3.688,9.34,7.313,14.022,10.957c0.608,0.478,1.64,0.759,1.854,1.355
				c2.08,5.631,4.027,11.311,6.152,17.377c0.702-0.279,1.508-0.708,2.364-0.915c1.129-0.271,2.629-0.911,3.394-0.446
				C279.4,158.516,282.814,161.034,286.75,163.75z M184.572,157.858c1.619-5.312,2.83-10.037,4.541-14.572
				c0.842-2.234,2.31-4.435,4.032-6.09c2.371-2.277,5.283-3.984,7.903-6.017c2.979-2.31,5.771-4.879,8.869-7.006
				c2.256-1.545,2.588-3.297,0.99-5.498c-3.521-4.853-6.791-9.885-10.171-14.853c-1.362,1.138-2.891,2.17-4.116,3.483
				c-2.526,2.702-4.738,5.716-7.363,8.312c-5.613,5.554-10.898,11.138-12.613,19.349c-0.893,4.263-2.937,8.283-4.453,12.416
				c-1.688,4.597-3.371,9.19-5.182,14.123C173.209,160.231,177.574,153,184.572,157.858z M209.043,46.248
				c-2.838-1.132-5.348-2.313-7.971-3.136c-4.057-1.264-8.233-2.135-12.271-3.451c-2.062-0.674-5.113-1.528-5.652-3.041
				c-1.453-4.071-2.123-8.514-2.512-12.857c-0.734-8.238-2.816-11.257-9.986-12.896c0,10.354-0.074,20.648,0.105,30.938
				c0.021,1.099,1.318,2.521,2.398,3.187c3.553,2.19,7.293,4.076,10.93,6.137c2.264,1.277,4.438,2.724,6.713,3.98
				c4.873,2.702,9.787,5.334,14.684,7.991C207.096,57.767,203.451,51.299,209.043,46.248z M248.938,63.235
				c11.104-6.459,21.826-12.688,32.41-18.845c0-10.961,0-21.848,0-32.771c-3.844,0.102-5.646,2.896-6.482,5.523
				c-1.355,4.248-1.639,8.826-2.521,13.237c-0.484,2.435-0.521,5.985-2.068,6.97c-3.529,2.233-7.83,3.319-11.895,4.637
				c-4.234,1.373-8.562,2.475-13.947,4.004C250.854,51.092,247.744,57.61,248.938,63.235z"/>
		</g>
	</g>
</g>
<g id="Layer_2">
	<g>
		<g>
			<path d="M78.029,184.271c11.729,2.517,23.719,5.088,35.709,7.661c0.379-0.772,0.757-1.546,1.135-2.315
				c-1.82-1.451-4.164-2.56-5.377-4.408c-7.865-12.008-3.486-21.577,6.926-28.252c2.258-1.446,7.029-1.129,9.482,0.328
				c5.104,3.03,9.084,7.304,8.996,14.301c-0.088,7.062-0.674,13.591-7.41,18.771c12.842,1.412,23.51-4.64,34.791-6.414
				c1.27-6.867,2.781-13.427,3.574-20.07c0.357-3.017-0.227-6.373-1.244-9.272c-1.861-5.318,1.139-13.859,6.564-15.219
				c2.129-0.533,6.485,0.993,7.098,2.61c1.355,3.599,1.209,7.844,1.229,11.827c0.01,1.986-1.379,3.972-1.416,5.972
				c-0.164,9.362,0.116,18.738-0.23,28.095c-0.076,2.03-1.582,4.812-3.281,5.844c-8.752,5.32-17.654,10.428-26.764,15.103
				c-4.541,2.33-7.076,4.808-6.701,10.411c0.438,6.558-0.414,13.188-0.402,19.783c0.004,1.451,0.977,3.191,2.027,4.312
				c8.354,8.881,16.869,17.606,25.232,26.479c1.147,1.216,2.006,2.863,2.543,4.466c4.379,13.018,8.428,26.146,13.076,39.062
				c1.584,4.396,5.026,8.1,6.799,12.453c1.031,2.523,1.436,6.194,0.338,8.504c-1.832,3.846-5.688,2.711-8.699,0.982
				c-10.693-6.126-18.455-14.2-20.459-27.258c-1.049-6.844-3.475-13.875-6.988-19.808c-2.555-4.312-7.836-7.065-12.049-10.325
				c-5.445-4.218-10.963-8.349-16.602-12.302c-2.158-1.518-4.734-2.438-7.062-4.666c2.25,0.312,4.5,0.63,7.195,1.007
				c4.025-5.815,8.486-12.265,13.092-18.918c-12.938,4.18-25.268,4-38.775-0.498c5.545,7.532,10.441,14.185,15.756,21.401
				c-5.795,4.506-12.412,10.688-19.996,15.272c-8.767,5.3-12.756,13.15-15.41,22.277c-1.127,3.875-2.368,7.73-3.192,11.678
				c-1.446,6.927-14.856,21.104-21.711,22.094c-2.062,0.298-5.094-0.354-6.332-1.762c-1.189-1.35-1.061-4.311-0.713-6.432
				c0.297-1.812,1.621-3.507,2.666-5.145c8.969-14.021,11.553-30.469,17.498-45.633c1.121-2.854,2.86-5.66,4.938-7.91
				c8.03-8.689,16.344-17.125,24.463-25.733c0.881-0.937,1.746-2.45,1.658-3.626c-0.498-6.76-1.854-13.497-1.798-20.232
				c0.045-5.469-1.823-8.215-6.724-10.576c-8.565-4.135-16.748-9.1-24.881-14.059c-1.553-0.947-2.969-3.449-3.031-5.283
				c-0.312-8.996-0.049-18.01-0.215-27.015c-0.041-2.226-1.162-4.409-1.369-6.651c-0.342-3.728-1.166-7.688-0.287-11.174
				c1.074-4.254,6.232-5.058,9.598-2.175c4.264,3.65,5.088,9.235,4.12,14.673c-0.831,4.67-0.015,9.686,0.44,14.512
				C76.236,175.065,77.149,179.059,78.029,184.271z M145.111,254.018c0.648-0.818,1.3-1.64,1.949-2.459
				c-3.25,4.604-6.108,9.562-9.863,13.703c-3.297,3.637-2.4,4.965,1.109,7.766c8.938,7.138,20.586,12.025,22.791,25.354
				c0.385,2.322,1.604,4.515,2.461,6.827c7.271-3.668,10.738,3.554,16.76,5.52c-4.199-12.806-8.207-25.062-12.266-37.297
				c-0.209-0.637-0.76-1.232-1.297-1.675C159.557,265.822,152.33,259.924,145.111,254.018z M93.199,251.439
				c0.859,0.912,1.721,1.821,2.58,2.733c-7.459,5.929-14.926,11.849-22.363,17.806c-0.531,0.426-1.025,1.062-1.238,1.703
				c-4,12.118-7.957,24.254-12.073,36.853c5.438-3.849,9.894-8.911,17.032-5.839c0.504-1.719,0.67-3.604,1.552-5.051
				c3.024-4.966,2.565-11.662,8.248-15.371c5.601-3.658,10.819-7.901,16.211-11.883c2.657-1.964,3.073-3.646,0.588-6.524
				C99.854,261.376,96.676,256.279,93.199,251.439z M175.828,158.038c-4.529,1.69-8.182,3-8.645,8.075
				c-0.479,5.27-1.149,10.554-2.299,15.707c-0.379,1.693-2.24,3.802-3.881,4.347c-7.48,2.483-15.125,4.479-23.119,6.769
				c5.977,5.139,1.992,11.82,3.924,17.791c10.562-5.979,20.986-11.834,31.35-17.803c1.085-0.625,2.537-1.898,2.555-2.896
				C175.899,179.51,175.828,168.986,175.828,158.038z M100.646,192.417c-6.621-1.911-13.882-3.821-20.985-6.192
				c-1.709-0.57-3.798-2.478-4.171-4.116c-1.178-5.146-1.515-10.476-2.379-15.7c-0.646-3.896-1.636-7.713-7.526-6.816
				c0,6.179,0.508,12.492-0.115,18.693c-0.977,9.715,0.396,17.573,11.539,20.135c0.465,0.104,0.777,0.754,1.238,1.006
				c6.405,3.484,12.823,6.946,18.793,10.177C98.279,203.68,99.396,198.368,100.646,192.417z M120.644,225.206
				c8.176-0.534,12.411-4.575,11.969-11.417c-0.433-6.67-6.396-12.645-12.364-12.385c-5.498,0.238-11.712,7.033-11.416,12.479
				C109.174,220.127,114.869,225.586,120.644,225.206z"/>
		</g>
	</g>
</g>
</svg>
