<?xml version="1.0" encoding="utf-8"?>
<!-- Generator: Adobe Illustrator 16.0.4, SVG Export Plug-In . SVG Version: 6.00 Build 0)  -->
<!DOCTYPE svg PUBLIC "-//W3C//DTD SVG 1.1//EN" "http://www.w3.org/Graphics/SVG/1.1/DTD/svg11.dtd">
<svg version="1.1" id="Layer_1" xmlns="http://www.w3.org/2000/svg" xmlns:xlink="http://www.w3.org/1999/xlink" x="0px" y="0px"
	 width="395px" height="167px" viewBox="108.5 311.5 395 167" enable-background="new 108.5 311.5 395 167" xml:space="preserve">
<g>
	<g>
		<path fill="#FFFFFF" d="M128,466c0-46,0-92,0-138c119.333,0,238.666,0,358,0c0,46,0,92,0,138C366.666,466,247.333,466,128,466z
			 M197.623,401.867c-3.319,4.324-7.407,9.785-11.642,15.129c-3.45,4.354-6.316,9.828-10.81,12.533
			c-6.003,3.614-13.185,5.838-20.142,7.097c-4.232,0.766-7.722,2.039-11.086,4.378c-6.027,4.192-10.821,9.375-13.117,16.499
			c-1.092,3.39,1.64,7.146,4.835,6.36c3.923-0.963,7.776-2.384,11.47-4.029c1.626-0.725,2.569-3.146,4.193-3.689
			c11.268-3.771,22.654-7.188,33.953-10.869c2.564-0.836,5.391-1.769,7.312-3.518c8.1-7.375,15.875-15.104,23.848-22.622
			c0.989-0.933,2.452-1.956,3.682-1.938c6.758,0.097,13.528,0.922,20.261,0.656c4.4-0.175,6.331,1.717,8.23,5.185
			c4.468,8.154,9.199,16.174,14.126,24.06c0.893,1.43,3.196,2.719,4.893,2.775c8.323,0.284,16.666-0.014,24.992,0.222
			c2.315,0.066,4.954,0.739,6.831,2.027c5.445,3.736,10.498,3.744,15.979,0.105c1.914-1.271,4.494-2.053,6.802-2.128
			c7.824-0.254,15.682-0.412,23.487,0.039c4.193,0.242,6.445-1.55,8.194-4.766c3.747-6.885,7.778-13.646,11.046-20.753
			c2.308-5.022,5.18-7.304,10.957-6.771c5.321,0.489,10.91,0.383,16.078-0.793c2.429-0.553,3.646-0.922,5.439,0.826
			c7.725,7.525,15.46,15.044,23.406,22.329c2.196,2.013,4.965,3.689,7.768,4.702c10.559,3.812,21.33,7.048,31.835,10.996
			c4.975,1.869,9.419,5.114,14.326,7.214c1.829,0.783,4.986,0.907,6.282-0.174c1.381-1.152,2.307-4.483,1.651-6.176
			c-3.684-9.534-11.062-15.706-20.207-19.678c-3.686-1.6-7.846-2.071-11.743-3.215c-8.333-2.445-15.202-6.564-20.009-14.381
			c-4.246-6.903-9.814-12.997-13.923-18.313c-6.563,4.862-12.727,9.428-19.785,14.66c4.026-12.469,4.456-23.85,0.306-35.958
			c6.254,4.307,12.185,8.391,17.564,12.097c-0.281,2.488-0.522,4.633-0.765,6.777c1.966-2.294,2.78-4.562,4.119-6.462
			c3.668-5.209,7.479-10.321,11.379-15.359c3.018-3.897,5.567-8.768,9.555-11.151c5.474-3.272,11.958-5.6,18.276-6.556
			c12.293-1.858,19.861-9.109,25.496-19.268c1.484-2.678,2.386-6.061-0.988-7.598c-2.181-0.994-5.517-0.829-7.812,0.104
			c-4.029,1.639-7.426,4.915-11.495,6.355c-11.67,4.13-23.56,7.636-35.319,11.516c-1.788,0.59-3.61,1.589-4.977,2.869
			c-8.228,7.716-16.294,15.604-24.51,23.332c-1.033,0.973-2.629,1.896-3.967,1.902c-6.433,0.025-12.888-0.678-19.287-0.314
			c-4.443,0.253-6.394-1.763-8.244-5.221c-4.627-8.645-9.363-17.242-14.46-25.613c-1.01-1.659-3.788-3.062-5.811-3.142
			c-8.651-0.347-17.328-0.061-25.989-0.236c-1.819-0.037-3.787-0.756-5.396-1.67c-6.095-3.461-10.452-3.187-15.723,1.224
			c-0.696,0.582-1.637,1.266-2.452,1.251c-9.43-0.169-18.858-0.418-28.283-0.757c-2.495-0.089-4.029,0.381-5.361,2.968
			c-4.482,8.71-9.542,17.12-14.117,25.784c-1.928,3.651-4.05,5.713-8.629,5.401c-6.463-0.438-12.985,0.028-19.479-0.04
			c-1.368-0.015-3.117-0.252-4.031-1.099c-7.663-7.102-15.098-14.45-22.778-21.532c-1.974-1.819-4.429-3.31-6.914-4.352
			c-15.077-6.322-31.467-9.389-45.4-18.657c-2.089-1.39-5.578-1.161-8.312-0.819c-0.888,0.111-2.458,3.471-1.961,4.48
			c2.297,4.669,4.677,9.491,8.024,13.406c6.194,7.244,15.301,9.451,23.912,12.59c6.039,2.201,13.028,2.772,16.987,9.438
			c5.787,9.742,16.054,16.521,19.109,28.524c-0.533-11.951,11.042-12.376,16.819-19.667c-1.689,12.435-1.94,23.459,0.815,35.545
			C210.086,410.951,204.259,406.704,197.623,401.867z"/>
		<path d="M197.623,401.867c6.637,4.837,12.464,9.084,19.317,14.078c-2.755-12.086-2.504-23.11-0.815-35.545
			c-5.777,7.29-17.353,7.716-16.819,19.667c-3.055-12.003-13.322-18.782-19.109-28.524c-3.959-6.666-10.948-7.237-16.987-9.438
			c-8.611-3.139-17.718-5.346-23.912-12.59c-3.348-3.915-5.727-8.737-8.024-13.406c-0.497-1.01,1.073-4.369,1.961-4.48
			c2.734-0.342,6.223-0.57,8.312,0.819c13.933,9.269,30.323,12.335,45.4,18.657c2.485,1.042,4.94,2.532,6.914,4.352
			c7.681,7.082,15.115,14.431,22.778,21.532c0.914,0.847,2.663,1.084,4.031,1.099c6.495,0.068,13.016-0.398,19.479,0.04
			c4.579,0.312,6.701-1.75,8.629-5.401c4.575-8.664,9.635-17.074,14.117-25.784c1.332-2.587,2.866-3.057,5.361-2.968
			c9.425,0.339,18.854,0.588,28.283,0.757c0.815,0.015,1.756-0.669,2.452-1.251c5.271-4.41,9.628-4.685,15.723-1.224
			c1.609,0.914,3.577,1.633,5.396,1.67c8.661,0.176,17.338-0.11,25.989,0.236c2.021,0.08,4.801,1.482,5.811,3.142
			c5.097,8.371,9.833,16.969,14.46,25.613c1.852,3.458,3.801,5.474,8.244,5.221c6.399-0.363,12.854,0.34,19.287,0.314
			c1.338-0.006,2.934-0.93,3.967-1.902c8.216-7.729,16.282-15.616,24.51-23.332c1.365-1.28,3.188-2.279,4.977-2.869
			c11.761-3.88,23.649-7.386,35.319-11.516c4.069-1.44,7.466-4.717,11.495-6.355c2.295-0.934,5.631-1.099,7.812-0.104
			c3.374,1.537,2.474,4.92,0.988,7.598c-5.635,10.158-13.203,17.409-25.496,19.268c-6.318,0.956-12.804,3.283-18.276,6.556
			c-3.986,2.384-6.537,7.254-9.555,11.151c-3.898,5.038-7.711,10.15-11.379,15.359c-1.339,1.9-2.153,4.168-4.119,6.461
			c0.241-2.145,0.482-4.289,0.765-6.776c-5.381-3.706-11.312-7.79-17.564-12.097c4.15,12.108,3.722,23.489-0.306,35.958
			c7.06-5.231,13.222-9.797,19.785-14.66c4.107,5.316,9.677,11.41,13.923,18.313c4.807,7.815,11.676,11.937,20.009,14.381
			c3.897,1.144,8.06,1.615,11.743,3.215c9.145,3.972,16.523,10.144,20.207,19.678c0.654,1.691-0.271,5.022-1.651,6.176
			c-1.296,1.081-4.453,0.957-6.282,0.174c-4.907-2.1-9.353-5.345-14.326-7.214c-10.505-3.948-21.276-7.184-31.835-10.996
			c-2.803-1.013-5.57-2.688-7.768-4.702c-7.946-7.285-15.683-14.804-23.406-22.329c-1.793-1.748-3.012-1.379-5.439-0.826
			c-5.168,1.176-10.757,1.283-16.078,0.793c-5.777-0.532-8.649,1.748-10.957,6.771c-3.268,7.108-7.299,13.868-11.046,20.753
			c-1.749,3.216-4.001,5.008-8.194,4.766c-7.807-0.45-15.663-0.293-23.487-0.038c-2.308,0.074-4.888,0.855-6.802,2.128
			c-5.48,3.638-10.534,3.63-15.979-0.106c-1.877-1.288-4.515-1.961-6.831-2.027c-8.326-0.234-16.668,0.062-24.992-0.222
			c-1.696-0.058-4-1.347-4.893-2.775c-4.927-7.886-9.658-15.904-14.126-24.06c-1.9-3.468-3.83-5.358-8.23-5.185
			c-6.733,0.266-13.503-0.561-20.261-0.655c-1.229-0.019-2.693,1.006-3.682,1.938c-7.973,7.518-15.749,15.246-23.848,22.621
			c-1.921,1.749-4.748,2.682-7.312,3.518c-11.298,3.683-22.685,7.099-33.953,10.87c-1.624,0.543-2.567,2.965-4.193,3.688
			c-3.694,1.646-7.547,3.066-11.47,4.029c-3.195,0.784-5.927-2.971-4.835-6.36c2.296-7.124,7.09-12.307,13.117-16.499
			c3.364-2.339,6.854-3.611,11.086-4.378c6.958-1.259,14.139-3.48,20.142-7.097c4.494-2.705,7.36-8.18,10.81-12.533
			C190.215,411.652,194.303,406.191,197.623,401.867z M265.851,402.625c-3.074,9.514,1.981,16.754,3.173,24.582
			c1.171,7.688,5.683,11.347,13.14,11.703c5.57,0.267,11.25,4.3,16.771-0.68c0.932-0.84,3.29-0.485,4.871-0.144
			c5.977,1.293,12.335-1.248,18.126,1.871c0.507,0.272,1.324,0.073,1.974-0.044c6.256-1.131,12.506-2.29,18.885-3.465
			c2.017-11.059,7.656-21.527,5.987-33.467c-9.293,9.363-16.124,10.412-25.63,4.05c-4.869-3.261-7.327-8.757-5.988-13.389
			c1.106-3.827,8.268-9.378,12.443-9.641c7.137-0.45,14.056-0.168,19.079,6.443c0.484-0.321,0.97-0.643,1.453-0.963
			c-2.444-10.517-4.89-21.033-7.231-31.113c-4.456-0.664-8.006-1.361-11.59-1.687c-5.371-0.488-10.243-2.795-16.326,0.091
			c-3.899,1.851-10.106-1.331-15.135,1.146c-6.102-4.942-12.419-0.882-18.697-0.611c-7.446,0.319-10.49,4.398-11.947,11.096
			c-1.72,7.91-5.542,15.457-3.698,24.719c5.117-8.258,12.487-8.95,20.422-7.624c8.323,1.392,13.732,10.721,10.731,18.229
			c-1.645,4.114-11.605,8.748-16.487,7.902C274.36,410.626,268.604,409.68,265.851,402.625z M407.839,374.629
			c-0.812-0.662-1.622-1.323-2.434-1.985c4.257,3.006,8.843,5.648,12.673,9.125c3.379,3.068,4.606,2.178,7.182-1.049
			c6.601-8.272,11.13-19.039,23.452-21.08c2.15-0.355,4.174-1.474,6.298-2.255c-3.35-6.733,3.258-9.963,5.18-15.624
			c-10.231,3.439-19.853,6.656-29.458,9.917c-2.13,0.724-4.88,1.014-6.191,2.513C418.742,360.802,413.367,367.782,407.839,374.629z
			 M153.599,453.548c8.546-2.781,15.948-5.146,23.318-7.605c4.458-1.488,9.99-1.962,13.065-4.936
			c6.467-6.251,11.634-13.85,17.334-20.896c-2.543-0.926-7.349-3.995-11.97-7.323c-2.417-1.739-3.571-1.271-5.397,1.054
			c-6.656,8.475-11.213,19.341-23.67,21.536c-2.156,0.38-4.188,1.47-6.279,2.232C161.734,441.928,159.359,446.535,153.599,453.548z
			 M460.121,453.237c-3.895-5.206-8.277-9.407-5.729-15.875c-7.966-3.188-16.938-4.455-21.759-13.103
			c-2.127-3.814-5.135-7.136-7.726-10.693c-1.85-2.539-3.416-3.401-6.36-0.791c-4.08,3.617-8.818,6.49-13.273,9.684
			c0.818-0.724,1.638-1.446,2.455-2.169c5.188,6.494,10.297,13.054,15.628,19.427c1.055,1.261,2.872,2.075,4.497,2.636
			C438.274,445.947,448.739,449.415,460.121,453.237z M209.713,373.539c-6.068-5.825-12.027-11.56-18.006-17.272
			c-0.827-0.79-1.638-1.797-2.651-2.162c-10.905-3.933-21.849-7.756-33.048-11.703c4.885,11.285,4.885,11.285,4.257,16.055
			c4.845,1.823,9.723,3.582,14.531,5.514c1.448,0.582,3.052,1.367,3.985,2.537c4.066,5.1,7.889,10.393,11.848,15.577
			c1.534,2.009,2.984,2.427,5.374,0.597C200.353,379.349,205.117,376.559,209.713,373.539z M295.38,346.014
			c-9.175,0-18.156-0.127-27.127,0.121c-1.545,0.043-3.674,1.304-4.465,2.636c-5.629,9.487-10.98,19.14-16.324,28.57
			c5.395,0.752,10.413,1.451,16.11,2.245c1.463-4.542,3.754-10.114,4.977-15.913c1.094-5.184,3.988-7.204,8.794-7.658
			c2.433-0.23,4.844-0.692,7.265-1.05C289.748,354.206,294.263,352.648,295.38,346.014z M351.213,381.262
			c4.646-5.968,10.963-1.741,16.365-3.85c-5.504-9.727-10.922-19.375-16.448-28.963c-0.575-0.997-1.773-2.306-2.704-2.322
			c-9.718-0.169-19.438-0.104-29.32-0.104c1.193,4.401,2.714,7.534,7.305,7.993c4.87,0.486,9.763,1.067,14.526,2.134
			c1.559,0.349,3.47,2.11,3.977,3.639C347.21,366.708,349.062,373.775,351.213,381.262z M320.306,448.001
			c5.835,0,11.825-0.525,17.688,0.122c8.953,0.989,15.846-0.615,18.18-10.589c0.103-0.435,0.678-0.733,0.912-1.161
			c3.267-5.956,6.512-11.924,9.549-17.497c-5.406-1.091-10.33-2.084-15.934-3.215c-1.742,5.964-3.984,12.534-5.478,19.271
			c-0.639,2.889-1.873,3.776-4.416,4.091c-4.862,0.601-9.729,1.226-14.559,2.05C322.778,441.663,319.553,442.771,320.306,448.001z
			 M294.458,448.001c-0.766-3.997-2.575-5.749-6.342-6.118c-4.182-0.41-8.251-2.165-12.425-2.418
			c-4.546-0.274-5.85-2.582-6.846-6.518c-1.535-6.068-3.822-11.946-5.448-16.871c-5.759,0.966-10.753,1.804-15.827,2.654
			c4.733,8.229,9.619,16.331,14.077,24.661c1.848,3.45,3.923,4.899,7.972,4.718C277.755,447.744,285.92,448.001,294.458,448.001z
			 M369.844,407.995c4.699,0.071,11.64-5.19,11.697-8.868c0.123-7.76-3.864-12.808-9.883-13.173
			c-7.89-0.479-12.41,6.312-12.627,10.782C358.793,401.68,364.865,407.92,369.844,407.995z"/>
		<path fill="#FFFFFF" d="M265.851,402.625c2.753,7.055,8.509,8.001,14.327,9.009c4.881,0.845,14.842-3.788,16.487-7.903
			c3.001-7.508-2.408-16.837-10.731-18.229c-7.935-1.326-15.305-0.634-20.422,7.624c-1.844-9.262,1.978-16.809,3.698-24.719
			c1.457-6.697,4.5-10.776,11.947-11.096c6.277-0.271,12.596-4.331,18.696,0.611c5.029-2.478,11.236,0.704,15.136-1.146
			c6.083-2.886,10.955-0.579,16.326-0.091c3.584,0.325,7.134,1.022,11.59,1.687c2.343,10.08,4.787,20.597,7.231,31.113
			c-0.483,0.32-0.969,0.642-1.453,0.963c-5.023-6.611-11.942-6.894-19.08-6.443c-4.176,0.263-11.336,5.813-12.442,9.641
			c-1.339,4.633,1.119,10.129,5.988,13.389c9.506,6.361,16.337,5.314,25.63-4.049c1.669,11.938-3.972,22.407-5.987,33.466
			c-6.379,1.175-12.629,2.334-18.885,3.465c-0.648,0.117-1.467,0.316-1.974,0.044c-5.791-3.119-12.149-0.578-18.126-1.871
			c-1.582-0.343-3.939-0.696-4.87,0.144c-5.522,4.979-11.204,0.945-16.772,0.68c-7.457-0.356-11.969-4.015-13.14-11.703
			C267.832,419.379,262.777,412.139,265.851,402.625z"/>
		<path fill="#FFFFFF" d="M407.839,374.629c5.528-6.847,10.903-13.827,16.7-20.438c1.312-1.499,4.062-1.789,6.191-2.513
			c9.605-3.261,19.227-6.478,29.458-9.917c-1.922,5.661-8.528,8.891-5.18,15.624c-2.124,0.781-4.146,1.899-6.298,2.255
			c-12.322,2.041-16.853,12.808-23.452,21.08c-2.574,3.227-3.803,4.117-7.182,1.049c-3.83-3.477-8.416-6.119-12.673-9.125
			C406.217,373.306,407.027,373.967,407.839,374.629z"/>
		<path fill="#FFFFFF" d="M153.599,453.548c5.76-7.013,8.135-11.62,6.401-15.938c2.091-0.764,4.123-1.854,6.279-2.232
			c12.457-2.195,17.015-13.062,23.67-21.536c1.826-2.324,2.98-2.793,5.397-1.054c4.621,3.328,9.427,6.397,11.97,7.323
			c-5.701,7.046-10.867,14.645-17.334,20.896c-3.075,2.974-8.607,3.446-13.065,4.936
			C169.547,448.401,162.146,450.767,153.599,453.548z"/>
		<path fill="#FFFFFF" d="M460.121,453.237c-11.382-3.822-21.847-7.29-32.269-10.886c-1.625-0.561-3.442-1.375-4.497-2.636
			c-5.331-6.373-10.439-12.933-15.628-19.427c-0.817,0.723-1.637,1.445-2.455,2.169c4.455-3.192,9.193-6.065,13.273-9.683
			c2.944-2.611,4.512-1.75,6.36,0.789c2.591,3.56,5.599,6.881,7.726,10.694c4.82,8.646,13.793,9.915,21.759,13.103
			C451.844,443.83,456.228,448.031,460.121,453.237z"/>
		<path fill="#FFFFFF" d="M209.713,373.539c-4.597,3.02-9.361,5.81-13.711,9.142c-2.39,1.83-3.839,1.412-5.374-0.597
			c-3.959-5.185-7.782-10.478-11.848-15.577c-0.933-1.17-2.537-1.955-3.985-2.537c-4.808-1.932-9.686-3.69-14.531-5.514
			c0.628-4.77,0.628-4.77-4.257-16.055c11.199,3.947,22.143,7.771,33.048,11.703c1.014,0.365,1.824,1.372,2.651,2.162
			C197.687,361.979,203.646,367.714,209.713,373.539z"/>
		<path fill="#FFFFFF" d="M295.38,346.014c-1.117,6.635-5.632,8.192-10.77,8.951c-2.421,0.357-4.832,0.819-7.265,1.05
			c-4.806,0.454-7.7,2.475-8.794,7.658c-1.223,5.799-3.514,11.371-4.977,15.913c-5.697-0.794-10.715-1.493-16.11-2.245
			c5.344-9.431,10.695-19.083,16.324-28.57c0.791-1.332,2.92-2.593,4.465-2.636C277.224,345.887,286.205,346.014,295.38,346.014z"/>
		<path fill="#FFFFFF" d="M351.213,381.262c-2.148-7.486-4.003-14.554-6.301-21.474c-0.507-1.528-2.418-3.29-3.977-3.639
			c-4.765-1.066-9.656-1.647-14.526-2.134c-4.591-0.459-6.11-3.592-7.306-7.993c9.883,0,19.604-0.064,29.321,0.104
			c0.931,0.017,2.129,1.325,2.704,2.322c5.526,9.588,10.944,19.236,16.448,28.963C362.176,379.521,355.857,375.294,351.213,381.262z
			"/>
		<path fill="#FFFFFF" d="M320.306,448.001c-0.753-5.229,2.474-6.338,5.942-6.93c4.83-0.824,9.695-1.449,14.559-2.05
			c2.543-0.313,3.777-1.202,4.416-4.091c1.492-6.735,3.734-13.307,5.478-19.271c5.604,1.131,10.526,2.124,15.934,3.215
			c-3.037,5.573-6.282,11.541-9.549,17.497c-0.234,0.428-0.812,0.728-0.912,1.161c-2.334,9.974-9.227,11.578-18.18,10.589
			C332.131,447.476,326.141,448.001,320.306,448.001z"/>
		<path fill="#FFFFFF" d="M294.458,448.001c-8.537,0-16.702-0.257-24.839,0.108c-4.048,0.183-6.124-1.268-7.972-4.718
			c-4.458-8.329-9.344-16.433-14.077-24.661c5.074-0.852,10.068-1.688,15.827-2.654c1.626,4.925,3.913,10.803,5.448,16.871
			c0.996,3.936,2.3,6.242,6.846,6.518c4.174,0.253,8.243,2.008,12.425,2.418C291.882,442.252,293.692,444.004,294.458,448.001z"/>
		<path fill="#FFFFFF" d="M369.844,407.995c-4.979-0.075-11.051-6.315-10.812-11.259c0.217-4.47,4.737-11.262,12.627-10.782
			c6.019,0.365,10.006,5.413,9.883,13.173C381.482,402.805,374.543,408.066,369.844,407.995z"/>
	</g>
</g>
</svg>
