<?xml version="1.0" encoding="utf-8"?>
<!-- Generator: Adobe Illustrator 16.0.4, SVG Export Plug-In . SVG Version: 6.00 Build 0)  -->
<!DOCTYPE svg PUBLIC "-//W3C//DTD SVG 1.1//EN" "http://www.w3.org/Graphics/SVG/1.1/DTD/svg11.dtd">
<svg version="1.1" id="Layer_1" xmlns="http://www.w3.org/2000/svg" xmlns:xlink="http://www.w3.org/1999/xlink" x="0px" y="0px"
	 width="422px" height="378px" viewBox="86.5 223.5 422 378" enable-background="new 86.5 223.5 422 378" xml:space="preserve">
<g id="Layer_1_1_">
	<g>
		<g>
			<path fill="#FFFFFF" d="M97.992,485.532c0-49.683,0-99.362,0-149.117c70.267,0,140.567,0,210.998,0c0,49.656,0,99.388,0,149.117
				C238.727,485.532,168.377,485.532,97.992,485.532z M176.317,415.369c-1.076,0-1.938-0.251-2.202,0.039
				c-2.481,2.732-5.007,5.447-7.235,8.382c-3.96,5.214-7.657,10.627-11.597,15.855c-1.788,2.375-3.465,5.474-5.937,6.574
				c-6.868,3.065-14.082,5.394-21.255,7.714c-2.323,0.751-5.38-0.163-7.341,0.984c-4.367,2.555-8.573,5.594-12.23,9.08
				c-2.59,2.469-4.467,5.846-6.101,9.1c-1.018,2.023-1.84,4.836-1.228,6.824c0.885,2.873,3.481,4.229,6.86,2.896
				c3.256-1.285,6.724-2.054,9.924-3.447c3.084-1.346,4.639-4.568,8.818-5.217c6.125-0.949,11.867-4.188,17.87-6.152
				c4.742-1.552,9.663-2.549,14.443-3.998c2.502-0.76,5.382-1.398,7.21-3.061c7.863-7.148,15.43-14.627,23.043-22.051
				c3.549-3.459,6.534-6.703,12.701-5.646c6.687,1.146,13.723,0.254,20.606,0.257c1.459,0.001,2.721-0.287,3.369,1.9
				c0.805,2.711,2.359,5.234,3.807,7.715c3.93,6.726,7.881,13.439,12.016,20.041c1.675,2.672,3.24,5.17,7.535,4.934
				c9.277-0.513,18.602-0.164,27.908-0.146c1.012,0.001,2.587-0.271,2.949,0.25c3.184,4.564,7.912,3.354,12.26,3.504
				c2.944,0.101,5.568-1.032,6.583-3.812c1.325-3.632-0.161-6.233-3.88-8.229c-0.983-0.527-2.018-1.03-2.859-1.746
				c-3.968-3.378-6.804-4.479-12.01-1.359c-2.562,1.536-4.17,2.246-7.578,1.014c-6.019-2.178-12.699-2.522-18.82-3.588
				c-2.046-6.373-4.016-12.562-6.025-18.74c-0.932-2.861-2.579-5.662-2.736-8.557c-0.152-2.818,1.184-5.72,2.199-9.986
				c1.965,9.713,10.219,9.7,16.052,10.1c6.359,0.432,13.675-2.08,16.888-9.482c-0.173-0.664-0.713-1.699-0.644-2.688
				c0.176-2.479,1.37-5.145,0.757-7.343c-0.6-2.149-2.697-4.097-4.545-5.646c-4.619-3.873-10.32-3.656-15.834-3.229
				c-3.604,0.276-7.385,0.819-10.106,3.688c-1.169,1.232-2.048,2.74-3.153,4.252c-2.434-13.226,4.398-24.221,6.754-35.783
				c2.256-0.747,4.237-1.592,6.304-2.051c4.999-1.11,10.025-2.113,15.069-2.988c1.125-0.194,2.488,0.062,3.543,0.543
				c5.652,2.58,11.306,3.388,16.711-0.309c1.558-1.064,3.75-3.438,3.422-4.566c-0.725-2.508-2.412-5.836-4.519-6.607
				c-3.851-1.407-8.28-3.719-12.501-0.287c-0.345,0.28-0.945,0.359-1.423,0.35c-10.902-0.221-21.804-0.506-32.706-0.637
				c-0.985-0.012-2.418,0.7-2.9,1.516c-2.855,4.812-5.547,9.724-8.172,14.666c-1.183,2.228-1.879,4.726-3.156,6.889
				c-2.658,4.503-5.557,8.865-8.545,13.584c-6.686,0-13.832-0.27-20.947,0.088c-5.235,0.264-9.526,0.012-13.458-4.559
				c-4.602-5.348-10.645-9.426-15.67-14.446c-4.172-4.168-7.33-9.392-13.953-10.318c-2.193-0.307-4.258-1.532-6.384-2.327
				c-9.193-3.443-18.386-6.885-27.582-10.32c-1.196-0.446-2.469-0.73-3.604-1.294c-5.297-2.632-10.483-5.5-15.865-7.94
				c-2.481-1.125-7.094,3.539-6.089,6.074c2.488,6.289,5.488,12.148,11.521,16.088c3.797,2.48,6.403,6.412,11.602,7.13
				c4.041,0.557,7.866,2.718,11.771,4.21c3.782,1.445,7.434,3.552,11.342,4.254c4.094,0.734,4.887,4.194,6.978,6.507
				c3.369,3.728,6.278,7.871,9.418,11.81c2.292,2.876,4.388,5.979,7.054,8.462c1.904,1.774,2.91,3.535,2.882,6.026
				c-0.015,1.369-0.003,2.738-0.003,4.263c2.846-1.062,3.048-3.411,0.829-6.485c5.752-4.477,11.482-8.992,17.315-13.375
				c0.494-0.371,1.669,0.162,1.836,0.185c-0.655,2.042-1.609,3.562-1.537,5.033c0.497,10.164-1.908,20.515,2.423,30.438
				c-0.318,0.202-0.637,0.404-0.956,0.605c-6.345-4.408-12.69-8.816-19.113-13.279C175.022,416.877,175.521,416.296,176.317,415.369
				z"/>
			<path d="M176.317,415.369c-0.796,0.927-1.295,1.508-1.824,2.123c6.423,4.463,12.769,8.871,19.113,13.277
				c0.318-0.199,0.637-0.401,0.956-0.604c-4.332-9.924-1.926-20.273-2.423-30.438c-0.072-1.472,0.882-2.992,1.537-5.035
				c-0.167-0.022-1.342-0.556-1.836-0.185c-5.833,4.384-11.563,8.898-17.315,13.375c2.219,3.074,2.017,5.427-0.829,6.485
				c0-1.521-0.012-2.895,0.003-4.264c0.028-2.49-0.978-4.252-2.882-6.025c-2.666-2.482-4.762-5.586-7.054-8.462
				c-3.14-3.938-6.049-8.082-9.418-11.81c-2.091-2.312-2.884-5.772-6.978-6.507c-3.908-0.702-7.56-2.809-11.342-4.254
				c-3.904-1.492-7.729-3.653-11.771-4.21c-5.198-0.718-7.805-4.649-11.602-7.13c-6.033-3.939-9.033-9.799-11.521-16.088
				c-1.005-2.535,3.607-7.199,6.089-6.074c5.382,2.44,10.568,5.309,15.865,7.94c1.135,0.563,2.407,0.848,3.604,1.294
				c9.196,3.436,18.389,6.877,27.582,10.32c2.126,0.795,4.19,2.021,6.384,2.327c6.623,0.927,9.781,6.15,13.953,10.318
				c5.025,5.021,11.068,9.099,15.67,14.446c3.931,4.57,8.222,4.822,13.458,4.559c7.115-0.357,14.261-0.088,20.947-0.088
				c2.988-4.719,5.887-9.081,8.545-13.584c1.277-2.163,1.974-4.661,3.156-6.889c2.625-4.942,5.316-9.854,8.172-14.666
				c0.482-0.815,1.915-1.527,2.9-1.516c10.902,0.131,21.804,0.416,32.706,0.637c0.478,0.01,1.078-0.069,1.423-0.35
				c4.221-3.432,8.65-1.12,12.501,0.287c2.106,0.771,3.794,4.1,4.521,6.607c0.324,1.129-1.866,3.502-3.424,4.566
				c-5.405,3.696-11.059,2.889-16.711,0.309c-1.055-0.481-2.418-0.737-3.543-0.543c-5.044,0.875-10.07,1.878-15.069,2.988
				c-2.066,0.459-4.048,1.304-6.304,2.051c-2.355,11.562-9.188,22.558-6.754,35.783c1.105-1.512,1.984-3.021,3.153-4.252
				c2.722-2.87,6.503-3.412,10.106-3.688c5.514-0.426,11.215-0.644,15.834,3.229c1.848,1.549,3.945,3.494,4.545,5.646
				c0.613,2.199-0.581,4.862-0.757,7.343c-0.069,0.989,0.471,2.024,0.644,2.688c-3.213,7.402-10.528,9.914-16.888,9.482
				c-5.833-0.397-14.087-0.387-16.052-10.101c-1.016,4.27-2.352,7.167-2.199,9.987c0.157,2.895,1.805,5.693,2.736,8.555
				c2.01,6.18,3.979,12.368,6.025,18.742c6.121,1.063,12.802,1.41,18.82,3.587c3.408,1.233,5.016,0.523,7.578-1.013
				c5.206-3.12,8.042-2.019,12.01,1.359c0.842,0.716,1.876,1.219,2.859,1.746c3.719,1.991,5.205,4.597,3.88,8.229
				c-1.015,2.78-3.639,3.913-6.583,3.812c-4.348-0.147-9.076,1.062-12.26-3.506c-0.362-0.52-1.938-0.248-2.949-0.25
				c-9.307-0.016-18.631-0.362-27.908,0.148c-4.295,0.236-5.86-2.262-7.535-4.934c-4.135-6.602-8.086-13.315-12.016-20.041
				c-1.447-2.479-3.002-5.005-3.807-7.716c-0.648-2.188-1.91-1.898-3.369-1.899c-6.883-0.003-13.919,0.889-20.606-0.257
				c-6.167-1.06-9.152,2.188-12.701,5.646c-7.613,7.422-15.18,14.9-23.043,22.05c-1.828,1.661-4.708,2.302-7.21,3.062
				c-4.78,1.449-9.701,2.446-14.443,3.998c-6.003,1.965-11.745,5.203-17.87,6.151c-4.18,0.647-5.734,3.87-8.818,5.218
				c-3.2,1.396-6.668,2.161-9.924,3.446c-3.379,1.335-5.976-0.021-6.86-2.896c-0.612-1.988,0.21-4.801,1.228-6.824
				c1.634-3.254,3.511-6.631,6.101-9.1c3.657-3.486,7.863-6.525,12.23-9.08c1.961-1.147,5.018-0.233,7.341-0.984
				c7.173-2.321,14.387-4.646,21.255-7.714c2.472-1.103,4.148-4.199,5.937-6.574c3.939-5.229,7.637-10.644,11.597-15.855
				c2.229-2.936,4.754-5.647,7.235-8.383C174.379,415.118,175.241,415.369,176.317,415.369z M126.187,471.594
				c0.896,0.049,1.578,0.271,2.126,0.088c9.881-3.308,19.757-6.629,29.606-10.025c4.02-1.39,8.03-2.624,10.787-6.457
				c1.803-2.507,4.56-4.321,6.853-6.484c3.585-3.381,7.14-6.794,10.744-10.229c-6.396-4.227-12.69-8.385-18.699-12.354
				c-1.951,2.308-3.867,4.459-5.656,6.711c-3.689,4.646-7.315,9.34-10.957,14.023c-0.478,0.611-0.758,1.639-1.356,1.857
				c-5.631,2.08-11.31,4.027-17.377,6.152c0.279,0.702,0.708,1.507,0.915,2.365c0.271,1.128,0.911,2.628,0.446,3.393
				C131.422,464.244,128.902,467.658,126.187,471.594z M132.08,369.416c5.312,1.62,10.037,2.83,14.572,4.541
				c2.235,0.842,4.434,2.31,6.089,4.032c2.279,2.371,3.985,5.284,6.017,7.905c2.309,2.979,4.879,5.77,7.005,8.869
				c1.546,2.256,3.298,2.588,5.499,0.991c4.851-3.521,9.884-6.792,14.852-10.171c-1.138-1.363-2.171-2.89-3.484-4.117
				c-2.702-2.528-5.715-4.738-8.312-7.363c-5.553-5.615-11.136-10.9-19.347-12.615c-4.263-0.891-8.284-2.935-12.416-4.453
				c-4.596-1.688-9.192-3.371-14.123-5.18C129.706,358.053,136.937,362.418,132.08,369.416z M243.69,393.887
				c1.131-2.838,2.315-5.348,3.134-7.971c1.264-4.055,2.135-8.234,3.452-12.27c0.673-2.063,1.53-5.115,3.041-5.654
				c4.073-1.453,8.514-2.122,12.86-2.511c8.239-0.735,11.257-2.817,12.896-9.987c-10.354,0-20.648-0.074-30.938,0.107
				c-1.098,0.02-2.521,1.318-3.186,2.398c-2.191,3.553-4.077,7.293-6.135,10.93c-1.28,2.264-2.723,4.438-3.983,6.712
				c-2.702,4.874-5.333,9.788-7.991,14.683C232.171,391.941,238.639,388.295,243.69,393.887z M226.703,433.779
				c6.459,11.105,12.69,21.828,18.844,32.412c10.961,0,21.848,0,32.77,0c-0.1-3.842-2.895-5.646-5.525-6.484
				c-4.248-1.354-8.826-1.638-13.237-2.521c-2.434-0.484-5.989-0.521-6.97-2.068c-2.234-3.532-3.32-7.83-4.637-11.895
				c-1.373-4.234-2.471-8.562-4.002-13.948C238.846,435.696,232.328,432.588,226.703,433.779z"/>
			<path fill="#FFFFFF" d="M126.187,471.594c2.716-3.936,5.235-7.35,7.432-10.959c0.465-0.765-0.175-2.265-0.446-3.393
				c-0.207-0.858-0.636-1.663-0.915-2.365c6.067-2.125,11.746-4.072,17.377-6.152c0.599-0.221,0.879-1.246,1.356-1.857
				c3.642-4.686,7.268-9.379,10.957-14.023c1.789-2.252,3.705-4.402,5.656-6.711c6.009,3.971,12.304,8.129,18.699,12.354
				c-3.604,3.435-7.159,6.848-10.744,10.229c-2.293,2.163-5.05,3.979-6.853,6.484c-2.757,3.833-6.768,5.067-10.787,6.457
				c-9.85,3.396-19.726,6.72-29.606,10.025C127.765,471.865,127.082,471.643,126.187,471.594z"/>
			<path fill="#FFFFFF" d="M132.08,369.416c4.856-6.998-2.374-11.363-3.648-17.561c4.931,1.809,9.527,3.492,14.123,5.18
				c4.132,1.519,8.153,3.562,12.416,4.453c8.211,1.715,13.794,7,19.347,12.615c2.597,2.625,5.609,4.835,8.312,7.363
				c1.313,1.228,2.347,2.754,3.484,4.117c-4.968,3.379-10.001,6.65-14.852,10.171c-2.201,1.598-3.953,1.266-5.499-0.991
				c-2.126-3.1-4.696-5.891-7.005-8.869c-2.031-2.621-3.737-5.534-6.017-7.905c-1.655-1.723-3.854-3.19-6.089-4.032
				C142.117,372.246,137.393,371.036,132.08,369.416z"/>
			<path fill="#FFFFFF" d="M243.69,393.887c-5.052-5.592-11.52-1.945-16.849-3.562c2.658-4.895,5.289-9.809,7.991-14.683
				c1.261-2.274,2.703-4.448,3.983-6.712c2.058-3.637,3.943-7.377,6.135-10.93c0.665-1.08,2.088-2.379,3.186-2.398
				c10.289-0.182,20.583-0.107,30.938-0.107c-1.64,7.17-4.657,9.252-12.896,9.987c-4.347,0.389-8.787,1.058-12.86,2.511
				c-1.511,0.539-2.368,3.591-3.041,5.654c-1.317,4.035-2.188,8.215-3.452,12.27C246.006,388.539,244.821,391.049,243.69,393.887z"
				/>
			<path fill="#FFFFFF" d="M226.703,433.779c5.625-1.191,12.143,1.917,17.242-4.505c1.531,5.388,2.629,9.714,4.002,13.948
				c1.316,4.062,2.402,8.36,4.637,11.895c0.98,1.549,4.536,1.584,6.97,2.07c4.411,0.882,8.989,1.164,13.237,2.52
				c2.631,0.839,5.426,2.645,5.525,6.484c-10.922,0-21.809,0-32.77,0C239.394,455.607,233.162,444.887,226.703,433.779z"/>
		</g>
	</g>
</g>
<g id="Layer_2">
	<g>
		<g>
			<path d="M337.001,349.958c2.516-11.729,5.088-23.719,7.66-35.71c-0.772-0.378-1.544-0.756-2.316-1.134
				c-1.451,1.821-2.559,4.165-4.407,5.377c-12.008,7.865-21.578,3.486-28.253-6.925c-1.445-2.259-1.129-7.03,0.328-9.484
				c3.031-5.104,7.304-9.083,14.303-8.995c7.061,0.088,13.59,0.674,18.771,7.41c1.411-12.842-4.639-23.509-6.414-34.792
				c-6.867-1.268-13.426-2.781-20.071-3.573c-3.016-0.359-6.372,0.226-9.272,1.243c-5.318,1.863-13.859-1.138-15.218-6.565
				c-0.533-2.129,0.993-6.485,2.611-7.096c3.598-1.356,7.844-1.21,11.827-1.23c1.987-0.01,3.972,1.38,5.971,1.416
				c9.363,0.164,18.739-0.116,28.096,0.232c2.029,0.076,4.811,1.582,5.844,3.281c5.32,8.751,10.426,17.655,15.101,26.764
				c2.33,4.541,4.806,7.076,10.411,6.701c6.557-0.438,13.188,0.414,19.783,0.402c1.453-0.003,3.193-0.977,4.312-2.027
				c8.881-8.354,17.607-16.869,26.479-25.234c1.216-1.147,2.865-2.005,4.466-2.543c13.017-4.379,26.147-8.426,39.062-13.076
				c4.395-1.583,8.1-5.026,12.454-6.799c2.525-1.03,6.195-1.435,8.503-0.337c3.845,1.832,2.712,5.688,0.984,8.7
				c-6.126,10.693-14.199,18.454-27.257,20.458c-6.844,1.049-13.875,3.474-19.807,6.989c-4.312,2.555-7.067,7.836-10.327,12.048
				c-4.216,5.446-8.347,10.963-12.3,16.601c-1.517,2.16-2.438,4.735-4.667,7.063c0.312-2.249,0.63-4.499,1.007-7.195
				c-5.816-4.025-12.264-8.487-18.919-13.092c4.181,12.939,4,25.268-0.497,38.776c7.533-5.545,14.184-10.441,21.402-15.756
				c4.506,5.795,10.688,12.413,15.274,19.997c5.299,8.766,13.151,12.756,22.277,15.41c3.876,1.127,7.732,2.369,11.678,3.193
				c6.926,1.447,21.104,14.857,22.093,21.711c0.299,2.062-0.354,5.094-1.761,6.332c-1.35,1.189-4.31,1.059-6.431,0.713
				c-1.813-0.297-3.507-1.621-5.143-2.666c-14.021-8.969-30.469-11.553-45.634-17.498c-2.854-1.121-5.659-2.861-7.91-4.939
				c-8.69-8.031-17.124-16.344-25.734-24.463c-0.935-0.881-2.45-1.746-3.626-1.658c-6.759,0.498-13.497,1.852-20.233,1.797
				c-5.468-0.045-8.214,1.824-10.577,6.723c-4.133,8.566-9.098,16.748-14.058,24.881c-0.946,1.553-3.448,2.969-5.282,3.031
				c-8.996,0.312-18.011,0.049-27.014,0.215c-2.227,0.041-4.411,1.162-6.653,1.369c-3.728,0.342-7.688,1.166-11.173,0.287
				c-4.254-1.074-5.057-6.232-2.175-9.596c3.651-4.264,9.236-5.088,14.673-4.121c4.67,0.832,9.685,0.014,14.512-0.441
				C327.795,351.751,331.788,350.839,337.001,349.958z M406.747,282.876c-0.819-0.649-1.639-1.3-2.458-1.949
				c4.603,3.249,9.56,6.108,13.702,9.863c3.636,3.297,4.965,2.4,7.766-1.109c7.137-8.938,12.025-20.586,25.352-22.792
				c2.324-0.385,4.514-1.604,6.829-2.461c-3.668-7.271,3.552-10.738,5.517-16.759c-12.804,4.199-25.06,8.207-37.296,12.264
				c-0.636,0.21-1.233,0.761-1.675,1.297C418.552,268.431,412.653,275.657,406.747,282.876z M404.169,334.788
				c0.912-0.859,1.823-1.721,2.735-2.58c5.928,7.459,11.847,14.926,17.804,22.363c0.426,0.531,1.064,1.025,1.703,1.238
				c12.119,4,24.254,7.957,36.853,12.074c-3.849-5.438-8.911-9.893-5.838-17.033c-1.72-0.504-3.604-0.67-5.052-1.551
				c-4.965-3.025-11.661-2.566-15.371-8.248c-3.658-5.6-7.901-10.82-11.883-16.211c-1.963-2.658-3.646-3.074-6.524-0.588
				C414.105,328.134,409.009,331.312,404.169,334.788z M310.767,252.159c1.691,4.53,3,8.182,8.076,8.645
				c5.27,0.479,10.554,1.149,15.707,2.298c1.694,0.378,3.801,2.24,4.347,3.881c2.483,7.481,4.479,15.124,6.769,23.119
				c5.137-5.977,11.82-1.993,17.79-3.923c-5.978-10.562-11.833-20.988-17.802-31.35c-0.625-1.085-1.899-2.537-2.896-2.555
				C332.239,252.088,321.716,252.159,310.767,252.159z M345.146,327.343c-1.912,6.621-3.821,13.881-6.193,20.986
				c-0.57,1.709-2.477,3.797-4.116,4.17c-5.146,1.178-10.476,1.514-15.7,2.379c-3.896,0.646-7.713,1.635-6.816,7.527
				c6.178,0,12.493-0.508,18.693,0.115c9.715,0.977,17.574-0.395,20.136-11.539c0.104-0.465,0.753-0.777,1.005-1.238
				c3.484-6.406,6.946-12.824,10.175-18.793C356.409,329.708,351.097,328.593,345.146,327.343z M377.936,307.345
				c-0.536-8.176-4.577-12.412-11.417-11.969c-6.67,0.432-12.644,6.396-12.385,12.364c0.238,5.499,7.033,11.712,12.481,11.416
				C372.856,318.813,378.315,313.118,377.936,307.345z"/>
			<path fill="#FFFFFF" d="M406.747,282.876c5.906-7.219,11.805-14.445,17.734-21.646c0.439-0.536,1.037-1.087,1.675-1.297
				c12.236-4.057,24.492-8.065,37.296-12.264c-1.965,6.021-9.185,9.487-5.517,16.759c-2.315,0.857-4.505,2.076-6.829,2.461
				c-13.324,2.206-18.215,13.854-25.352,22.792c-2.801,3.509-4.13,4.406-7.766,1.109c-4.145-3.755-9.102-6.615-13.702-9.863
				C405.108,281.576,405.928,282.227,406.747,282.876z"/>
			<path fill="#FFFFFF" d="M404.169,334.788c4.84-3.477,9.938-6.654,14.427-10.535c2.878-2.486,4.562-2.07,6.524,0.588
				c3.979,5.391,8.225,10.611,11.883,16.211c3.71,5.682,10.406,5.223,15.371,8.248c1.448,0.881,3.332,1.047,5.052,1.551
				c-3.073,7.141,1.989,11.596,5.838,17.033c-12.599-4.117-24.731-8.074-36.853-12.074c-0.639-0.213-1.277-0.707-1.703-1.238
				c-5.957-7.438-11.876-14.904-17.804-22.363C405.992,333.067,405.081,333.929,404.169,334.788z"/>
			<path fill="#FFFFFF" d="M310.767,252.159c10.949,0,21.475-0.071,31.99,0.115c0.995,0.018,2.271,1.47,2.896,2.555
				c5.969,10.361,11.824,20.788,17.802,31.35c-5.97,1.93-12.653-2.053-17.79,3.923c-2.288-7.996-4.283-15.638-6.77-23.119
				c-0.545-1.641-2.649-3.503-4.346-3.881c-5.154-1.149-10.438-1.819-15.707-2.298C313.767,260.341,312.458,256.689,310.767,252.159
				z"/>
			<path fill="#FFFFFF" d="M345.146,327.343c5.949,1.25,11.264,2.365,17.181,3.607c-3.229,5.969-6.688,12.387-10.175,18.793
				c-0.252,0.461-0.898,0.773-1.005,1.238c-2.562,11.145-10.421,12.516-20.136,11.539c-6.2-0.623-12.518-0.115-18.693-0.115
				c-0.896-5.893,2.922-6.881,6.816-7.527c5.227-0.865,10.557-1.201,15.7-2.379c1.642-0.373,3.546-2.461,4.116-4.17
				C341.324,341.224,343.233,333.964,345.146,327.343z"/>
			<path fill="#FFFFFF" d="M377.936,307.345c0.382,5.772-5.077,11.468-11.318,11.81c-5.448,0.297-12.243-5.917-12.481-11.416
				c-0.259-5.968,5.715-11.932,12.386-12.364C373.356,294.934,377.397,299.169,377.936,307.345z"/>
		</g>
	</g>
</g>
<path d="M337.001,556.958c2.516-11.729,5.088-23.719,7.66-35.71c-0.772-0.378-1.544-0.756-2.316-1.134
	c-1.451,1.82-2.559,4.165-4.407,5.377c-12.008,7.864-21.578,3.484-28.253-6.925c-1.445-2.261-1.129-7.03,0.328-9.484
	c3.031-5.104,7.304-9.083,14.303-8.995c7.061,0.088,13.59,0.675,18.771,7.41c1.411-12.842-4.639-23.509-6.414-34.792
	c-6.867-1.268-13.426-2.781-20.071-3.573c-3.016-0.357-6.372,0.227-9.272,1.243c-5.318,1.863-13.859-1.138-15.218-6.563
	c-0.533-2.13,0.993-6.485,2.611-7.098c3.598-1.355,7.844-1.21,11.827-1.229c1.987-0.011,3.972,1.38,5.971,1.416
	c9.363,0.164,18.739-0.116,28.096,0.23c2.029,0.076,4.811,1.582,5.844,3.281c5.32,8.751,10.426,17.655,15.101,26.765
	c2.33,4.54,4.806,7.075,10.411,6.7c6.557-0.438,13.188,0.414,19.783,0.402c1.453-0.003,3.193-0.979,4.312-2.027
	c8.881-8.354,17.607-16.869,26.479-25.232c1.216-1.147,2.865-2.007,4.466-2.544c13.017-4.379,26.147-8.427,39.062-13.075
	c4.395-1.584,8.1-5.026,12.454-6.8c2.525-1.029,6.195-1.436,8.503-0.338c3.845,1.832,2.712,5.688,0.984,8.7
	c-6.126,10.693-14.199,18.454-27.257,20.458c-6.844,1.049-13.875,3.476-19.807,6.989c-4.312,2.555-7.067,7.836-10.327,12.048
	c-4.216,5.446-8.347,10.963-12.3,16.603c-1.517,2.159-2.438,4.733-4.667,7.062c0.312-2.249,0.63-4.499,1.007-7.195
	c-5.816-4.023-12.264-8.485-18.919-13.092c4.181,12.939,4,25.268-0.497,38.775c7.533-5.545,14.184-10.44,21.402-15.756
	c4.506,5.795,10.688,12.414,15.274,19.998c5.299,8.766,13.151,12.756,22.277,15.409c3.876,1.127,7.732,2.368,11.678,3.192
	c6.926,1.446,21.104,14.855,22.093,21.711c0.299,2.062-0.354,5.095-1.761,6.332c-1.35,1.188-4.31,1.06-6.431,0.713
	c-1.813-0.297-3.507-1.621-5.143-2.666c-14.021-8.969-30.469-11.553-45.634-17.498c-2.854-1.12-5.659-2.859-7.91-4.938
	c-8.69-8.031-17.124-16.345-25.734-24.463c-0.935-0.882-2.45-1.746-3.626-1.658c-6.759,0.498-13.497,1.852-20.233,1.797
	c-5.468-0.045-8.214,1.824-10.577,6.723c-4.133,8.566-9.098,16.748-14.058,24.881c-0.946,1.554-3.448,2.97-5.282,3.031
	c-8.996,0.312-18.011,0.049-27.014,0.215c-2.227,0.041-4.411,1.162-6.653,1.369c-3.728,0.342-7.688,1.166-11.173,0.287
	c-4.254-1.074-5.057-6.232-2.175-9.596c3.651-4.265,9.236-5.088,14.673-4.121c4.67,0.832,9.685,0.014,14.512-0.441
	C327.795,558.751,331.788,557.839,337.001,556.958z M406.747,489.876c-0.819-0.649-1.639-1.3-2.458-1.949
	c4.603,3.249,9.56,6.108,13.702,9.863c3.636,3.297,4.965,2.399,7.766-1.108c7.137-8.938,12.025-20.587,25.352-22.793
	c2.324-0.385,4.514-1.604,6.829-2.461c-3.668-7.271,3.552-10.737,5.517-16.759c-12.804,4.199-25.06,8.207-37.296,12.265
	c-0.636,0.209-1.233,0.761-1.675,1.298C418.552,475.432,412.653,482.657,406.747,489.876z M404.169,541.788
	c0.912-0.858,1.823-1.722,2.735-2.58c5.928,7.459,11.847,14.926,17.804,22.362c0.426,0.53,1.064,1.024,1.703,1.237
	c12.119,4,24.254,7.957,36.853,12.074c-3.849-5.438-8.911-9.893-5.838-17.033c-1.72-0.504-3.604-0.67-5.052-1.551
	c-4.965-3.025-11.661-2.565-15.371-8.248c-3.658-5.6-7.901-10.82-11.883-16.211c-1.963-2.658-3.646-3.074-6.524-0.588
	C414.105,535.134,409.009,538.312,404.169,541.788z M310.767,459.159c1.691,4.53,3,8.182,8.076,8.645
	c5.27,0.479,10.554,1.149,15.707,2.298c1.694,0.38,3.801,2.24,4.347,3.882c2.483,7.48,4.479,15.125,6.769,23.118
	c5.137-5.977,11.82-1.991,17.79-3.923c-5.978-10.562-11.833-20.986-17.802-31.35c-0.625-1.085-1.899-2.537-2.896-2.556
	C332.239,459.088,321.716,459.159,310.767,459.159z M345.146,534.343c-1.912,6.621-3.821,13.882-6.193,20.986
	c-0.57,1.709-2.477,3.797-4.116,4.17c-5.146,1.178-10.476,1.515-15.7,2.379c-3.896,0.646-7.713,1.636-6.816,7.526
	c6.178,0,12.493-0.508,18.693,0.115c9.715,0.978,17.574-0.396,20.136-11.539c0.104-0.466,0.753-0.776,1.005-1.237
	c3.484-6.406,6.946-12.824,10.175-18.793C356.409,536.708,351.097,535.593,345.146,534.343z M377.936,514.346
	c-0.536-8.177-4.577-12.412-11.417-11.97c-6.67,0.433-12.644,6.396-12.385,12.364c0.238,5.499,7.033,11.712,12.481,11.416
	C372.856,525.812,378.315,520.118,377.936,514.346z"/>
</svg>
