<?xml version="1.0" encoding="utf-8"?>
<!-- Generator: Adobe Illustrator 16.0.4, SVG Export Plug-In . SVG Version: 6.00 Build 0)  -->
<!DOCTYPE svg PUBLIC "-//W3C//DTD SVG 1.1//EN" "http://www.w3.org/Graphics/SVG/1.1/DTD/svg11.dtd">
<svg version="1.1" id="Layer_1" xmlns="http://www.w3.org/2000/svg" xmlns:xlink="http://www.w3.org/1999/xlink" x="0px" y="0px"
	 width="471px" height="431px" viewBox="80.5 192.5 471 431" enable-background="new 80.5 192.5 471 431" xml:space="preserve">
<g id="Layer_1_1_">
	<g>
		<g>
			<path d="M315.742,532.635c0.927,0.795,1.508,1.295,2.123,1.824c4.463-6.424,8.871-12.77,13.277-19.113
				c-0.199-0.317-0.401-0.637-0.604-0.957c-9.924,4.332-20.273,1.927-30.438,2.425c-1.471,0.071-2.992-0.884-5.034-1.537
				c-0.021,0.168-0.555,1.342-0.185,1.836c4.383,5.834,8.898,11.562,13.375,17.313c3.074-2.219,5.426-2.016,6.485,0.83
				c-1.522,0-2.895,0.013-4.264-0.004c-2.49-0.027-4.252,0.979-6.025,2.883c-2.483,2.666-5.586,4.763-8.462,7.054
				c-3.938,3.141-8.082,6.051-11.81,9.418c-2.312,2.092-5.772,2.885-6.508,6.979c-0.701,3.908-2.809,7.562-4.254,11.342
				c-1.492,3.904-3.652,7.73-4.21,11.771c-0.718,5.197-4.649,7.805-7.13,11.602c-3.939,6.033-9.799,9.033-16.088,11.521
				c-2.535,1.006-7.199-3.607-6.074-6.09c2.439-5.382,5.309-10.566,7.939-15.863c0.563-1.137,0.849-2.408,1.295-3.605
				c3.436-9.194,6.877-18.389,10.32-27.582c0.795-2.125,2.021-4.188,2.326-6.383c0.928-6.623,6.15-9.781,10.318-13.953
				c5.021-5.024,9.099-11.067,14.445-15.67c4.57-3.932,4.822-8.223,4.56-13.459c-0.356-7.114-0.088-14.26-0.088-20.946
				c-4.72-2.986-9.081-5.888-13.584-8.546c-2.163-1.274-4.661-1.973-6.89-3.153c-4.941-2.625-9.854-5.316-14.666-8.174
				c-0.814-0.48-1.526-1.914-1.516-2.898c0.131-10.902,0.416-21.805,0.637-32.707c0.01-0.479-0.068-1.078-0.35-1.422
				c-3.432-4.223-1.12-8.65,0.287-12.502c0.771-2.105,4.1-3.793,6.607-4.52c1.129-0.324,3.502,1.866,4.565,3.424
				c3.696,5.406,2.89,11.061,0.31,16.711c-0.481,1.057-0.737,2.418-0.543,3.543c0.875,5.045,1.877,10.069,2.987,15.069
				c0.459,2.066,1.304,4.047,2.052,6.304c11.562,2.354,22.558,9.188,35.782,6.756c-1.512-1.105-3.02-1.984-4.252-3.154
				c-2.87-2.721-3.412-6.502-3.689-10.104c-0.426-5.515-0.643-11.216,3.23-15.834c1.549-1.849,3.494-3.945,5.645-4.546
				c2.199-0.612,4.863,0.58,7.344,0.757c0.988,0.069,2.023-0.472,2.688-0.644c7.402,3.213,9.914,10.527,9.482,16.887
				c-0.397,5.834-0.388,14.089-10.101,16.054c4.27,1.016,7.167,2.352,9.987,2.199c2.894-0.158,5.693-1.806,8.555-2.736
				c6.18-2.01,12.368-3.979,18.742-6.025c1.063-6.121,1.41-12.801,3.587-18.819c1.233-3.406,0.523-5.017-1.013-7.578
				c-3.12-5.205-2.02-8.041,1.359-12.01c0.716-0.843,1.219-1.875,1.745-2.857c1.992-3.719,4.598-5.205,8.229-3.881
				c2.78,1.016,3.913,3.639,3.812,6.582c-0.146,4.35,1.062,9.076-3.505,12.262c-0.52,0.361-0.248,1.938-0.25,2.947
				c-0.016,9.309-0.362,18.633,0.148,27.908c0.236,4.295-2.262,5.86-4.935,7.534c-6.601,4.136-13.314,8.086-20.041,12.019
				c-2.479,1.444-5.004,3.002-7.715,3.807c-2.188,0.646-1.898,1.91-1.899,3.369c-0.003,6.883,0.889,13.918-0.257,20.605
				c-1.06,6.166,2.188,9.151,5.646,12.7c7.422,7.613,14.9,15.181,22.05,23.043c1.661,1.828,2.301,4.707,3.062,7.209
				c1.449,4.781,2.445,9.701,3.998,14.443c1.965,6.004,5.203,11.746,6.151,17.871c0.647,4.18,3.87,5.731,5.218,8.815
				c1.396,3.201,2.161,6.668,3.446,9.927c1.335,3.379-0.021,5.975-2.896,6.858c-1.988,0.611-4.801-0.211-6.824-1.229
				c-3.254-1.635-6.631-3.512-9.1-6.103c-3.486-3.655-6.525-7.86-9.08-12.229c-1.147-1.961-0.233-5.021-0.984-7.342
				c-2.321-7.175-4.646-14.388-7.714-21.256c-1.104-2.472-4.199-4.146-6.574-5.937c-5.229-3.938-10.644-7.637-15.855-11.598
				c-2.936-2.229-5.647-4.754-8.383-7.234C315.491,534.572,315.742,533.711,315.742,532.635z M371.967,582.764
				c0.049-0.895,0.271-1.578,0.088-2.125c-3.308-9.881-6.629-19.758-10.025-29.604c-1.39-4.021-2.624-8.031-6.457-10.787
				c-2.507-1.803-4.321-4.562-6.484-6.854c-3.381-3.586-6.794-7.141-10.229-10.743c-4.227,6.396-8.385,12.688-12.354,18.698
				c2.308,1.951,4.459,3.867,6.711,5.656c4.646,3.689,9.34,7.314,14.023,10.957c0.611,0.477,1.639,0.758,1.857,1.355
				c2.08,5.631,4.027,11.311,6.152,17.377c0.702-0.279,1.507-0.707,2.365-0.914c1.128-0.271,2.628-0.912,3.393-0.447
				C364.617,577.529,368.031,580.049,371.967,582.764z M269.789,576.871c1.62-5.312,2.83-10.037,4.541-14.572
				c0.842-2.234,2.31-4.434,4.032-6.088c2.371-2.279,5.283-3.986,7.904-6.018c2.979-2.31,5.771-4.88,8.869-7.007
				c2.257-1.545,2.589-3.297,0.991-5.497c-3.521-4.853-6.792-9.886-10.171-14.853c-1.363,1.137-2.891,2.17-4.117,3.484
				c-2.527,2.7-4.738,5.715-7.363,8.311c-5.615,5.553-10.899,11.137-12.615,19.349c-0.891,4.264-2.935,8.282-4.452,12.416
				c-1.688,4.596-3.371,9.19-5.181,14.122C258.427,579.246,262.791,572.014,269.789,576.871z M294.261,465.262
				c-2.839-1.131-5.349-2.313-7.972-3.135c-4.056-1.264-8.233-2.135-12.271-3.451c-2.062-0.674-5.114-1.531-5.653-3.041
				c-1.453-4.074-2.122-8.514-2.511-12.858c-0.735-8.24-2.817-11.259-9.987-12.896c0,10.354-0.074,20.648,0.106,30.938
				c0.021,1.098,1.318,2.521,2.398,3.186c3.553,2.191,7.293,4.078,10.93,6.135c2.264,1.281,4.438,2.726,6.713,3.984
				c4.873,2.701,9.787,5.332,14.683,7.99C292.313,476.781,288.668,470.312,294.261,465.262z M334.152,482.248
				c11.105-6.459,21.828-12.689,32.412-18.844c0-10.961,0-21.849,0-32.771c-3.842,0.101-5.646,2.896-6.484,5.525
				c-1.354,4.248-1.638,8.826-2.521,13.235c-0.484,2.435-0.521,5.988-2.068,6.972c-3.532,2.231-7.83,3.317-11.895,4.637
				c-4.234,1.373-8.562,2.471-13.949,4.002C336.069,470.105,332.961,476.623,334.152,482.248z"/>
		</g>
	</g>
</g>
<g id="Layer_2">
	<g>
		<g>
			<path d="M281.514,318.039c-8.644,8.317-17.48,16.82-26.32,25.324c0.431,0.743,0.857,1.49,1.286,2.234
				c2.223-0.699,4.451-2.023,6.663-1.993c14.35,0.194,19.837,9.177,19.549,21.54c-0.064,2.68-2.994,6.457-5.576,7.676
				c-5.367,2.541-11.133,3.449-16.886-0.537c-5.806-4.021-10.892-8.158-11.419-16.643c-8.35,9.859-9.3,22.086-14.138,32.434
				c4.984,4.891,9.576,9.814,14.643,14.186c2.299,1.984,5.409,3.377,8.384,4.156c5.449,1.428,10.854,8.691,8.945,13.951
				c-0.75,2.062-4.45,4.82-6.133,4.42c-3.741-0.885-7.182-3.379-10.494-5.592c-1.653-1.104-2.521-3.365-4.157-4.512
				c-7.671-5.369-15.601-10.384-23.163-15.904c-1.64-1.195-3.103-3.999-3.01-5.987c0.483-10.229,1.229-20.465,2.448-30.633
				c0.607-5.066-0.025-8.551-4.884-11.377c-5.681-3.303-10.7-7.718-16.177-11.396c-1.206-0.81-3.194-0.975-4.707-0.73
				c-12.033,1.96-24.031,4.139-36.063,6.113c-1.65,0.271-3.495,0.059-5.123-0.389c-13.24-3.648-26.391-7.636-39.698-11.003
				c-4.528-1.144-9.524-0.362-14.126-1.328c-2.67-0.559-5.938-2.274-7.238-4.476c-2.161-3.668,0.934-6.233,4.049-7.763
				c11.059-5.44,22.09-7.359,34.036-1.718c6.262,2.957,13.446,4.877,20.33,5.28c5.004,0.292,10.24-2.545,15.299-4.213
				c6.54-2.158,13.05-4.42,19.479-6.885c2.464-0.943,4.669-2.562,7.817-3.245c-1.517,1.688-3.038,3.377-4.856,5.401
				c2.57,6.588,5.421,13.894,8.363,21.434c3.77-13.064,10.813-23.184,22.095-31.868c-9.346,0.384-17.597,0.723-26.554,1.094
				c-0.495-7.325-1.92-16.27-1.481-25.121c0.509-10.23-3.771-17.929-9.852-25.233c-2.583-3.102-5.085-6.288-7.895-9.178
				c-4.935-5.072-9.188-24.116-6.176-30.353c0.905-1.876,3.141-4.024,5-4.265c1.785-0.23,4.165,1.532,5.729,3.004
				c1.338,1.261,2.001,3.305,2.771,5.085c6.608,15.275,18.801,26.617,28.048,40.026c1.739,2.526,3.092,5.536,3.796,8.518
				c2.714,11.518,5.057,23.125,7.656,34.67c0.281,1.253,1.056,2.818,2.078,3.402c5.881,3.367,12.226,6.013,17.78,9.826
				c4.507,3.095,7.829,3.08,12.527,0.341c8.217-4.792,16.907-8.796,25.569-12.766c1.651-0.758,4.517-0.534,6.072,0.441
				c7.633,4.771,14.96,10.029,22.517,14.927c1.868,1.211,4.308,1.503,6.28,2.586c3.281,1.799,7.025,3.332,9.423,6.01
				c2.93,3.271,0.71,7.994-3.562,9.172c-5.411,1.491-10.502-0.947-14.47-4.79c-3.406-3.301-8.022-5.427-12.277-7.748
				C290.148,321.701,286.326,320.224,281.514,318.039z M186.18,334.651c0.314,0.997,0.631,1.994,0.947,2.991
				c-1.998-5.269-4.51-10.409-5.845-15.839c-1.17-4.767-2.773-4.766-7.058-3.423c-10.913,3.419-21.48,10.342-33.762,4.72
				c-2.142-0.98-4.639-1.193-7.039-1.778c-1.025,8.08-8.947,6.916-13.943,10.809c12.963,3.677,25.363,7.208,37.777,10.688
				c0.645,0.182,1.447,0.059,2.113-0.139C168.315,340.025,177.246,337.333,186.18,334.651z M217.346,293.056
				c-1.236,0.202-2.474,0.408-3.71,0.609c-0.744-9.498-1.475-18.999-2.256-28.494c-0.056-0.678-0.309-1.445-0.719-1.979
				c-7.811-10.093-15.658-20.16-23.802-30.616c0.15,6.658,1.857,13.183-4.685,17.383c1.145,1.38,2.614,2.571,3.32,4.112
				c2.426,5.283,8.234,8.646,8.134,15.432c-0.102,6.689,0.499,13.39,0.783,20.085c0.142,3.302,1.306,4.587,5.08,4.136
				C205.388,293.016,211.389,293.231,217.346,293.056z M248.574,413.787c1.131-4.699,2.087-8.459-1.86-11.682
				c-4.102-3.345-8.108-6.854-11.737-10.688c-1.193-1.262-1.899-3.982-1.434-5.648c2.125-7.59,4.744-15.041,7.316-22.951
				c-7.6,2.084-10.913-4.955-16.94-6.695c-0.953,12.1-1.926,24.018-2.773,35.945c-0.089,1.25,0.156,3.164,0.972,3.734
				C230.733,401.842,239.497,407.666,248.574,413.787z M262.114,332.233c5.288-4.42,10.931-9.371,16.87-13.935
				c1.429-1.1,4.175-1.764,5.744-1.156c4.924,1.901,9.532,4.603,14.347,6.808c3.59,1.644,7.309,2.958,9.859-2.428
				c-5.122-3.455-10.641-6.565-15.435-10.55c-7.507-6.242-14.79-9.499-23.145-1.693c-0.348,0.327-1.059,0.224-1.524,0.465
				c-6.473,3.362-12.932,6.746-18.944,9.89C254.1,323.974,257.881,327.869,262.114,332.233z M223.747,330.476
				c-4.125,7.079-3.146,12.851,2.774,16.31c5.771,3.37,14.057,1.769,17.18-3.327c2.878-4.691,0.719-13.642-3.963-16.443
				C234.371,323.81,226.662,325.478,223.747,330.476z"/>
		</g>
	</g>
</g>
<path d="M393.483,390.337c-3.688-11.414-7.452-23.084-11.222-34.754c-0.856,0.059-1.716,0.115-2.571,0.176
	c-0.35,2.303-0.135,4.887-1.128,6.861c-6.469,12.812-16.945,13.807-27.933,8.129c-2.383-1.234-4.493-5.525-4.458-8.379
	c0.075-5.936,1.784-11.518,7.891-14.941c6.155-3.454,12.105-6.21,19.96-2.968c-5.2-11.826-15.771-18.04-22.952-26.924
	c-6.58,2.337-13.017,4.305-19.168,6.941c-2.789,1.197-5.406,3.381-7.408,5.713c-3.675,4.273-12.572,5.944-16.461,1.925
	c-1.527-1.578-2.386-6.113-1.288-7.451c2.437-2.974,6.187-4.969,9.627-6.979c1.718-1.003,4.13-0.792,5.879-1.76
	c8.191-4.54,16.171-9.47,24.447-13.846c1.797-0.949,4.956-1.037,6.701-0.081c8.982,4.918,17.855,10.077,26.459,15.628
	c4.29,2.766,7.698,3.725,12.366,0.598c5.458-3.658,11.626-6.234,17.333-9.543c1.258-0.729,2.277-2.443,2.721-3.911
	c3.514-11.677,6.814-23.414,10.315-35.093c0.479-1.602,1.479-3.169,2.597-4.436c9.082-10.3,18.431-20.37,27.29-30.855
	c3.015-3.568,4.503-8.4,7.387-12.115c1.672-2.154,4.647-4.343,7.195-4.543c4.243-0.336,5.192,3.57,5.2,7.041
	c0.044,12.325-3.069,23.083-13.373,31.345c-5.403,4.332-10.278,9.947-13.659,15.957c-2.458,4.369-2.201,10.32-2.92,15.597
	c-0.928,6.825-1.747,13.669-2.352,20.529c-0.232,2.628,0.255,5.318-0.511,8.448c-0.854-2.104-1.705-4.211-2.728-6.735
	c-7.048-0.576-14.861-1.217-22.93-1.879c10.092,9.116,16.099,19.885,18.958,33.832c3.751-8.571,7.062-16.135,10.657-24.348
	c6.799,2.765,15.464,5.405,23.227,9.682c8.974,4.942,17.771,4.471,27,2.206c3.919-0.961,7.881-1.814,11.709-3.073
	c6.721-2.212,25.702,2.313,29.988,7.756c1.289,1.636,2.24,4.59,1.641,6.365c-0.573,1.703-3.203,3.071-5.213,3.831
	c-1.719,0.648-3.848,0.35-5.785,0.262c-16.627-0.756-32.161,5.231-48.27,7.665c-3.032,0.457-6.332,0.352-9.32-0.324
	c-11.541-2.607-23-5.59-34.52-8.318c-1.247-0.294-2.995-0.286-3.968,0.378c-5.604,3.812-10.766,8.353-16.624,11.675
	c-4.759,2.693-6.201,5.686-5.799,11.111c0.701,9.482,0.493,19.053,0.266,28.574c-0.043,1.819-1.502,4.295-3.06,5.268
	c-7.635,4.768-15.572,9.047-23.286,13.691c-1.907,1.147-3.24,3.213-5.076,4.512c-3.059,2.16-6.076,4.854-9.534,5.838
	c-4.222,1.192-7.496-2.869-6.681-7.225c1.028-5.519,5.453-9.025,10.646-10.904c4.46-1.615,8.394-4.83,12.348-7.639
	C386.409,396.494,389.408,393.708,393.483,390.337z M420.344,297.371c-1.033-0.153-2.068-0.308-3.102-0.46
	c5.608,0.512,11.332,0.512,16.798,1.689c4.797,1.041,5.499-0.403,6.171-4.842c1.711-11.308,0.121-23.84,10.557-32.414
	c1.822-1.495,3.109-3.646,4.687-5.546c-6.812-4.464-2.293-11.075-3.604-17.271c-8.988,10.037-17.598,19.636-26.168,29.269
	c-0.444,0.499-0.688,1.274-0.801,1.96C423.346,278.959,421.851,288.164,420.344,297.371z M444.068,343.616
	c0.36-1.199,0.719-2.404,1.079-3.603c8.861,3.498,17.723,7.004,26.599,10.465c0.636,0.25,1.436,0.357,2.095,0.221
	c12.496-2.594,24.981-5.235,37.952-7.968c-6.051-2.787-12.661-4.112-13.572-11.834c-1.74,0.424-3.456,1.223-5.15,1.184
	c-5.812-0.139-11.381,3.607-17.435,0.543c-5.968-3.02-12.255-5.421-18.396-8.099c-3.028-1.321-4.694-0.838-5.944,2.755
	C449.347,332.885,446.521,338.187,444.068,343.616z M321.865,318.759c3.729,3.078,6.688,5.586,11.314,3.447
	c4.804-2.217,9.717-4.281,14.753-5.864c1.657-0.517,4.412,0.041,5.705,1.188c5.892,5.237,11.44,10.858,17.422,16.638
	c1.459-7.744,9.24-7.633,13.443-12.293c-10.456-6.157-20.741-12.258-31.092-18.248c-1.084-0.627-2.914-1.247-3.787-0.766
	C340.424,307.96,331.346,313.284,321.865,318.759z M389.23,366.679c1.654,6.691,3.631,13.934,5.131,21.275
	c0.358,1.764-0.247,4.521-1.48,5.666c-3.867,3.594-8.313,6.551-12.408,9.911c-3.05,2.508-5.859,5.271-2.141,9.928
	c5.35-3.09,10.565-6.688,16.248-9.248c8.903-4.01,15.021-9.129,11.668-20.061c-0.141-0.455,0.264-1.047,0.252-1.572
	c-0.185-7.293-0.396-14.582-0.586-21.365C400.168,363.097,395.008,364.789,389.23,366.679z M407.629,332.967
	c-4.554-6.813-10.171-8.46-15.873-4.657c-5.561,3.708-7.751,11.86-4.545,16.9c2.957,4.643,11.947,6.627,16.521,3.645
	C408.964,345.438,410.844,337.777,407.629,332.967z"/>
</svg>
