<?xml version="1.0" encoding="utf-8"?>
<!-- Generator: Adobe Illustrator 16.0.4, SVG Export Plug-In . SVG Version: 6.00 Build 0)  -->
<!DOCTYPE svg PUBLIC "-//W3C//DTD SVG 1.1//EN" "http://www.w3.org/Graphics/SVG/1.1/DTD/svg11.dtd">
<svg version="1.1" id="Layer_1" xmlns="http://www.w3.org/2000/svg" xmlns:xlink="http://www.w3.org/1999/xlink" x="0px" y="0px"
	 width="384px" height="375px" viewBox="38 -19 384 375" enable-background="new 38 -19 384 375" xml:space="preserve">
<g id="Layer_1_1_">
	<g>
		<g>
			<path d="M184.939,82.518c-0.155-1.212-0.253-1.972-0.356-2.776c-7.616,1.788-15.138,3.553-22.657,5.319
				c-0.063,0.37-0.126,0.744-0.189,1.114c10.272,3.423,16.354,12.136,24.241,18.568c1.141,0.932,1.634,2.658,2.713,4.509
				c0.128-0.109,1.312-0.624,1.366-1.24c0.646-7.267,1.125-14.545,1.647-21.818c-3.77-0.405-5.384-2.129-4.266-4.955
				c1.131,1.02,2.157,1.928,3.166,2.854c1.832,1.688,3.814,2.118,6.406,1.892c3.628-0.32,7.338,0.197,11.009,0.419
				c5.027,0.301,10.054,0.912,15.079,0.903c3.116-0.006,6.22,1.719,9.504-0.831c3.136-2.434,7.148-3.74,10.753-5.585
				c3.718-1.9,7.886-3.297,11.005-5.928c4.01-3.383,8.677-2.692,13.062-3.854c6.964-1.849,13.326-0.155,19.665,2.204
				c2.558,0.948,2.937,7.497,0.44,8.59c-5.415,2.367-11.019,4.298-16.517,6.475c-1.179,0.469-2.24,1.222-3.374,1.812
				c-8.707,4.536-17.416,9.066-26.125,13.594c-2.013,1.049-4.307,1.761-6,3.188c-5.122,4.301-11.114,3.153-17.005,3.464
				c-7.094,0.375-14.167,2.137-21.22,1.979c-6.025-0.136-9.085,2.883-12.395,6.95c-4.492,5.525-9.477,10.657-13.949,15.625
				c1.509,5.378,2.81,10.453,4.376,15.438c0.755,2.398,2.144,4.59,3.01,6.956c1.916,5.259,3.766,10.544,5.431,15.888
				c0.284,0.902-0.147,2.443-0.813,3.168c-7.391,8.013-14.897,15.927-22.359,23.879c-0.327,0.349-0.669,0.847-0.69,1.292
				c-0.273,5.436-4.953,7.176-8.578,9.1c-1.98,1.047-5.586,0.075-7.933-1.062c-1.058-0.514-1.356-3.729-1.104-5.6
				c0.87-6.49,5.254-10.152,10.953-12.625c1.063-0.465,2.164-1.305,2.773-2.27c2.725-4.336,5.343-8.743,7.863-13.2
				c1.039-1.838,1.739-3.879,2.693-6.056c-7.018-9.484-10.616-21.923-22.072-28.964c0.385,1.834,0.918,3.496,1.052,5.189
				c0.31,3.943-1.817,7.114-4.021,9.977c-3.374,4.387-7.026,8.766-12.995,9.605c-2.39,0.341-5.236,0.595-7.236-0.398
				c-2.044-1.018-3.227-3.686-4.953-5.478c-0.687-0.71-1.816-1.002-2.43-1.317c-3.349-7.344-0.321-14.459,4.256-18.898
				c4.198-4.068,9.714-10.208,18.248-5.169c-2.493-3.611-3.752-6.542-5.949-8.314c-2.257-1.822-5.441-2.466-8.188-3.693
				c-5.939-2.642-11.855-5.319-17.959-8.064c-4.888,3.836-9.616,8.571-15.26,11.584c-3.196,1.708-3.747,3.38-4.316,6.311
				c-1.166,5.955-3.881,7.327-9.046,8.016c-1.099,0.146-2.163,0.577-3.211,0.957c-3.968,1.43-6.9,0.789-8.711-2.623
				c-1.388-2.615-0.473-5.325,1.571-7.442c3.019-3.134,5.282-7.457,10.809-6.767c0.629,0.079,1.482-1.275,2.159-2.023
				c6.239-6.907,12.736-13.605,18.564-20.84c2.698-3.348,5.602-2.838,8.707-2.296c7.676,1.344,15.309,2.899,22.936,4.479
				c2.811,0.584,5.727,1.116,8.282,2.334c2.06,0.982,2.689-0.149,3.665-1.233c4.608-5.112,8.654-10.939,13.98-15.141
				c4.911-3.872,4.498-8.265,4.303-13.217c-0.424-10.621-0.917-21.25-0.969-31.876c-0.013-2.471,1.44-5.04,2.548-7.408
				c2.123-4.521,4.674-8.845,6.694-13.407c2.559-5.776,3.993-12.208,7.387-17.395c2.316-3.541,0.96-6.852,2.021-10.045
				c1.105-3.313,2.856-6.403,4.081-9.681c1.269-3.404,4.014-4.429,6.742-3.162c1.886,0.878,3.427,3.369,4.249,5.48
				c1.325,3.392,2.579,7.044,2.681,10.624c0.143,5.051-0.412,10.209-1.436,15.164c-0.459,2.226-3.185,3.886-4.182,6.114
				c-3.074,6.884-6.174,13.8-8.488,20.957c-0.836,2.575,0.345,5.892,0.913,8.812c1.25,6.426,2.798,12.798,4.021,19.228
				c0.691,3.62,1.015,7.312,1.39,10.984C186.424,81.245,185.66,81.717,184.939,82.518z M176.699,7.641
				c-0.636,0.634-1.257,0.992-1.486,1.522c-4.154,9.557-8.295,19.119-12.361,28.709c-1.656,3.918-3.423,7.722-2.42,12.336
				c0.656,3.019,0.16,6.28,0.234,9.433c0.112,4.925,0.269,9.852,0.411,14.828c7.421-1.924,14.723-3.818,21.694-5.629
				c-0.411-2.995-0.728-5.856-1.204-8.693c-0.983-5.85-2.046-11.684-3.089-17.525c-0.132-0.764-0.711-1.661-0.471-2.25
				c2.221-5.576,4.575-11.1,7.055-17.029c-0.71-0.264-1.595-0.483-2.37-0.904c-1.02-0.554-2.563-1.081-2.819-1.938
				C178.658,16.449,177.807,12.293,176.699,7.641z M248.689,80.391c-4.757,2.864-8.817,5.565-13.125,7.791
				c-2.119,1.096-4.684,1.749-7.07,1.828c-3.286,0.105-6.592-0.575-9.899-0.817c-3.759-0.276-7.555-0.236-11.28-0.728
				c-2.708-0.362-4.129,0.717-4.414,3.423c-0.631,5.961-1.566,11.888-2.38,17.842c1.773,0.066,3.6,0.322,5.391,0.166
				c3.686-0.316,7.345-1.077,11.033-1.249c7.887-0.371,15.55-0.985,22.319-5.939c3.517-2.571,7.726-4.191,11.617-6.249
				c4.332-2.285,8.655-4.573,13.302-7.028C258.724,86.229,250.64,88.684,248.689,80.391z M155.823,146.959
				c1.351,2.74,2.426,5.297,3.825,7.663c2.169,3.653,4.689,7.096,6.811,10.776c1.081,1.881,2.776,4.557,2.165,6.043
				c-1.644,3.997-4.119,7.747-6.737,11.235c-4.966,6.613-5.439,10.25-1.209,16.266c6.931-7.693,13.874-15.296,20.624-23.062
				c0.72-0.832,0.708-2.756,0.353-3.975c-1.177-4.003-2.693-7.908-4.018-11.875c-0.828-2.462-1.476-4.991-2.324-7.449
				c-1.814-5.269-3.705-10.512-5.567-15.763C164.978,139.702,163.357,146.947,155.823,146.959z M137.544,107.641
				c-12.573-2.629-24.713-5.175-36.696-7.684c-7.334,8.146-14.62,16.238-21.928,24.354c2.925,2.496,6.134,1.625,8.514,0.233
				c3.85-2.25,7.124-5.463,10.73-8.15c1.99-1.485,4.394-4.099,6.201-3.796c4.119,0.703,8.041,2.773,11.941,4.514
				c4.065,1.813,8.021,3.89,13.047,6.357C127.993,115.383,134.664,112.62,137.544,107.641z"/>
		</g>
	</g>
</g>
<g id="Layer_2">
	<g>
		<g>
			<path d="M249.212,239.808c-5.277,10.77-10.671,21.779-16.069,32.793c0.656,0.557,1.313,1.107,1.975,1.661
				c1.845-1.415,3.488-3.42,5.574-4.149c13.556-4.729,21.78,1.834,25.74,13.555c0.853,2.537-0.607,7.094-2.615,9.12
				c-4.174,4.217-9.283,7.049-16.052,5.269c-6.832-1.793-13.024-3.939-16.422-11.729c-4.476,12.118-1.185,23.932-2.193,35.308
				c6.356,2.895,12.357,5.947,18.611,8.326c2.84,1.072,6.239,1.318,9.296,1.033c5.611-0.518,13.174,4.458,13.182,10.053
				c0,2.193-2.535,6.051-4.251,6.252c-3.821,0.445-7.905-0.723-11.773-1.668c-1.931-0.472-3.521-2.297-5.45-2.815
				c-9.048-2.427-18.211-4.423-27.206-7.022c-1.952-0.566-4.285-2.698-4.875-4.6c-3.047-9.779-5.847-19.65-8.179-29.619
				c-1.162-4.97-2.954-8.031-8.481-9.02c-6.468-1.164-12.696-3.594-19.1-5.18c-1.407-0.346-3.333,0.176-4.672,0.927
				c-10.637,5.956-21.166,12.107-31.8,18.076c-1.456,0.818-3.261,1.251-4.945,1.388c-13.693,1.098-27.409,1.851-41.065,3.236
				c-4.65,0.474-9.076,2.918-13.732,3.585c-2.695,0.388-6.354-0.104-8.33-1.729c-3.286-2.709-1.254-6.176,1.151-8.68
				c8.531-8.893,18.245-14.473,31.396-13.257c6.895,0.636,14.303-0.015,20.909-1.988c4.802-1.438,8.751-5.896,12.935-9.196
				c5.409-4.26,10.754-8.613,15.951-13.131c1.993-1.725,3.511-4.003,6.234-5.72c-0.843,2.104-1.696,4.213-2.714,6.735
				c4.669,5.314,9.848,11.202,15.188,17.28c-0.927-13.565,2.231-25.486,9.864-37.505c-8.65,3.561-16.289,6.7-24.577,10.11
				c-2.97-6.712-7.37-14.63-9.982-23.096c-3.02-9.788-9.674-15.559-17.888-20.341c-3.489-2.033-6.93-4.168-10.557-5.926
				c-6.371-3.077-16.886-19.518-16.187-26.408c0.21-2.074,1.575-4.856,3.24-5.72c1.596-0.824,4.44,0.014,6.413,0.865
				c1.687,0.727,3.011,2.42,4.345,3.83c11.436,12.097,26.771,18.58,40.044,28.019c2.5,1.779,4.801,4.146,6.481,6.707
				c6.489,9.895,12.662,20.001,19.053,29.961c0.694,1.081,1.955,2.289,3.114,2.485c6.681,1.155,13.548,1.466,20.07,3.152
				c5.293,1.364,8.409,0.216,11.889-3.965c6.082-7.313,12.881-14.052,19.657-20.743c1.296-1.279,4.064-2.047,5.858-1.661
				c8.809,1.871,17.491,4.31,26.268,6.324c2.169,0.5,4.559-0.062,6.786,0.28c3.698,0.572,7.739,0.73,10.908,2.427
				c3.871,2.072,3.399,7.271-0.213,9.837c-4.569,3.254-10.188,2.705-15.232,0.449c-4.331-1.936-9.394-2.357-14.186-3.083
				C258.578,240.292,254.485,240.212,249.212,239.808z M165.309,288.022c0.641,0.827,1.28,1.658,1.917,2.487
				c-3.682-4.271-7.802-8.24-10.909-12.889c-2.731-4.077-4.238-3.528-7.806-0.802c-9.086,6.946-16.648,17.064-30.114,15.98
				c-2.347-0.188-4.767,0.462-7.218,0.737c1.8,7.941-6.047,9.56-9.41,14.929c13.439-0.979,26.304-1.902,39.157-2.88
				c0.666-0.05,1.38-0.437,1.938-0.854C150.364,299.182,157.835,293.597,165.309,288.022z M180.371,238.275
				c-1.094,0.614-2.185,1.228-3.276,1.842c-3.948-8.672-7.887-17.349-11.865-26.005c-0.286-0.621-0.785-1.254-1.356-1.617
				c-10.79-6.809-21.607-13.584-32.838-20.629c2.42,6.208,6.255,11.757,1.547,17.94c1.547,0.904,3.335,1.521,4.527,2.729
				c4.085,4.134,10.692,5.308,12.917,11.722c2.195,6.317,5.048,12.41,7.609,18.602c1.26,3.056,2.794,3.865,6.188,2.149
				C169.12,242.329,174.834,240.478,180.371,238.275z M251.008,341.046c-0.543-4.808-0.934-8.665-5.744-10.344
				c-4.996-1.739-9.963-3.667-14.683-6.028c-1.554-0.778-3.149-3.093-3.279-4.815c-0.602-7.86-0.688-15.761-0.976-24.074
				c-6.43,4.561-11.952-0.924-18.212-0.494c3.248,11.694,6.406,23.227,9.689,34.723c0.344,1.207,1.228,2.925,2.194,3.182
				C230.157,335.919,240.387,338.395,251.008,341.046z M235.838,259.778c3.457-5.961,7.067-12.545,11.088-18.865
				c0.965-1.519,3.32-3.083,4.999-3.049c5.279,0.103,10.534,1.064,15.811,1.488c3.938,0.319,7.88,0.277,8.437-5.651
				c-5.996-1.497-12.246-2.53-18.11-4.634c-9.191-3.301-17.149-3.87-22.331,6.324c-0.214,0.428-0.918,0.569-1.273,0.959
				c-4.931,5.371-9.844,10.76-14.422,15.771C225.482,254.76,230.366,257.126,235.838,259.778z M199.186,271.253
				c-1.459,8.059,1.436,13.146,8.18,14.374c6.577,1.191,13.818-3.146,15.012-9.004c1.099-5.39-3.992-13.063-9.349-14.094
				C212.434,262.416,200.97,261.37,199.186,271.253z"/>
		</g>
	</g>
</g>
<path d="M263.009,136.015c11.933-1.231,24.13-2.491,36.329-3.75c0.121-0.85,0.242-1.702,0.361-2.552
	c-2.176-0.817-4.749-1.147-6.476-2.532c-11.187-8.99-9.978-19.445-2.143-29.008c1.704-2.075,6.336-3.247,9.122-2.618
	c5.791,1.303,10.894,4.14,12.973,10.82c2.099,6.743,3.559,13.133-1.247,20.143c12.649-2.627,20.926-11.678,31.108-16.851
	c-0.916-6.925-1.504-13.63-2.806-20.193c-0.591-2.979-2.185-5.99-4.046-8.435c-3.416-4.483-3.203-13.532,1.54-16.503
	c1.86-1.164,6.471-1.059,7.554,0.29c2.402,3.003,3.576,7.085,4.825,10.869c0.626,1.884-0.085,4.202,0.499,6.117
	c2.737,8.954,5.901,17.786,8.463,26.79c0.555,1.955-0.018,5.065-1.314,6.572c-6.68,7.765-13.568,15.372-20.789,22.633
	c-3.597,3.618-5.242,6.757-3.153,11.973c2.443,6.101,3.681,12.67,5.729,18.938c0.451,1.383,1.92,2.734,3.262,3.476
	c10.691,5.862,21.482,11.532,32.181,17.386c1.465,0.801,2.791,2.104,3.797,3.463c8.188,11.024,16.095,22.261,24.505,33.108
	c2.865,3.69,7.285,6.149,10.316,9.743c1.76,2.082,3.281,5.447,2.948,7.983c-0.554,4.222-4.57,4.335-7.968,3.622
	c-12.064-2.522-21.939-7.803-27.881-19.602c-3.113-6.186-7.593-12.121-12.769-16.679c-3.761-3.312-9.636-4.298-14.649-6.097
	c-6.48-2.328-13.006-4.551-19.589-6.568c-2.525-0.776-5.258-0.855-8.16-2.256c2.237-0.398,4.475-0.792,7.155-1.266
	c2.027-6.775,4.279-14.287,6.603-22.039c-11.011,7.975-22.794,11.613-37.03,11.51c7.604,5.449,14.314,10.262,21.603,15.484
	c-4.121,6.076-8.505,14.001-14.3,20.706c-6.701,7.748-8.07,16.449-7.771,25.949c0.126,4.033,0.137,8.083,0.575,12.091
	c0.762,7.034-7.608,24.66-13.824,27.721c-1.867,0.922-4.956,1.237-6.565,0.283c-1.547-0.918-2.342-3.771-2.665-5.896
	c-0.276-1.816,0.457-3.836,0.944-5.717c4.199-16.106,1.573-32.549,2.543-48.808c0.181-3.058,0.968-6.264,2.251-9.048
	c4.951-10.746,10.253-21.338,15.314-32.034c0.55-1.163,0.901-2.87,0.455-3.962c-2.563-6.272-5.933-12.263-7.961-18.685
	c-1.647-5.215-4.273-7.25-9.663-7.984c-9.425-1.283-18.739-3.476-28.006-5.679c-1.773-0.422-3.893-2.362-4.517-4.088
	c-3.076-8.461-5.612-17.114-8.553-25.627c-0.727-2.104-2.468-3.833-3.358-5.902c-1.477-3.44-3.484-6.952-3.727-10.537
	c-0.29-4.378,4.366-6.737,8.456-5.036c5.186,2.154,7.694,7.211,8.454,12.682c0.651,4.699,2.98,9.216,4.901,13.665
	C258.459,127.813,260.558,131.329,263.009,136.015z M348.361,181.617c0.363-0.979,0.729-1.961,1.092-2.941
	c-1.667,5.382-2.854,10.981-5.145,16.082c-2.014,4.476-0.746,5.46,3.453,7.042c10.706,4.025,23.295,5.075,29.513,17.07
	c1.083,2.088,2.92,3.797,4.45,5.731c5.781-5.734,11.311,0.062,17.643,0.069c-7.949-10.879-15.549-21.299-23.188-31.682
	c-0.395-0.539-1.104-0.938-1.75-1.191C365.747,188.38,357.05,185.003,348.361,181.617z M298.19,195.207
	c1.1,0.603,2.203,1.2,3.3,1.804c-5.262,7.941-10.535,15.88-15.764,23.842c-0.372,0.569-0.645,1.328-0.65,2.002
	c-0.058,12.763-0.072,25.527-0.093,38.78c3.981-5.341,6.653-11.532,14.394-10.814c-0.052-1.794-0.477-3.637-0.084-5.285
	c1.342-5.656-1.164-11.884,3.093-17.167c4.196-5.209,7.85-10.857,11.746-16.312c1.919-2.687,1.796-4.417-1.457-6.385
	C307.59,202.601,302.994,198.735,298.19,195.207z M347.914,80.844c-3.785,3.008-6.856,5.381-5.728,10.352
	c1.172,5.159,2.169,10.391,2.668,15.647c0.164,1.728-0.954,4.309-2.349,5.334c-6.346,4.673-13.001,8.934-19.893,13.581
	c7.272,3.039,5.544,10.625,9.228,15.708c8.196-8.951,16.302-17.74,24.312-26.62c0.842-0.93,1.828-2.59,1.536-3.544
	C354.616,101.242,351.297,91.255,347.914,80.844z M287.032,136.773c-6.886,0.229-14.38,0.656-21.872,0.595
	c-1.802-0.014-4.376-1.184-5.238-2.625c-2.709-4.531-4.677-9.497-7.113-14.197c-1.818-3.506-3.939-6.831-9.261-4.159
	c1.908,5.877,4.342,11.724,5.668,17.814c2.07,9.542,5.807,16.592,17.194,15.583c0.476-0.044,0.971,0.479,1.486,0.576
	c7.168,1.334,14.342,2.643,21.016,3.869C288.265,148.215,287.685,142.818,287.032,136.773z M316.185,161.777
	c7.612-3.034,10.392-8.186,7.855-14.556c-2.471-6.21-9.989-10.051-15.585-7.958c-5.157,1.926-8.968,10.307-7.001,15.396
	C303.711,160.49,310.811,163.924,316.185,161.777z"/>
</svg>
