<?xml version="1.0" encoding="utf-8"?>
<!-- Generator: Adobe Illustrator 16.0.4, SVG Export Plug-In . SVG Version: 6.00 Build 0)  -->
<!DOCTYPE svg PUBLIC "-//W3C//DTD SVG 1.1//EN" "http://www.w3.org/Graphics/SVG/1.1/DTD/svg11.dtd">
<svg version="1.1" id="Layer_1" xmlns="http://www.w3.org/2000/svg" xmlns:xlink="http://www.w3.org/1999/xlink" x="0px" y="0px"
	 width="381px" height="275px" viewBox="-53 52.5 381 275" enable-background="new -53 52.5 381 275" xml:space="preserve">
<g id="Layer_1_1_">
	<g>
		<g>
			<path fill="#FFFFFF" d="M210.225,313.187c-49.684,0-99.362,0-149.117,0c0-70.267,0-140.564,0-210.998
				c49.656,0,99.388,0,149.117,0C210.225,172.452,210.225,242.802,210.225,313.187z M140.062,234.862
				c0,1.075-0.252,1.938,0.039,2.201c2.73,2.481,5.445,5.008,8.381,7.235c5.215,3.96,10.627,7.657,15.855,11.597
				c2.375,1.788,5.475,3.465,6.574,5.938c3.064,6.867,5.395,14.082,7.713,21.255c0.752,2.323-0.162,5.38,0.984,7.341
				c2.555,4.367,5.594,8.573,9.08,12.23c2.469,2.59,5.846,4.467,9.1,6.101c2.023,1.019,4.836,1.84,6.824,1.228
				c2.873-0.885,4.23-3.48,2.896-6.859c-1.285-3.256-2.055-6.725-3.447-9.924c-1.346-3.084-4.568-4.64-5.217-8.818
				c-0.949-6.125-4.188-11.867-6.152-17.87c-1.551-4.741-2.549-9.663-3.998-14.442c-0.76-2.502-1.396-5.383-3.061-7.211
				c-7.148-7.863-14.627-15.43-22.051-23.043c-3.459-3.549-6.703-6.533-5.646-12.701c1.146-6.687,0.254-13.723,0.258-20.604
				c0-1.459-0.287-2.721,1.9-3.369c2.711-0.805,5.232-2.357,7.715-3.807c6.725-3.93,13.438-7.881,20.041-12.018
				c2.672-1.676,5.17-3.238,4.934-7.533c-0.514-9.277-0.164-18.604-0.146-27.908c0.002-1.012-0.271-2.588,0.25-2.949
				c4.564-3.184,3.354-7.912,3.504-12.26c0.102-2.944-1.031-5.568-3.812-6.583c-3.631-1.325-6.232,0.161-8.229,3.88
				c-0.527,0.98-1.029,2.018-1.746,2.859c-3.377,3.967-4.479,6.804-1.359,12.01c1.537,2.562,2.246,4.17,1.016,7.578
				c-2.18,6.019-2.523,12.697-3.59,18.818c-6.373,2.045-12.561,4.018-18.738,6.024c-2.861,0.932-5.662,2.579-8.559,2.735
				c-2.816,0.15-5.719-1.186-9.986-2.198c9.715-1.966,9.701-10.221,10.102-16.052c0.432-6.359-2.08-13.678-9.482-16.891
				c-0.664,0.174-1.697,0.713-2.688,0.646c-2.478-0.178-5.144-1.37-7.342-0.759c-2.149,0.602-4.097,2.696-5.646,4.546
				c-3.873,4.617-3.656,10.318-3.229,15.834c0.276,3.604,0.819,7.386,3.688,10.104c1.231,1.169,2.739,2.048,4.252,3.153
				c-13.227,2.434-24.222-4.398-35.783-6.754c-0.747-2.256-1.592-4.237-2.051-6.307c-1.11-4.998-2.113-10.022-2.988-15.066
				c-0.194-1.125,0.062-2.488,0.543-3.543c2.58-5.652,3.388-11.309-0.309-16.711c-1.064-1.561-3.438-3.75-4.566-3.424
				c-2.508,0.725-5.836,2.41-6.607,4.519c-1.406,3.851-3.719,8.28-0.287,12.501c0.28,0.346,0.359,0.945,0.351,1.423
				c-0.222,10.902-0.507,21.805-0.638,32.706c-0.012,0.985,0.7,2.418,1.517,2.9c4.812,2.854,9.724,5.547,14.666,8.172
				c2.228,1.183,4.726,1.879,6.889,3.156c4.503,2.656,8.865,5.557,13.584,8.545c0,6.686-0.27,13.832,0.089,20.945
				c0.264,5.234,0.012,9.525-4.56,13.458c-5.349,4.604-9.427,10.646-14.446,15.67c-4.168,4.172-9.392,7.33-10.318,13.953
				c-0.307,2.193-1.531,4.258-2.326,6.385c-3.443,9.192-6.885,18.386-10.32,27.582c-0.445,1.195-0.73,2.469-1.294,3.604
				c-2.632,5.297-5.5,10.482-7.94,15.865c-1.125,2.48,3.539,7.094,6.074,6.089c6.289-2.488,12.148-5.488,16.088-11.521
				c2.48-3.797,6.412-6.403,7.131-11.603c0.557-4.041,2.717-7.866,4.209-11.771c1.445-3.783,3.553-7.435,4.254-11.342
				c0.734-4.095,4.194-4.888,6.508-6.979c3.728-3.369,7.871-6.278,11.81-9.418c2.876-2.292,5.979-4.389,8.462-7.055
				c1.774-1.903,3.535-2.91,6.026-2.881c1.368,0.014,2.737,0.002,4.262,0.002c-1.062-2.846-3.41-3.048-6.484-0.828
				c-4.478-5.752-8.992-11.482-13.375-17.315c-0.371-0.494,0.162-1.669,0.186-1.836c2.042,0.655,3.562,1.608,5.032,1.537
				c10.164-0.497,20.516,1.907,30.438-2.423c0.201,0.316,0.404,0.637,0.605,0.955c-4.408,6.346-8.816,12.689-13.279,19.113
				C141.57,236.157,140.988,235.657,140.062,234.862z"/>
			<path d="M140.062,234.862c0.926,0.795,1.508,1.295,2.123,1.823c4.463-6.423,8.871-12.769,13.277-19.112
				c-0.199-0.317-0.402-0.638-0.604-0.957c-9.924,4.332-20.273,1.927-30.439,2.424c-1.471,0.072-2.992-0.883-5.033-1.536
				c-0.022,0.167-0.557,1.342-0.186,1.836c4.383,5.833,8.898,11.563,13.375,17.315c3.074-2.22,5.426-2.018,6.486,0.828
				c-1.523,0-2.894,0.012-4.263-0.002c-2.491-0.029-4.252,0.978-6.026,2.881c-2.483,2.666-5.586,4.763-8.462,7.055
				c-3.938,3.14-8.082,6.049-11.811,9.418c-2.312,2.091-5.771,2.884-6.507,6.978c-0.702,3.908-2.809,7.56-4.254,11.343
				c-1.491,3.903-3.653,7.729-4.21,11.771c-0.718,5.198-4.648,7.806-7.13,11.603c-3.938,6.032-9.799,9.032-16.088,11.521
				c-2.535,1.005-7.199-3.606-6.074-6.089c2.44-5.383,5.31-10.568,7.94-15.865c0.562-1.135,0.848-2.407,1.294-3.604
				c3.436-9.196,6.877-18.39,10.319-27.582c0.795-2.127,2.021-4.19,2.327-6.385c0.927-6.623,6.15-9.781,10.318-13.953
				c5.021-5.024,9.099-11.067,14.446-15.668c4.569-3.933,4.822-8.224,4.559-13.46c-0.357-7.113-0.088-14.261-0.088-20.945
				c-4.719-2.987-9.081-5.889-13.584-8.545c-2.163-1.276-4.661-1.976-6.889-3.155c-4.942-2.625-9.854-5.316-14.666-8.173
				c-0.815-0.481-1.527-1.914-1.517-2.899c0.132-10.9,0.416-21.804,0.638-32.706c0.01-0.479-0.069-1.078-0.351-1.423
				c-3.433-4.222-1.12-8.648,0.287-12.501c0.771-2.104,4.101-3.794,6.606-4.52c1.129-0.325,3.502,1.864,4.566,3.424
				c3.696,5.404,2.889,11.06,0.309,16.711c-0.48,1.056-0.736,2.418-0.543,3.543c0.875,5.045,1.879,10.07,2.988,15.07
				c0.459,2.063,1.305,4.047,2.051,6.303c11.562,2.354,22.559,9.188,35.783,6.755c-1.512-1.105-3.02-1.984-4.252-3.153
				c-2.87-2.722-3.412-6.503-3.689-10.104c-0.426-5.517-0.643-11.215,3.23-15.834c1.549-1.851,3.494-3.945,5.645-4.545
				c2.199-0.613,4.863,0.579,7.345,0.756c0.986,0.068,2.021-0.472,2.688-0.646c7.402,3.214,9.914,10.528,9.482,16.89
				c-0.398,5.834-0.387,14.088-10.102,16.053c4.27,1.016,7.166,2.352,9.986,2.199c2.896-0.158,5.693-1.808,8.555-2.736
				c6.182-2.01,12.369-3.979,18.742-6.024c1.064-6.12,1.41-12.803,3.588-18.819c1.232-3.407,0.523-5.018-1.014-7.578
				c-3.119-5.205-2.018-8.041,1.359-12.01c0.717-0.843,1.219-1.875,1.746-2.858c1.99-3.719,4.598-5.205,8.229-3.88
				c2.781,1.015,3.914,3.639,3.812,6.582c-0.146,4.349,1.062,9.076-3.506,12.261c-0.52,0.362-0.248,1.938-0.25,2.948
				c-0.016,9.308-0.361,18.632,0.148,27.908c0.236,4.295-2.262,5.858-4.934,7.534c-6.604,4.136-13.316,8.087-20.041,12.018
				c-2.48,1.446-5.004,3.002-7.717,3.807c-2.188,0.647-1.898,1.91-1.898,3.369c-0.004,6.883,0.889,13.919-0.258,20.606
				c-1.061,6.165,2.188,9.151,5.646,12.7c7.422,7.612,14.9,15.18,22.049,23.043c1.662,1.828,2.303,4.707,3.062,7.209
				c1.449,4.781,2.447,9.701,3.998,14.443c1.965,6.004,5.203,11.745,6.15,17.87c0.648,4.181,3.871,5.733,5.219,8.817
				c1.396,3.201,2.162,6.669,3.445,9.925c1.336,3.379-0.02,5.976-2.895,6.86c-1.988,0.611-4.801-0.211-6.824-1.229
				c-3.254-1.634-6.631-3.511-9.1-6.102c-3.486-3.656-6.525-7.862-9.08-12.229c-1.148-1.961-0.234-5.019-0.984-7.341
				c-2.322-7.173-4.646-14.387-7.715-21.255c-1.102-2.472-4.199-4.147-6.574-5.937c-5.229-3.939-10.643-7.638-15.854-11.598
				c-2.936-2.229-5.648-4.754-8.383-7.234C139.811,236.8,140.062,235.938,140.062,234.862z M196.287,284.991
				c0.049-0.896,0.271-1.578,0.088-2.125c-3.309-9.881-6.629-19.758-10.025-29.606c-1.391-4.021-2.623-8.03-6.457-10.787
				c-2.506-1.803-4.32-4.56-6.484-6.853c-3.381-3.586-6.793-7.141-10.229-10.744c-4.227,6.396-8.385,12.689-12.354,18.699
				c2.309,1.951,4.459,3.867,6.711,5.656c4.646,3.688,9.34,7.314,14.023,10.956c0.609,0.478,1.639,0.759,1.855,1.356
				c2.08,5.631,4.027,11.31,6.152,17.377c0.703-0.279,1.508-0.708,2.365-0.915c1.129-0.271,2.629-0.911,3.393-0.446
				C188.938,279.757,192.352,282.276,196.287,284.991z M94.109,279.099c1.62-5.312,2.83-10.037,4.541-14.572
				c0.842-2.234,2.31-4.434,4.032-6.089c2.371-2.278,5.283-3.985,7.904-6.017c2.979-2.309,5.771-4.879,8.869-7.006
				c2.256-1.545,2.588-3.297,0.991-5.498c-3.521-4.852-6.792-9.885-10.171-14.852c-1.363,1.137-2.891,2.17-4.117,3.483
				c-2.527,2.702-4.738,5.715-7.363,8.312c-5.614,5.553-10.899,11.137-12.614,19.348c-0.892,4.263-2.936,8.283-4.453,12.416
				c-1.688,4.596-3.371,9.191-5.181,14.123C82.746,281.473,87.111,274.241,94.109,279.099z M118.58,167.489
				c-2.838-1.131-5.348-2.313-7.971-3.135c-4.056-1.264-8.233-2.135-12.271-3.451c-2.062-0.674-5.114-1.529-5.653-3.041
				c-1.453-4.072-2.122-8.515-2.511-12.858c-0.735-8.239-2.817-11.257-9.987-12.896c0,10.354-0.074,20.648,0.106,30.938
				c0.021,1.098,1.318,2.521,2.398,3.186c3.553,2.191,7.293,4.077,10.93,6.137c2.264,1.278,4.438,2.724,6.713,3.981
				c4.873,2.702,9.787,5.333,14.683,7.991C116.633,179.008,112.988,172.54,118.58,167.489z M158.473,184.476
				c11.104-6.459,21.828-12.688,32.412-18.844c0-10.961,0-21.848,0-32.771c-3.844,0.102-5.646,2.896-6.484,5.524
				c-1.355,4.248-1.639,8.826-2.521,13.237c-0.484,2.434-0.521,5.986-2.068,6.97c-3.531,2.233-7.83,3.319-11.895,4.637
				c-4.234,1.373-8.562,2.474-13.947,4.003C160.389,172.333,157.281,178.851,158.473,184.476z"/>
			<path fill="#FFFFFF" d="M196.287,284.991c-3.936-2.715-7.35-5.234-10.959-7.432c-0.766-0.465-2.266,0.176-3.393,0.446
				c-0.859,0.207-1.664,0.636-2.365,0.915c-2.125-6.067-4.072-11.746-6.152-17.377c-0.221-0.6-1.244-0.879-1.857-1.356
				c-4.686-3.642-9.379-7.268-14.023-10.957c-2.252-1.788-4.4-3.704-6.711-5.655c3.973-6.01,8.129-12.305,12.355-18.699
				c3.434,3.604,6.848,7.158,10.229,10.744c2.162,2.293,3.979,5.05,6.484,6.853c3.832,2.757,5.066,6.769,6.457,10.787
				c3.395,9.851,6.719,19.726,10.023,29.606C196.559,283.413,196.336,284.097,196.287,284.991z"/>
			<path fill="#FFFFFF" d="M94.109,279.099c-6.998-4.855-11.363,2.374-17.562,3.648c1.81-4.932,3.492-9.527,5.181-14.123
				c1.519-4.133,3.562-8.153,4.453-12.416c1.715-8.211,7-13.795,12.614-19.348c2.625-2.597,4.836-5.608,7.363-8.312
				c1.229-1.313,2.754-2.347,4.117-3.483c3.379,4.967,6.65,10,10.171,14.852c1.599,2.201,1.267,3.953-0.991,5.498
				c-3.1,2.127-5.891,4.697-8.869,7.006c-2.621,2.031-5.533,3.736-7.904,6.017c-1.723,1.655-3.19,3.854-4.032,6.089
				C96.939,269.062,95.729,273.786,94.109,279.099z"/>
			<path fill="#FFFFFF" d="M118.58,167.489c-5.592,5.053-1.944,11.521-3.562,16.851c-4.895-2.658-9.809-5.289-14.684-7.991
				c-2.273-1.261-4.447-2.703-6.712-3.98c-3.637-2.061-7.377-3.943-10.93-6.138c-1.08-0.665-2.379-2.088-2.397-3.186
				c-0.183-10.289-0.107-20.583-0.107-30.938c7.17,1.643,9.252,4.657,9.986,12.896c0.39,4.347,1.059,8.787,2.512,12.857
				c0.539,1.514,3.591,2.368,5.654,3.041c4.035,1.317,8.215,2.188,12.27,3.452C113.232,165.173,115.742,166.358,118.58,167.489z"/>
			<path fill="#FFFFFF" d="M158.473,184.476c-1.191-5.625,1.916-12.143-4.506-17.242c5.389-1.529,9.715-2.629,13.947-4.002
				c4.062-1.314,8.361-2.4,11.896-4.637c1.549-0.98,1.584-4.536,2.068-6.971c0.883-4.41,1.166-8.988,2.521-13.236
				c0.838-2.631,2.645-5.426,6.484-5.525c0,10.924,0,21.812,0,32.771C180.301,171.784,169.58,178.017,158.473,184.476z"/>
		</g>
	</g>
</g>
<g id="Layer_2">
	<g>
		<g>
			<path d="M73.874,223.178c-11.729-2.517-23.719-5.088-35.709-7.66c-0.379,0.772-0.757,1.544-1.135,2.315
				c1.821,1.451,4.165,2.56,5.377,4.408c7.865,12.008,3.486,21.578-6.925,28.252c-2.259,1.447-7.03,1.129-9.483-0.328
				c-5.104-3.03-9.084-7.303-8.996-14.301c0.088-7.062,0.674-13.59,7.41-18.771c-12.842-1.411-23.509,4.639-34.791,6.414
				c-1.269,6.867-2.781,13.426-3.574,20.07c-0.358,3.017,0.227,6.373,1.244,9.273c1.862,5.318-1.139,13.859-6.565,15.219
				c-2.129,0.532-6.485-0.994-7.097-2.611c-1.355-3.598-1.209-7.844-1.229-11.827c-0.01-1.987,1.38-3.972,1.416-5.972
				c0.164-9.362-0.116-18.738,0.231-28.094c0.076-2.031,1.582-4.812,3.281-5.845c8.752-5.319,17.655-10.426,26.764-15.101
				c4.541-2.33,7.076-4.807,6.701-10.411c-0.438-6.558,0.414-13.188,0.402-19.783c-0.003-1.453-0.977-3.193-2.027-4.312
				c-8.354-8.881-16.869-17.606-25.233-26.479c-1.147-1.216-2.005-2.865-2.543-4.466c-4.379-13.018-8.427-26.147-13.076-39.062
				c-1.583-4.395-5.026-8.1-6.799-12.454c-1.03-2.524-1.435-6.194-0.337-8.503c1.832-3.845,5.688-2.712,8.699-0.983
				c10.693,6.126,18.455,14.2,20.459,27.257c1.049,6.844,3.474,13.875,6.988,19.807c2.555,4.312,7.836,7.067,12.049,10.327
				c5.445,4.216,10.963,8.347,16.601,12.3c2.159,1.518,4.735,2.438,7.063,4.667c-2.25-0.312-4.5-0.63-7.195-1.007
				c-4.025,5.816-8.487,12.264-13.092,18.919c12.938-4.181,25.268-4,38.775,0.497c-5.545-7.533-10.441-14.184-15.756-21.402
				c5.795-4.506,12.413-10.688,19.997-15.273c8.766-5.299,12.756-13.151,15.409-22.277c1.128-3.876,2.369-7.731,3.193-11.678
				c1.447-6.926,14.857-21.104,21.711-22.093c2.062-0.298,5.094,0.354,6.332,1.761c1.189,1.35,1.06,4.31,0.713,6.431
				c-0.297,1.813-1.621,3.507-2.666,5.144c-8.969,14.021-11.553,30.469-17.498,45.634c-1.121,2.854-2.86,5.659-4.938,7.91
				c-8.031,8.689-16.344,17.124-24.463,25.733c-0.881,0.936-1.746,2.45-1.658,3.626c0.498,6.76,1.853,13.497,1.797,20.233
				c-0.045,5.468,1.824,8.214,6.724,10.577c8.565,4.133,16.748,9.098,24.881,14.058c1.553,0.946,2.969,3.448,3.031,5.282
				c0.312,8.996,0.049,18.011,0.215,27.015c0.041,2.226,1.162,4.41,1.369,6.652c0.342,3.727,1.166,7.688,0.287,11.174
				c-1.074,4.254-6.232,5.057-9.597,2.174c-4.264-3.65-5.088-9.235-4.121-14.672c0.832-4.671,0.015-9.686-0.44-14.513
				C75.667,232.384,74.754,228.391,73.874,223.178z M6.792,153.432c-0.648,0.819-1.3,1.639-1.949,2.458
				c3.25-4.603,6.108-9.56,9.863-13.702c3.297-3.636,2.4-4.965-1.109-7.766c-8.938-7.137-20.586-12.025-22.791-25.353
				c-0.385-2.323-1.604-4.514-2.461-6.828c-7.271,3.668-10.738-3.553-16.76-5.518c4.199,12.804,8.207,25.061,12.265,37.296
				c0.21,0.636,0.761,1.233,1.297,1.675C-7.653,141.627-0.427,147.525,6.792,153.432z M58.704,156.01
				c-0.859-0.912-1.721-1.823-2.58-2.735c7.459-5.928,14.926-11.847,22.363-17.804c0.531-0.426,1.025-1.064,1.238-1.703
				c4-12.119,7.957-24.254,12.074-36.853c-5.438,3.849-9.894,8.911-17.033,5.838c-0.504,1.72-0.67,3.604-1.551,5.052
				c-3.025,4.965-2.566,11.661-8.248,15.371c-5.601,3.658-10.82,7.901-16.211,11.883c-2.658,1.963-3.074,3.646-0.588,6.524
				C52.049,146.073,55.228,151.17,58.704,156.01z M-23.925,249.411c4.53-1.69,8.182-3,8.645-8.075
				c0.479-5.269,1.149-10.554,2.299-15.707c0.378-1.694,2.24-3.802,3.881-4.347c7.48-2.483,15.124-4.479,23.119-6.769
				c-5.977-5.137-1.993-11.82-3.924-17.79c-10.562,5.979-20.987,11.833-31.35,17.803c-1.085,0.625-2.537,1.898-2.555,2.896
				C-23.996,227.939-23.925,238.463-23.925,249.411z M51.258,215.032c6.621,1.912,13.881,3.821,20.985,6.193
				c1.709,0.57,3.798,2.477,4.171,4.116c1.178,5.146,1.514,10.476,2.379,15.7c0.646,3.896,1.635,7.713,7.526,6.816
				c0-6.178-0.508-12.492,0.115-18.693c0.977-9.715-0.396-17.574-11.539-20.135c-0.465-0.105-0.777-0.754-1.238-1.006
				c-6.405-3.484-12.823-6.946-18.793-10.175C53.624,203.77,52.508,209.081,51.258,215.032z M31.26,182.243
				c-8.176,0.535-12.411,4.576-11.969,11.417c0.433,6.67,6.396,12.644,12.364,12.385c5.499-0.238,11.712-7.033,11.416-12.481
				C42.729,187.322,37.034,181.863,31.26,182.243z"/>
		</g>
	</g>
</g>
<path d="M286.982,223.178c-11.73-2.517-23.719-5.088-35.711-7.66c-0.377,0.772-0.756,1.544-1.133,2.315
	c1.818,1.451,4.164,2.56,5.377,4.408c7.863,12.008,3.482,21.578-6.926,28.252c-2.262,1.447-7.029,1.129-9.484-0.328
	c-5.104-3.03-9.082-7.303-8.994-14.301c0.088-7.062,0.674-13.59,7.41-18.771c-12.842-1.411-23.51,4.639-34.793,6.414
	c-1.27,6.867-2.781,13.426-3.572,20.07c-0.357,3.017,0.227,6.373,1.242,9.273c1.863,5.318-1.137,13.859-6.564,15.219
	c-2.129,0.532-6.482-0.994-7.096-2.611c-1.355-3.598-1.211-7.844-1.229-11.827c-0.012-1.987,1.379-3.972,1.416-5.972
	c0.164-9.362-0.117-18.738,0.229-28.094c0.076-2.031,1.582-4.812,3.281-5.845c8.752-5.319,17.656-10.426,26.766-15.101
	c4.539-2.33,7.074-4.807,6.699-10.411c-0.438-6.558,0.414-13.188,0.402-19.783c-0.002-1.453-0.979-3.193-2.027-4.312
	c-8.354-8.881-16.869-17.606-25.232-26.479c-1.146-1.216-2.006-2.865-2.543-4.466c-4.379-13.018-8.428-26.147-13.074-39.062
	c-1.584-4.395-5.027-8.1-6.801-12.454c-1.029-2.524-1.436-6.194-0.338-8.503c1.832-3.845,5.688-2.712,8.699-0.983
	c10.693,6.126,18.455,14.2,20.459,27.257c1.049,6.844,3.477,13.875,6.988,19.807c2.555,4.312,7.836,7.067,12.049,10.327
	c5.445,4.216,10.963,8.347,16.602,12.3c2.16,1.518,4.734,2.438,7.062,4.667c-2.25-0.312-4.5-0.63-7.195-1.007
	c-4.023,5.816-8.484,12.264-13.092,18.919c12.939-4.181,25.268-4,38.775,0.497c-5.545-7.533-10.441-14.184-15.758-21.402
	c5.797-4.506,12.414-10.688,19.998-15.273c8.768-5.299,12.758-13.151,15.41-22.277c1.127-3.876,2.367-7.731,3.191-11.678
	c1.447-6.926,14.855-21.104,21.711-22.093c2.062-0.298,5.096,0.354,6.332,1.761c1.188,1.35,1.061,4.31,0.713,6.431
	c-0.297,1.813-1.621,3.507-2.666,5.144c-8.969,14.021-11.553,30.469-17.498,45.634c-1.119,2.854-2.859,5.659-4.938,7.91
	c-8.031,8.689-16.346,17.124-24.465,25.733c-0.881,0.936-1.744,2.45-1.656,3.626c0.498,6.76,1.852,13.497,1.797,20.233
	c-0.045,5.468,1.824,8.214,6.723,10.577c8.566,4.133,16.748,9.098,24.881,14.058c1.555,0.946,2.971,3.448,3.031,5.282
	c0.312,8.996,0.049,18.011,0.215,27.015c0.041,2.226,1.162,4.41,1.369,6.652c0.342,3.727,1.166,7.688,0.287,11.174
	c-1.074,4.254-6.232,5.057-9.596,2.174c-4.266-3.65-5.088-9.235-4.121-14.672c0.832-4.671,0.014-9.686-0.441-14.513
	C288.775,232.384,287.863,228.391,286.982,223.178z M219.9,153.432c-0.65,0.819-1.301,1.639-1.949,2.458
	c3.248-4.603,6.107-9.56,9.863-13.702c3.297-3.636,2.396-4.965-1.109-7.766c-8.938-7.137-20.586-12.025-22.793-25.353
	c-0.385-2.323-1.604-4.514-2.461-6.828c-7.27,3.668-10.738-3.553-16.758-5.518c4.199,12.804,8.207,25.061,12.264,37.296
	c0.209,0.636,0.762,1.233,1.297,1.675C205.455,141.627,212.682,147.525,219.9,153.432z M271.812,156.01
	c-0.859-0.912-1.723-1.823-2.58-2.735c7.459-5.928,14.926-11.847,22.361-17.804c0.529-0.426,1.023-1.064,1.236-1.703
	c4-12.119,7.957-24.254,12.074-36.853c-5.438,3.849-9.893,8.911-17.033,5.838c-0.504,1.72-0.67,3.604-1.551,5.052
	c-3.025,4.965-2.566,11.661-8.248,15.371c-5.6,3.658-10.82,7.901-16.211,11.883c-2.658,1.963-3.074,3.646-0.588,6.524
	C265.158,146.073,268.336,151.17,271.812,156.01z M189.184,249.411c4.529-1.69,8.182-3,8.645-8.075
	c0.479-5.269,1.148-10.554,2.297-15.707c0.379-1.694,2.24-3.802,3.883-4.347c7.48-2.483,15.125-4.479,23.117-6.769
	c-5.977-5.137-1.99-11.82-3.922-17.79c-10.562,5.979-20.986,11.833-31.35,17.803c-1.086,0.625-2.537,1.898-2.557,2.896
	C189.111,227.939,189.184,238.463,189.184,249.411z M264.367,215.032c6.621,1.912,13.881,3.821,20.986,6.193
	c1.709,0.57,3.797,2.477,4.17,4.116c1.178,5.146,1.514,10.476,2.379,15.7c0.646,3.896,1.635,7.713,7.525,6.816
	c0-6.178-0.508-12.492,0.113-18.693c0.98-9.715-0.395-17.574-11.537-20.135c-0.467-0.105-0.775-0.754-1.236-1.006
	c-6.406-3.484-12.824-6.946-18.793-10.175C266.732,203.77,265.617,209.081,264.367,215.032z M244.369,182.243
	c-8.176,0.535-12.412,4.576-11.969,11.417c0.432,6.67,6.395,12.644,12.363,12.385c5.5-0.238,11.713-7.033,11.416-12.481
	C255.836,187.322,250.143,181.863,244.369,182.243z"/>
</svg>
