<?xml version="1.0" encoding="utf-8"?>
<!-- Generator: Adobe Illustrator 16.0.4, SVG Export Plug-In . SVG Version: 6.00 Build 0)  -->
<!DOCTYPE svg PUBLIC "-//W3C//DTD SVG 1.1//EN" "http://www.w3.org/Graphics/SVG/1.1/DTD/svg11.dtd">
<svg version="1.1" id="Layer_1" xmlns="http://www.w3.org/2000/svg" xmlns:xlink="http://www.w3.org/1999/xlink" x="0px" y="0px"
	 width="367px" height="336px" viewBox="43 -19 367 336" enable-background="new 43 -19 367 336" xml:space="preserve">
<g id="Layer_1_1_">
	<g>
		<g>
			<path d="M295.881,232.62c0.926,0.796,1.508,1.296,2.123,1.824c4.463-6.424,8.871-12.77,13.276-19.112
				c-0.199-0.317-0.402-0.638-0.604-0.957c-9.925,4.332-20.273,1.927-30.439,2.424c-1.471,0.071-2.992-0.883-5.032-1.536
				c-0.023,0.167-0.558,1.342-0.187,1.836c4.383,5.833,8.897,11.562,13.375,17.315c3.073-2.22,5.426-2.019,6.485,0.827
				c-1.522,0-2.894,0.013-4.263-0.002c-2.491-0.028-4.252,0.979-6.026,2.881c-2.482,2.666-5.586,4.764-8.461,7.056
				c-3.938,3.14-8.082,6.049-11.812,9.418c-2.312,2.091-5.771,2.884-6.507,6.978c-0.702,3.908-2.809,7.561-4.254,11.344
				c-1.491,3.902-3.653,7.729-4.211,11.771c-0.717,5.198-4.647,7.806-7.129,11.603c-3.938,6.033-9.799,9.033-16.088,11.521
				c-2.535,1.006-7.199-3.605-6.074-6.089c2.439-5.383,5.31-10.567,7.939-15.864c0.562-1.136,0.848-2.408,1.295-3.604
				c3.436-9.196,6.877-18.39,10.318-27.582c0.795-2.127,2.021-4.19,2.327-6.386c0.927-6.623,6.149-9.78,10.317-13.952
				c5.021-5.024,9.1-11.067,14.446-15.669c4.569-3.932,4.822-8.223,4.56-13.459c-0.357-7.113-0.088-14.262-0.088-20.945
				c-4.72-2.987-9.082-5.889-13.584-8.545c-2.164-1.276-4.662-1.977-6.89-3.155c-4.942-2.625-9.854-5.315-14.666-8.173
				c-0.815-0.48-1.526-1.914-1.517-2.898c0.132-10.9,0.416-21.805,0.638-32.707c0.011-0.479-0.069-1.078-0.351-1.422
				c-3.434-4.223-1.121-8.648,0.287-12.502c0.771-2.104,4.101-3.794,6.605-4.52c1.129-0.325,3.502,1.863,4.566,3.424
				c3.695,5.404,2.889,11.061,0.309,16.711c-0.48,1.057-0.736,2.418-0.543,3.543c0.875,5.045,1.879,10.07,2.988,15.07
				c0.459,2.062,1.305,4.047,2.051,6.303c11.562,2.354,22.559,9.188,35.783,6.755c-1.512-1.104-3.021-1.983-4.252-3.153
				c-2.87-2.722-3.412-6.502-3.689-10.104c-0.426-5.518-0.643-11.215,3.23-15.834c1.549-1.852,3.494-3.945,5.645-4.545
				c2.199-0.613,4.863,0.579,7.346,0.756c0.985,0.068,2.021-0.472,2.688-0.646c7.402,3.215,9.914,10.528,9.482,16.891
				c-0.398,5.834-0.388,14.088-10.103,16.053c4.271,1.016,7.166,2.352,9.985,2.199c2.896-0.158,5.694-1.809,8.556-2.736
				c6.182-2.01,12.369-3.979,18.742-6.023c1.064-6.12,1.41-12.803,3.588-18.819c1.232-3.407,0.523-5.019-1.014-7.578
				c-3.119-5.205-2.019-8.041,1.358-12.01c0.718-0.843,1.22-1.875,1.746-2.858c1.99-3.719,4.599-5.205,8.229-3.88
				c2.781,1.015,3.914,3.64,3.812,6.582c-0.146,4.349,1.062,9.076-3.506,12.261c-0.52,0.362-0.248,1.938-0.25,2.948
				c-0.016,9.308-0.361,18.632,0.148,27.908c0.235,4.295-2.263,5.858-4.935,7.534c-6.604,4.136-13.316,8.087-20.041,12.018
				c-2.48,1.446-5.004,3.002-7.717,3.807c-2.188,0.647-1.898,1.91-1.898,3.369c-0.004,6.883,0.889,13.92-0.258,20.606
				c-1.061,6.165,2.188,9.151,5.646,12.7c7.422,7.611,14.9,15.18,22.049,23.043c1.662,1.828,2.303,4.707,3.062,7.209
				c1.448,4.781,2.446,9.701,3.997,14.443c1.965,6.004,5.203,11.744,6.15,17.869c0.648,4.182,3.871,5.733,5.219,8.817
				c1.396,3.201,2.162,6.669,3.445,9.925c1.336,3.379-0.02,5.977-2.895,6.86c-1.988,0.61-4.802-0.211-6.824-1.229
				c-3.254-1.634-6.631-3.511-9.101-6.102c-3.486-3.656-6.525-7.862-9.08-12.229c-1.148-1.961-0.234-5.02-0.984-7.342
				c-2.321-7.173-4.646-14.387-7.715-21.255c-1.102-2.472-4.199-4.147-6.574-5.937c-5.229-3.939-10.643-7.639-15.854-11.599
				c-2.937-2.229-5.647-4.754-8.383-7.233C295.629,234.559,295.881,233.696,295.881,232.62z M352.105,282.75
				c0.049-0.896,0.271-1.578,0.088-2.125c-3.309-9.882-6.629-19.759-10.024-29.606c-1.392-4.021-2.623-8.029-6.457-10.787
				c-2.506-1.803-4.32-4.56-6.484-6.853c-3.381-3.586-6.793-7.142-10.229-10.744c-4.228,6.396-8.386,12.688-12.354,18.699
				c2.309,1.95,4.459,3.866,6.711,5.655c4.646,3.688,9.34,7.314,14.022,10.957c0.609,0.478,1.64,0.759,1.855,1.355
				c2.08,5.631,4.027,11.311,6.152,17.377c0.703-0.279,1.508-0.708,2.365-0.915c1.129-0.271,2.629-0.911,3.393-0.446
				C344.757,277.516,348.17,280.034,352.105,282.75z M249.928,276.858c1.619-5.312,2.83-10.037,4.541-14.572
				c0.842-2.234,2.31-4.435,4.031-6.09c2.371-2.277,5.283-3.984,7.904-6.017c2.979-2.31,5.771-4.879,8.869-7.006
				c2.256-1.545,2.588-3.297,0.99-5.498c-3.521-4.853-6.791-9.885-10.17-14.853c-1.363,1.138-2.892,2.17-4.117,3.483
				c-2.527,2.702-4.738,5.716-7.363,8.312C249,240.172,243.715,245.756,242,253.967c-0.893,4.263-2.937,8.283-4.453,12.416
				c-1.688,4.597-3.371,9.19-5.182,14.123C238.564,279.231,242.93,272,249.928,276.858z M274.398,165.248
				c-2.838-1.132-5.348-2.313-7.971-3.136c-4.057-1.264-8.233-2.135-12.271-3.451c-2.062-0.674-5.113-1.528-5.652-3.041
				c-1.453-4.071-2.123-8.514-2.512-12.857c-0.734-8.238-2.816-11.257-9.986-12.896c0,10.354-0.074,20.648,0.105,30.938
				c0.021,1.099,1.318,2.521,2.398,3.187c3.553,2.19,7.293,4.076,10.93,6.137c2.264,1.277,4.438,2.724,6.713,3.98
				c4.873,2.702,9.787,5.334,14.684,7.991C272.451,176.767,268.807,170.299,274.398,165.248z M314.292,182.235
				c11.104-6.459,21.827-12.688,32.411-18.845c0-10.961,0-21.848,0-32.771c-3.844,0.102-5.646,2.896-6.483,5.523
				c-1.355,4.248-1.639,8.826-2.521,13.237c-0.484,2.435-0.521,5.985-2.068,6.97c-3.53,2.233-7.83,3.319-11.895,4.637
				c-4.234,1.373-8.562,2.475-13.947,4.004C316.208,170.092,313.1,176.61,314.292,182.235z"/>
		</g>
	</g>
</g>
<g id="Layer_2">
	<g>
		<g>
			<path d="M206.743,166.744c-2.517,11.729-5.088,23.719-7.66,35.709c0.772,0.379,1.545,0.757,2.315,1.135
				c1.451-1.82,2.56-4.164,4.408-5.377c12.008-7.865,21.577-3.486,28.252,6.926c1.446,2.258,1.129,7.029-0.328,9.482
				c-3.03,5.104-7.304,9.084-14.301,8.996c-7.062-0.088-13.591-0.674-18.771-7.41c-1.411,12.842,4.64,23.51,6.414,34.791
				c6.867,1.27,13.427,2.781,20.07,3.574c3.017,0.357,6.373-0.227,9.272-1.244c5.318-1.861,13.859,1.139,15.219,6.564
				c0.533,2.129-0.993,6.485-2.61,7.098c-3.599,1.355-7.844,1.209-11.827,1.229c-1.986,0.01-3.972-1.379-5.972-1.416
				c-9.362-0.164-18.738,0.116-28.095-0.23c-2.03-0.076-4.812-1.582-5.844-3.281c-5.32-8.752-10.427-17.654-15.102-26.764
				c-2.33-4.541-4.807-7.076-10.411-6.701c-6.558,0.438-13.188-0.414-19.783-0.402c-1.452,0.004-3.192,0.977-4.312,2.027
				c-8.881,8.354-17.606,16.869-26.479,25.232c-1.216,1.147-2.864,2.006-4.466,2.543c-13.018,4.379-26.146,8.428-39.062,13.076
				c-4.395,1.584-8.1,5.026-12.453,6.799c-2.524,1.031-6.194,1.436-8.504,0.338c-3.845-1.832-2.711-5.688-0.982-8.699
				c6.126-10.693,14.2-18.455,27.257-20.459c6.845-1.049,13.875-3.475,19.808-6.988c4.312-2.555,7.066-7.836,10.326-12.049
				c4.217-5.445,8.348-10.963,12.301-16.602c1.518-2.158,2.438-4.734,4.666-7.062c-0.312,2.25-0.629,4.5-1.006,7.195
				c5.815,4.025,12.264,8.486,18.918,13.092c-4.181-12.938-4-25.268,0.498-38.775c-7.533,5.545-14.185,10.441-21.402,15.756
				c-4.506-5.795-10.688-12.412-15.273-19.996c-5.299-8.767-13.15-12.756-22.277-15.41c-3.875-1.127-7.73-2.368-11.678-3.192
				c-6.926-1.446-21.104-14.856-22.093-21.711c-0.298-2.062,0.354-5.094,1.761-6.332c1.35-1.189,4.311-1.061,6.432-0.713
				c1.812,0.297,3.507,1.621,5.144,2.666c14.021,8.969,30.47,11.553,45.634,17.498c2.854,1.121,5.659,2.86,7.91,4.938
				c8.689,8.03,17.124,16.344,25.733,24.463c0.936,0.881,2.45,1.746,3.626,1.658c6.76-0.498,13.497-1.854,20.232-1.798
				c5.469,0.045,8.215-1.823,10.577-6.724c4.134-8.565,9.099-16.748,14.058-24.881c0.947-1.553,3.449-2.969,5.283-3.031
				c8.996-0.312,18.01-0.049,27.015-0.215c2.226-0.041,4.409-1.162,6.651-1.369c3.728-0.342,7.688-1.166,11.174-0.287
				c4.254,1.074,5.058,6.232,2.175,9.598c-3.65,4.264-9.235,5.088-14.673,4.12c-4.67-0.831-9.686-0.015-14.512,0.44
				C215.949,164.951,211.956,165.864,206.743,166.744z M136.997,233.826c0.819,0.648,1.64,1.3,2.459,1.949
				c-4.604-3.25-9.561-6.108-13.703-9.863c-3.636-3.297-4.965-2.4-7.766,1.109c-7.137,8.938-12.025,20.586-25.354,22.791
				c-2.322,0.385-4.514,1.604-6.827,2.461c3.668,7.271-3.554,10.738-5.519,16.76c12.805-4.199,25.062-8.207,37.297-12.266
				c0.636-0.209,1.232-0.76,1.674-1.297C125.192,248.271,131.091,241.045,136.997,233.826z M139.575,181.914
				c-0.912,0.859-1.822,1.721-2.734,2.58c-5.928-7.459-11.848-14.926-17.805-22.363c-0.426-0.531-1.063-1.025-1.703-1.238
				c-12.119-4-24.254-7.957-36.853-12.073c3.849,5.438,8.911,9.894,5.838,17.032c1.72,0.504,3.604,0.67,5.052,1.552
				c4.965,3.024,11.661,2.565,15.371,8.248c3.658,5.601,7.901,10.819,11.883,16.211c1.963,2.657,3.646,3.073,6.524,0.588
				C129.639,188.569,134.735,185.391,139.575,181.914z M232.977,264.543c-1.69-4.529-3-8.182-8.075-8.645
				c-5.27-0.479-10.554-1.149-15.707-2.299c-1.693-0.379-3.802-2.24-4.347-3.881c-2.483-7.48-4.479-15.125-6.769-23.119
				c-5.138,5.977-11.82,1.992-17.791,3.924c5.979,10.562,11.834,20.986,17.803,31.35c0.625,1.085,1.898,2.537,2.896,2.555
				C211.505,264.614,222.028,264.543,232.977,264.543z M198.598,189.36c1.911-6.621,3.821-13.882,6.192-20.985
				c0.57-1.709,2.478-3.798,4.116-4.171c5.146-1.178,10.476-1.515,15.7-2.379c3.896-0.646,7.713-1.636,6.816-7.526
				c-6.179,0-12.492,0.508-18.693-0.115c-9.715-0.977-17.574,0.396-20.135,11.539c-0.105,0.465-0.754,0.777-1.006,1.238
				c-3.484,6.405-6.946,12.823-10.176,18.793C187.335,186.994,192.646,188.11,198.598,189.36z M165.809,209.358
				c0.534,8.176,4.575,12.411,11.417,11.969c6.67-0.433,12.645-6.396,12.385-12.364c-0.238-5.498-7.033-11.712-12.48-11.416
				C170.888,197.889,165.429,203.584,165.809,209.358z"/>
		</g>
	</g>
</g>
<path d="M345.66,19.443c-2.517,11.73-5.088,23.719-7.66,35.711c0.772,0.377,1.545,0.756,2.315,1.133
	c1.451-1.817,2.56-4.163,4.408-5.377c12.008-7.862,21.577-3.481,28.252,6.927c1.446,2.262,1.129,7.028-0.328,9.483
	c-3.03,5.104-7.304,9.082-14.301,8.994c-7.062-0.088-13.591-0.674-18.771-7.41c-1.411,12.842,4.64,23.51,6.414,34.793
	c6.867,1.271,13.427,2.781,20.07,3.572c3.017,0.357,6.373-0.227,9.272-1.242c5.318-1.863,13.859,1.137,15.219,6.564
	c0.533,2.129-0.993,6.482-2.61,7.096c-3.599,1.355-7.844,1.211-11.827,1.229c-1.986,0.012-3.972-1.38-5.972-1.416
	c-9.362-0.164-18.738,0.116-28.095-0.229c-2.03-0.076-4.812-1.582-5.844-3.281c-5.32-8.752-10.427-17.655-15.102-26.766
	c-2.33-4.539-4.807-7.074-10.411-6.699c-6.558,0.438-13.188-0.414-19.783-0.402c-1.452,0.003-3.192,0.979-4.312,2.027
	c-8.881,8.354-17.606,16.869-26.479,25.232c-1.216,1.146-2.864,2.006-4.466,2.543c-13.018,4.379-26.146,8.428-39.062,13.074
	c-4.395,1.584-8.1,5.027-12.453,6.801c-2.524,1.029-6.194,1.436-8.504,0.338c-3.844-1.832-2.711-5.688-0.982-8.699
	c6.126-10.693,14.2-18.455,27.257-20.459c6.845-1.049,13.875-3.477,19.808-6.988c4.312-2.555,7.066-7.836,10.326-12.049
	c4.217-5.445,8.348-10.963,12.301-16.602c1.518-2.16,2.438-4.734,4.666-7.062c-0.312,2.25-0.629,4.5-1.006,7.195
	c5.815,4.023,12.264,8.484,18.918,13.092c-4.181-12.938-4-25.268,0.498-38.775c-7.533,5.546-14.185,10.441-21.402,15.759
	c-4.506-5.797-10.688-12.414-15.273-19.998c-5.299-8.769-13.15-12.758-22.277-15.41c-3.875-1.127-7.73-2.366-11.678-3.19
	c-6.926-1.447-21.104-14.855-22.093-21.712c-0.298-2.062,0.354-5.096,1.761-6.331c1.35-1.188,4.311-1.062,6.432-0.714
	c1.812,0.298,3.507,1.621,5.144,2.666c14.021,8.97,30.47,11.554,45.634,17.499c2.854,1.118,5.659,2.858,7.91,4.938
	c8.689,8.031,17.124,16.346,25.733,24.465c0.936,0.881,2.45,1.744,3.626,1.656c6.76-0.498,13.497-1.853,20.232-1.797
	c5.469,0.045,8.215-1.824,10.577-6.724c4.134-8.565,9.099-16.747,14.058-24.881c0.947-1.555,3.449-2.971,5.283-3.031
	c8.996-0.312,18.01-0.049,27.015-0.215c2.226-0.041,4.409-1.162,6.651-1.369c3.728-0.342,7.688-1.166,11.174-0.287
	c4.254,1.074,5.058,6.232,2.175,9.597c-3.65,4.266-9.235,5.088-14.673,4.121c-4.67-0.832-9.686-0.014-14.512,0.44
	C354.866,17.65,350.873,18.562,345.66,19.443z M275.914,86.525c0.819,0.65,1.64,1.301,2.459,1.949
	c-4.604-3.248-9.561-6.107-13.703-9.863c-3.636-3.297-4.965-2.396-7.766,1.109c-7.137,8.938-12.025,20.586-25.354,22.793
	c-2.322,0.385-4.514,1.604-6.827,2.461c3.668,7.27-3.554,10.738-5.519,16.758c12.805-4.199,25.062-8.207,37.297-12.264
	c0.636-0.209,1.232-0.762,1.674-1.297C264.109,100.971,270.008,93.744,275.914,86.525z M278.492,34.613
	c-0.912,0.859-1.822,1.724-2.734,2.58c-5.928-7.459-11.848-14.926-17.805-22.36c-0.426-0.529-1.063-1.023-1.703-1.236
	c-12.119-4-24.254-7.957-36.853-12.074c3.849,5.438,8.911,9.894,5.838,17.033c1.72,0.504,3.604,0.67,5.052,1.552
	c4.965,3.024,11.661,2.565,15.371,8.247c3.658,5.601,7.901,10.82,11.883,16.212c1.963,2.657,3.646,3.073,6.524,0.588
	C268.556,41.268,273.652,38.09,278.492,34.613z M371.894,117.242c-1.69-4.529-3-8.183-8.075-8.646
	c-5.27-0.479-10.554-1.147-15.707-2.297c-1.693-0.379-3.802-2.24-4.347-3.883c-2.483-7.479-4.479-15.125-6.769-23.117
	c-5.138,5.978-11.82,1.989-17.791,3.922c5.979,10.562,11.834,20.986,17.803,31.351c0.625,1.086,1.898,2.537,2.896,2.557
	C350.422,117.314,360.945,117.242,371.894,117.242z M337.515,42.059c1.911-6.621,3.821-13.881,6.192-20.986
	c0.57-1.709,2.478-3.797,4.116-4.17c5.146-1.178,10.476-1.514,15.7-2.379c3.896-0.646,7.713-1.635,6.816-7.524
	c-6.179,0-12.492,0.508-18.693-0.113c-9.715-0.979-17.574,0.396-20.135,11.537c-0.105,0.467-0.754,0.774-1.006,1.235
	c-3.484,6.406-6.946,12.824-10.176,18.793C326.252,39.693,331.563,40.809,337.515,42.059z M304.726,62.057
	c0.534,8.176,4.575,12.412,11.417,11.969c6.67-0.432,12.645-6.395,12.385-12.363c-0.238-5.5-7.033-11.713-12.48-11.416
	C309.805,50.59,304.346,56.283,304.726,62.057z"/>
</svg>
