<?xml version="1.0" encoding="utf-8"?>
<!-- Generator: Adobe Illustrator 16.0.4, SVG Export Plug-In . SVG Version: 6.00 Build 0)  -->
<!DOCTYPE svg PUBLIC "-//W3C//DTD SVG 1.1//EN" "http://www.w3.org/Graphics/SVG/1.1/DTD/svg11.dtd">
<svg version="1.1" id="Layer_1" xmlns="http://www.w3.org/2000/svg" xmlns:xlink="http://www.w3.org/1999/xlink" x="0px" y="0px"
	 width="373.906px" height="164px" viewBox="-111 99.778 373.906 164" enable-background="new -111 99.778 373.906 164"
	 xml:space="preserve">
<g id="Layer_1_1_">
	<g>
		<g>
			<path fill="#FFFFFF" d="M51.908,258.908c0-49.682,0-99.36,0-149.116c70.267,0,140.565,0,210.998,0c0,49.654,0,99.388,0,149.116
				C192.642,258.908,122.292,258.908,51.908,258.908z M130.231,188.745c-1.074,0-1.938-0.253-2.2,0.037
				c-2.481,2.732-5.009,5.447-7.235,8.384c-3.96,5.214-7.657,10.627-11.597,15.854c-1.788,2.375-3.466,5.473-5.938,6.574
				c-6.867,3.063-14.082,5.393-21.255,7.714c-2.323,0.751-5.38-0.163-7.341,0.984c-4.367,2.555-8.573,5.594-12.23,9.08
				c-2.59,2.469-4.467,5.846-6.101,9.1c-1.02,2.023-1.84,4.836-1.229,6.824c0.886,2.873,3.48,4.229,6.859,2.896
				c3.256-1.285,6.725-2.053,9.924-3.445c3.084-1.348,4.641-4.568,8.818-5.219c6.125-0.947,11.867-4.188,17.87-6.15
				c4.74-1.554,9.663-2.551,14.441-3.998c2.502-0.762,5.383-1.398,7.211-3.062c7.863-7.146,15.431-14.627,23.043-22.05
				c3.55-3.459,6.533-6.704,12.701-5.646c6.688,1.146,13.723,0.254,20.605,0.257c1.459,0.001,2.721-0.287,3.369,1.898
				c0.805,2.711,2.358,5.235,3.807,7.715c3.93,6.728,7.881,13.44,12.016,20.041c1.677,2.674,3.24,5.172,7.535,4.936
				c9.277-0.513,18.604-0.164,27.908-0.147c1.012,0.001,2.588-0.271,2.949,0.25c3.184,4.565,7.912,3.355,12.26,3.504
				c2.944,0.103,5.568-1.03,6.583-3.812c1.325-3.632-0.161-6.234-3.88-8.229c-0.982-0.525-2.019-1.028-2.859-1.744
				c-3.967-3.38-6.804-4.479-12.01-1.359c-2.562,1.536-4.17,2.246-7.578,1.013c-6.019-2.177-12.699-2.521-18.82-3.587
				c-2.045-6.374-4.016-12.562-6.023-18.741c-0.933-2.859-2.579-5.661-2.735-8.556c-0.151-2.819,1.185-5.72,2.198-9.987
				c1.966,9.713,10.22,9.701,16.052,10.102c6.359,0.432,13.676-2.08,16.89-9.482c-0.175-0.664-0.714-1.699-0.646-2.688
				c0.176-2.479,1.37-5.146,0.758-7.345c-0.601-2.147-2.696-4.096-4.545-5.645c-4.619-3.873-10.32-3.656-15.834-3.23
				c-3.604,0.277-7.386,0.82-10.105,3.689c-1.169,1.232-2.049,2.74-3.153,4.252c-2.434-13.226,4.396-24.221,6.754-35.783
				c2.256-0.746,4.237-1.592,6.305-2.051c4.998-1.109,10.024-2.113,15.068-2.988c1.125-0.193,2.488,0.062,3.543,0.543
				c5.652,2.58,11.307,3.389,16.711-0.309c1.559-1.064,3.75-3.438,3.424-4.566c-0.725-2.508-2.412-5.836-4.519-6.605
				c-3.852-1.407-8.28-3.721-12.501-0.287c-0.347,0.279-0.945,0.357-1.423,0.352c-10.902-0.223-21.805-0.507-32.706-0.639
				c-0.985-0.012-2.418,0.7-2.9,1.518c-2.854,4.812-5.547,9.724-8.172,14.666c-1.183,2.228-1.879,4.726-3.156,6.889
				c-2.658,4.503-5.557,8.865-8.545,13.584c-6.686,0-13.832-0.271-20.947,0.088c-5.233,0.264-9.524,0.012-13.457-4.559
				c-4.603-5.349-10.646-9.426-15.67-14.446c-4.172-4.168-7.33-9.392-13.953-10.317c-2.192-0.308-4.258-1.533-6.385-2.328
				c-9.191-3.441-18.386-6.885-27.582-10.318c-1.194-0.446-2.469-0.73-3.604-1.295c-5.297-2.633-10.482-5.5-15.865-7.939
				c-2.48-1.125-7.094,3.539-6.089,6.074c2.488,6.289,5.488,12.146,11.521,16.088c3.797,2.479,6.403,6.412,11.604,7.13
				c4.041,0.558,7.866,2.72,11.771,4.21c3.783,1.445,7.436,3.553,11.343,4.256c4.095,0.732,4.888,4.192,6.979,6.506
				c3.369,3.729,6.278,7.87,9.418,11.811c2.292,2.876,4.389,5.979,7.055,8.462c1.903,1.774,2.91,3.535,2.882,6.026
				c-0.015,1.367-0.003,2.736-0.003,4.263c2.847-1.062,3.049-3.411,0.828-6.485c5.752-4.477,11.482-8.991,17.315-13.375
				c0.494-0.371,1.669,0.162,1.836,0.188c-0.655,2.042-1.608,3.562-1.537,5.033c0.497,10.163-1.907,20.515,2.423,30.438
				c-0.316,0.202-0.637,0.404-0.955,0.605c-6.346-4.408-12.689-8.816-19.112-13.279
				C128.937,190.253,129.437,189.672,130.231,188.745z"/>
			<path d="M130.231,188.745c-0.795,0.927-1.295,1.508-1.822,2.121c6.423,4.465,12.769,8.871,19.111,13.278
				c0.318-0.2,0.639-0.402,0.957-0.604c-4.332-9.926-1.926-20.273-2.424-30.438c-0.072-1.471,0.883-2.992,1.537-5.033
				c-0.167-0.021-1.342-0.557-1.836-0.186c-5.833,4.383-11.562,8.896-17.314,13.375c2.22,3.074,2.018,5.426-0.83,6.484
				c0-1.521-0.012-2.895,0.005-4.264c0.026-2.491-0.979-4.252-2.884-6.024c-2.666-2.483-4.762-5.587-7.053-8.464
				c-3.141-3.938-6.05-8.082-9.418-11.811c-2.092-2.312-2.885-5.771-6.979-6.507c-3.908-0.702-7.562-2.81-11.343-4.255
				c-3.903-1.49-7.729-3.652-11.771-4.209c-5.197-0.719-7.805-4.648-11.603-7.131c-6.032-3.938-9.032-9.799-11.521-16.088
				c-1.005-2.535,3.606-7.199,6.09-6.074c5.381,2.44,10.567,5.311,15.864,7.94c1.136,0.562,2.407,0.849,3.604,1.294
				c9.195,3.437,18.39,6.877,27.582,10.319c2.125,0.795,4.189,2.021,6.383,2.327c6.623,0.927,9.781,6.15,13.953,10.318
				c5.025,5.021,11.068,9.099,15.67,14.445c3.933,4.569,8.224,4.822,13.459,4.561c7.115-0.357,14.262-0.09,20.947-0.09
				c2.987-4.719,5.887-9.08,8.545-13.582c1.276-2.164,1.975-4.662,3.155-6.89c2.625-4.942,5.316-9.854,8.173-14.666
				c0.481-0.815,1.914-1.526,2.899-1.517c10.9,0.132,21.804,0.416,32.706,0.638c0.479,0.011,1.078-0.069,1.423-0.351
				c4.222-3.434,8.648-1.121,12.501,0.287c2.104,0.771,3.794,4.101,4.52,6.605c0.325,1.129-1.865,3.502-3.424,4.566
				c-5.406,3.695-11.06,2.889-16.711,0.309c-1.056-0.48-2.418-0.736-3.543-0.543c-5.045,0.875-10.07,1.879-15.07,2.988
				c-2.064,0.459-4.047,1.305-6.303,2.051c-2.354,11.562-9.188,22.559-6.755,35.783c1.105-1.514,1.984-3.021,3.153-4.252
				c2.722-2.87,6.503-3.412,10.104-3.689c5.516-0.426,11.215-0.643,15.834,3.23c1.85,1.549,3.945,3.492,4.545,5.645
				c0.613,2.199-0.58,4.863-0.756,7.343c-0.07,0.989,0.471,2.024,0.645,2.688c-3.215,7.4-10.528,9.914-16.889,9.48
				c-5.834-0.396-14.088-0.387-16.053-10.1c-1.016,4.269-2.352,7.167-2.199,9.987c0.158,2.894,1.807,5.691,2.736,8.555
				c2.01,6.179,3.979,12.368,6.024,18.742c6.121,1.062,12.803,1.41,18.82,3.587c3.407,1.231,5.017,0.521,7.578-1.013
				c5.205-3.12,8.041-2.021,12.01,1.357c0.842,0.716,1.875,1.219,2.858,1.746c3.719,1.992,5.205,4.597,3.88,8.229
				c-1.015,2.778-3.639,3.912-6.582,3.812c-4.349-0.146-9.076,1.062-12.261-3.505c-0.362-0.521-1.938-0.248-2.948-0.25
				c-9.308-0.016-18.632-0.363-27.908,0.147c-4.295,0.235-5.859-2.263-7.535-4.935c-4.135-6.601-8.086-13.314-12.017-20.041
				c-1.446-2.479-3.002-5.004-3.807-7.715c-0.647-2.188-1.91-1.899-3.369-1.9c-6.883-0.003-13.919,0.891-20.606-0.257
				c-6.166-1.059-9.15,2.188-12.701,5.646c-7.611,7.422-15.18,14.898-23.043,22.05c-1.828,1.661-4.707,2.301-7.209,3.061
				c-4.779,1.449-9.7,2.446-14.442,3.998c-6.003,1.965-11.745,5.203-17.87,6.152c-4.182,0.646-5.733,3.87-8.817,5.217
				c-3.201,1.396-6.668,2.162-9.925,3.447c-3.379,1.335-5.976-0.021-6.86-2.896c-0.61-1.986,0.211-4.801,1.229-6.822
				c1.635-3.254,3.512-6.633,6.102-9.102c3.656-3.484,7.862-6.523,12.229-9.08c1.961-1.146,5.019-0.231,7.341-0.982
				c7.174-2.321,14.387-4.647,21.256-7.714c2.472-1.104,4.147-4.199,5.938-6.574c3.938-5.229,7.637-10.646,11.597-15.856
				c2.229-2.935,4.754-5.646,7.235-8.382C128.294,188.495,129.157,188.745,130.231,188.745z M80.103,244.97
				c0.896,0.049,1.578,0.271,2.125,0.088c9.881-3.308,19.758-6.629,29.606-10.026c4.021-1.389,8.03-2.624,10.787-6.457
				c1.803-2.507,4.56-4.319,6.853-6.482c3.586-3.381,7.142-6.794,10.744-10.229c-6.396-4.226-12.689-8.384-18.699-12.354
				c-1.951,2.307-3.867,4.459-5.655,6.711c-3.688,4.646-7.314,9.34-10.956,14.021c-0.479,0.612-0.76,1.641-1.356,1.858
				c-5.631,2.08-11.31,4.027-17.377,6.152c0.279,0.702,0.708,1.507,0.915,2.363c0.271,1.13,0.911,2.63,0.446,3.395
				C85.337,237.62,82.817,241.034,80.103,244.97z M85.996,142.792c5.312,1.619,10.037,2.83,14.571,4.541
				c2.234,0.842,4.435,2.311,6.09,4.031c2.277,2.37,3.984,5.284,6.017,7.905c2.309,2.979,4.879,5.771,7.006,8.869
				c1.545,2.256,3.297,2.588,5.498,0.99c4.852-3.521,9.885-6.792,14.853-10.171c-1.138-1.363-2.171-2.891-3.483-4.117
				c-2.702-2.528-5.715-4.737-8.312-7.362c-5.553-5.614-11.137-10.899-19.348-12.614c-4.263-0.892-8.283-2.937-12.416-4.453
				c-4.596-1.688-9.191-3.371-14.123-5.181C83.622,131.429,90.853,135.794,85.996,142.792z M197.604,167.263
				c1.131-2.838,2.315-5.348,3.136-7.971c1.264-4.055,2.135-8.234,3.45-12.271c0.675-2.063,1.531-5.114,3.041-5.653
				c4.074-1.453,8.516-2.123,12.86-2.513c8.239-0.733,11.257-2.815,12.896-9.985c-10.354,0-20.646-0.074-30.938,0.106
				c-1.098,0.021-2.521,1.317-3.186,2.397c-2.191,3.554-4.077,7.293-6.136,10.931c-1.279,2.265-2.724,4.438-3.982,6.711
				c-2.702,4.875-5.333,9.789-7.991,14.684C186.086,165.318,192.554,161.671,197.604,167.263z M180.619,207.156
				c6.459,11.106,12.688,21.828,18.844,32.412c10.961,0,21.848,0,32.77,0c-0.1-3.841-2.895-5.646-5.523-6.482
				c-4.248-1.354-8.826-1.64-13.237-2.521c-2.434-0.484-5.988-0.521-6.97-2.068c-2.233-3.531-3.319-7.829-4.637-11.895
				c-1.373-4.235-2.473-8.562-4.004-13.949C192.761,209.073,186.244,205.964,180.619,207.156z"/>
			<path fill="#FFFFFF" d="M80.103,244.97c2.715-3.938,5.234-7.35,7.433-10.959c0.465-0.766-0.177-2.266-0.446-3.395
				c-0.207-0.856-0.636-1.661-0.915-2.363c6.067-2.125,11.746-4.072,17.377-6.152c0.6-0.221,0.879-1.246,1.356-1.858
				c3.642-4.685,7.268-9.379,10.957-14.021c1.787-2.252,3.703-4.403,5.654-6.711c6.01,3.971,12.306,8.129,18.699,12.354
				c-3.604,3.437-7.158,6.85-10.744,10.229c-2.293,2.163-5.05,3.979-6.853,6.482c-2.757,3.833-6.77,5.068-10.787,6.457
				c-9.852,3.397-19.727,6.722-29.606,10.026C81.681,245.241,80.997,245.019,80.103,244.97z"/>
			<path fill="#FFFFFF" d="M85.996,142.792c4.854-6.998-2.374-11.363-3.648-17.562c4.932,1.81,9.527,3.492,14.123,5.181
				c4.133,1.52,8.153,3.562,12.416,4.453c8.211,1.715,13.795,7,19.348,12.614c2.598,2.625,5.608,4.834,8.312,7.362
				c1.312,1.228,2.347,2.754,3.482,4.117c-4.967,3.379-10,6.648-14.852,10.171c-2.201,1.598-3.953,1.266-5.498-0.99
				c-2.127-3.101-4.697-5.892-7.006-8.869c-2.031-2.621-3.736-5.535-6.017-7.905c-1.655-1.724-3.854-3.189-6.09-4.031
				C96.033,145.622,91.308,144.411,85.996,142.792z"/>
			<path fill="#FFFFFF" d="M197.604,167.263c-5.051-5.592-11.52-1.945-16.849-3.562c2.658-4.896,5.289-9.81,7.991-14.683
				c1.261-2.274,2.703-4.449,3.981-6.713c2.06-3.638,3.943-7.377,6.137-10.931c0.664-1.08,2.088-2.379,3.186-2.397
				c10.289-0.183,20.583-0.106,30.938-0.106c-1.642,7.17-4.657,9.252-12.896,9.987c-4.347,0.39-8.787,1.058-12.859,2.511
				c-1.512,0.539-2.367,3.592-3.041,5.653c-1.316,4.035-2.188,8.216-3.451,12.271C199.921,161.915,198.735,164.425,197.604,167.263z
				"/>
			<path fill="#FFFFFF" d="M180.619,207.156c5.625-1.189,12.143,1.917,17.241-4.505c1.531,5.39,2.63,9.714,4.003,13.949
				c1.315,4.062,2.401,8.36,4.637,11.894c0.979,1.551,4.536,1.586,6.971,2.07c4.41,0.882,8.988,1.165,13.236,2.521
				c2.631,0.839,5.426,2.645,5.524,6.482c-10.922,0-21.81,0-32.771,0C193.31,228.984,187.078,218.263,180.619,207.156z"/>
		</g>
	</g>
</g>
<g id="Layer_2">
	<g>
		<g>
			<path d="M52.702,142.424c-2.517,11.729-5.088,23.719-7.66,35.71c0.771,0.378,1.544,0.756,2.315,1.134
				c1.451-1.821,2.56-4.165,4.407-5.377c12.008-7.864,21.579-3.485,28.253,6.925c1.446,2.26,1.129,7.03-0.328,9.484
				c-3.03,5.104-7.303,9.083-14.302,8.995c-7.061-0.088-13.59-0.675-18.771-7.41c-1.411,12.842,4.639,23.509,6.414,34.792
				c6.866,1.268,13.426,2.781,20.07,3.573c3.017,0.356,6.373-0.228,9.273-1.243c5.317-1.863,13.858,1.138,15.219,6.562
				c0.532,2.129-0.994,6.485-2.611,7.099c-3.598,1.354-7.844,1.21-11.826,1.229c-1.987,0.01-3.973-1.38-5.972-1.416
				c-9.362-0.164-18.738,0.116-28.095-0.229c-2.03-0.076-4.811-1.582-5.844-3.281c-5.32-8.751-10.426-17.655-15.102-26.766
				c-2.33-4.539-4.805-7.074-10.411-6.699c-6.556,0.438-13.187-0.414-19.783-0.402c-1.451,0.003-3.191,0.979-4.311,2.027
				c-8.881,8.354-17.608,16.869-26.479,25.231c-1.216,1.147-2.863,2.006-4.466,2.543c-13.016,4.379-26.146,8.429-39.062,13.076
				c-4.396,1.584-8.102,5.026-12.454,6.799c-2.526,1.03-6.196,1.438-8.503,0.338c-3.845-1.832-2.712-5.688-0.985-8.698
				c6.126-10.693,14.2-18.454,27.257-20.458c6.846-1.051,13.875-3.477,19.809-6.989c4.312-2.555,7.065-7.836,10.327-12.048
				c4.216-5.446,8.347-10.963,12.3-16.604c1.516-2.16,2.438-4.732,4.667-7.062c-0.313,2.249-0.63,4.499-1.007,7.193
				c5.814,4.024,12.264,8.486,18.919,13.094c-4.183-12.939-4-25.27,0.497-38.775c-7.533,5.545-14.186,10.44-21.402,15.756
				c-4.506-5.795-10.689-12.414-15.275-19.998c-5.299-8.766-13.149-12.756-22.275-15.41c-3.876-1.127-7.733-2.367-11.68-3.191
				c-6.926-1.446-21.103-14.855-22.093-21.711c-0.298-2.062,0.354-5.096,1.762-6.332c1.351-1.188,4.311-1.061,6.432-0.713
				c1.812,0.297,3.507,1.621,5.142,2.666c14.021,8.969,30.471,11.553,45.635,17.498c2.854,1.119,5.658,2.859,7.909,4.938
				c8.691,8.031,17.124,16.344,25.735,24.463c0.934,0.88,2.45,1.746,3.626,1.658c6.758-0.498,13.497-1.852,20.232-1.797
				c5.469,0.045,8.215-1.824,10.578-6.723c4.133-8.566,9.098-16.748,14.058-24.881c0.946-1.554,3.448-2.97,5.282-3.031
				c8.996-0.312,18.011-0.049,27.014-0.215c2.227-0.041,4.411-1.162,6.653-1.369c3.727-0.342,7.688-1.166,11.173-0.287
				c4.255,1.074,5.058,6.232,2.175,9.596c-3.649,4.264-9.234,5.088-14.673,4.121c-4.67-0.832-9.685-0.014-14.512,0.441
				C61.908,140.631,57.914,141.542,52.702,142.424z M-17.046,209.506c0.819,0.647,1.641,1.3,2.46,1.949
				c-4.604-3.249-9.562-6.108-13.702-9.863c-3.638-3.297-4.967-2.399-7.768,1.106c-7.137,8.938-12.023,20.589-25.351,22.793
				c-2.325,0.387-4.516,1.604-6.83,2.463c3.668,7.271-3.551,10.736-5.516,16.759c12.804-4.199,25.059-8.207,37.296-12.267
				c0.636-0.209,1.231-0.76,1.675-1.297C-28.85,223.95-22.951,216.725-17.046,209.506z M-14.467,157.594
				c-0.91,0.858-1.821,1.722-2.733,2.58c-5.93-7.459-11.849-14.927-17.805-22.362c-0.427-0.531-1.063-1.025-1.702-1.238
				c-12.119-4-24.254-7.957-36.854-12.074c3.851,5.438,8.911,9.894,5.838,17.033c1.722,0.504,3.604,0.67,5.054,1.551
				c4.965,3.025,11.659,2.566,15.369,8.248c3.658,5.601,7.901,10.82,11.885,16.212c1.963,2.656,3.646,3.072,6.522,0.588
				C-24.403,164.248-19.307,161.07-14.467,157.594z M78.936,240.223c-1.69-4.53-3-8.182-8.076-8.646
				c-5.269-0.479-10.554-1.147-15.707-2.298c-1.693-0.379-3.801-2.238-4.347-3.881c-2.482-7.479-4.479-15.125-6.768-23.119
				c-5.138,5.979-11.82,1.992-17.791,3.923c5.978,10.562,11.833,20.987,17.803,31.352c0.625,1.085,1.899,2.537,2.896,2.556
				C57.463,240.294,67.986,240.223,78.936,240.223z M44.556,165.039c1.912-6.622,3.821-13.882,6.193-20.986
				c0.569-1.709,2.476-3.797,4.116-4.17c5.146-1.179,10.476-1.515,15.699-2.38c3.896-0.646,7.713-1.635,6.817-7.525
				c-6.178,0-12.493,0.508-18.694-0.115c-9.715-0.978-17.574,0.396-20.135,11.539c-0.105,0.465-0.753,0.776-1.005,1.237
				c-3.485,6.405-6.947,12.824-10.175,18.793C33.292,162.674,38.605,163.789,44.556,165.039z M11.767,185.036
				c0.537,8.179,4.578,12.412,11.417,11.972c6.67-0.435,12.645-6.396,12.385-12.364c-0.236-5.499-7.031-11.712-12.48-11.416
				C16.846,173.57,11.387,179.264,11.767,185.036z"/>
			<path fill="#FFFFFF" d="M-17.046,209.506c-5.904,7.219-11.805,14.442-17.732,21.646c-0.44,0.537-1.038,1.088-1.675,1.297
				c-12.237,4.06-24.492,8.065-37.296,12.267c1.965-6.021,9.184-9.487,5.516-16.759c2.316-0.857,4.505-2.076,6.83-2.463
				c13.324-2.204,18.214-13.854,25.351-22.793c2.803-3.508,4.13-4.403,7.768-1.106c4.144,3.755,9.101,6.615,13.702,9.863
				C-15.406,210.806-16.226,210.156-17.046,209.506z"/>
			<path fill="#FFFFFF" d="M-14.467,157.594c-4.84,3.478-9.938,6.654-14.427,10.535c-2.878,2.483-4.562,2.067-6.522-0.588
				c-3.98-5.394-8.227-10.611-11.885-16.212c-3.71-5.683-10.404-5.224-15.37-8.248c-1.447-0.881-3.331-1.047-5.053-1.551
				c3.073-7.142-1.988-11.597-5.838-17.033c12.6,4.117,24.732,8.074,36.854,12.074c0.639,0.213,1.275,0.707,1.701,1.237
				c5.957,7.438,11.876,14.903,17.806,22.363C-16.29,159.316-15.378,158.452-14.467,157.594z"/>
			<path fill="#FFFFFF" d="M78.936,240.223c-10.949,0-21.474,0.071-31.99-0.114c-0.994-0.019-2.271-1.471-2.896-2.556
				c-5.969-10.36-11.825-20.788-17.803-31.352c5.971-1.931,12.652,2.055,17.791-3.923c2.288,7.996,4.282,15.64,6.769,23.119
				c0.545,1.643,2.65,3.502,4.346,3.881c5.154,1.148,10.438,1.818,15.707,2.298C75.936,232.041,77.245,235.693,78.936,240.223z"/>
			<path fill="#FFFFFF" d="M44.556,165.039c-5.95-1.25-11.264-2.365-17.182-3.607c3.229-5.969,6.688-12.388,10.176-18.793
				c0.252-0.461,0.898-0.772,1.005-1.237c2.562-11.146,10.42-12.517,20.135-11.539c6.2,0.623,12.519,0.115,18.694,0.115
				c0.896,5.893-2.922,6.881-6.817,7.525c-5.226,0.865-10.556,1.201-15.699,2.38c-1.643,0.373-3.547,2.461-4.116,4.17
				C48.378,151.157,46.469,158.417,44.556,165.039z"/>
			<path fill="#FFFFFF" d="M11.767,185.036c-0.381-5.771,5.078-11.467,11.318-11.809c5.449-0.298,12.244,5.916,12.48,11.415
				c0.26,5.968-5.715,11.933-12.385,12.364C16.346,197.448,12.305,193.213,11.767,185.036z"/>
		</g>
	</g>
</g>
</svg>
