<?xml version="1.0" encoding="utf-8"?>
<!-- Generator: Adobe Illustrator 16.0.4, SVG Export Plug-In . SVG Version: 6.00 Build 0)  -->
<!DOCTYPE svg PUBLIC "-//W3C//DTD SVG 1.1//EN" "http://www.w3.org/Graphics/SVG/1.1/DTD/svg11.dtd">
<svg version="1.1" id="Layer_1" xmlns="http://www.w3.org/2000/svg" xmlns:xlink="http://www.w3.org/1999/xlink" x="0px" y="0px"
	 width="242px" height="356px" viewBox="193.5 214.5 242 356" enable-background="new 193.5 214.5 242 356" xml:space="preserve">
<g>
	<g>
		<path fill="#FFFFFF" d="M202,234c70.333,0,140.666,0,211,0c0,108.333,0,216.667,0,325c-70.334,0-140.667,0-211,0
			C202,450.667,202,342.333,202,234z M402.072,440.889l-0.129,0.186c1.694-3.286,4.562-6.477,4.844-9.879
			c0.609-7.386,0.18-14.898-0.329-22.326c-1.362-19.927-3.015-39.833-4.505-59.752c-1.963-26.238-3.744-52.491-5.867-78.717
			c-1.396-17.239-17.727-31.143-34.006-30.655c-27.139,0.813-54.322,0.115-81.487,0.141c-2.808,0.003-5.772,0.138-8.385,1.03
			c-3.584,1.226-6.901,3.233-10.332,4.906c0.215,0.381,0.429,0.762,0.644,1.144c3.366-1.655,6.732-3.31,10.196-5.012
			c-5.092,11.851-10.371,22.944-14.663,34.408c-6.202,16.568-8.62,33.734-6.078,51.45c2.799,19.504,12.188,35.292,27.252,47.602
			c6.228,5.09,13.465,8.932,20.084,13.565c1.495,1.047,3.354,3.059,3.311,4.576c-0.276,9.453-1.045,18.892-1.697,29.066
			c-2.163-1.282-3.895-2.154-5.457-3.268c-4.328-3.082-8.473-6.435-12.892-9.377c-10.079-6.711-20.375-13.097-30.392-19.896
			c-5.798-3.938-11.955-3.432-18.217-2.374c-1.189,0.201-2.52,1.558-3.155,2.724c-4.148,7.608-3.552,12.017,2.958,18.615
			c6.647,6.736,13.602,13.171,20.422,19.737c-3.445-1.671-6.176-4.505-9.507-6.024c-4.115-1.878-8.698-3.341-13.145-3.544
			c-1.513-0.069-3.208,4.236-4.855,6.52c-0.68,0.941-2.004,1.792-2.052,2.733c-0.076,1.485,0.184,3.579,1.16,4.433
			c5.845,5.103,12.005,9.844,17.889,14.903c1.252,1.076,1.797,2.976,3.039,5.143c-7.485-4.91-14.098-9.12-20.564-13.543
			c-3.425-2.345-10.01-2.243-10.862,0.835c-1.175,4.247-1.563,8.746-1.901,13.167c-0.094,1.22,0.874,2.936,1.893,3.757
			c5.207,4.194,10.604,8.15,15.901,12.231c1.726,1.33,3.354,2.786,5.026,4.185c-3.396-0.511-6.152-1.916-8.822-3.472
			c-6.826-3.973-13.057-1.087-14.293,6.507c-1.459,8.957-2.155,17.511,6.293,23.985c1.486,1.141,2.83,4.422,2.25,5.973
			c-3.074,8.22-2.149,14.879,4.339,21.428c8.058,8.135,14.503,17.991,26.191,21.71c1.442,0.459,2.75,1.34,4.121,2.024
			c0.246-0.422,0.491-0.844,0.736-1.265c-1.255-0.832-2.432-1.827-3.778-2.47c-8.172-3.898-15.887-8.367-20.897-16.294
			c-3.565-5.643-7.379-11.165-10.388-17.093c-0.771-1.521,1.085-4.374,1.734-6.615c1.666,0.719,3.832,1,4.909,2.232
			c4.123,4.722,7.364,10.322,11.918,14.53c7.788,7.195,16.575,13.304,24.434,20.431c4.506,4.086,9.352,7.113,15.048,8.812
			c5.275,1.573,9.62-2.007,8.504-7.369c-0.68-3.271-2.223-6.833-4.481-9.221c-7.185-7.591-14.675-14.932-22.475-21.889
			c-4.134-3.688-9.152-6.385-13.774-9.524c-0.364-0.247-0.746-0.469-1.211-0.761c1.092-0.497,2.015-0.917,2.938-1.338
			c0.175-0.429,0.35-0.856,0.525-1.284c-13.905-0.188-20.782-9.65-27.604-19.277c3.174,0.901,6.251,2.021,8.742,3.913
			c4.926,3.743,10.526,4.534,16.367,4.593c1.013,0.011,2.276-0.562,3.009-1.285c2.872-2.834,3.63-10.684,0.751-13.508
			c-7.866-7.714-16.118-15.034-24.142-22.59c-0.672-0.633-0.783-1.862-1.154-2.814c2.327,0.359,3.747,1.184,5.055,2.156
			c5.997,4.465,11.984,8.942,17.93,13.475c3.184,2.426,6.919,2.927,9.619,0.339c2.127-2.04,4.547-6.217,3.78-8.338
			c-1.74-4.81-4.811-9.463-8.36-13.214c-4.892-5.171-10.724-9.45-16.154-14.112c0.305-0.455,0.609-0.911,0.914-1.366
			c2.158,1.032,4.374,1.961,6.463,3.118c3.923,2.173,7.94,4.236,11.613,6.785c5.616,3.896,7.559-1.094,10.357-3.946
			c2.829-2.887,1.076-5.465-0.895-7.882c-0.944-1.157-1.98-2.25-3.052-3.293c-7.743-7.537-15.586-14.975-23.222-22.618
			c-2.881-2.886-5.295-6.233-8.491-10.053c10.288-1.359,53.449,25.785,67.124,40.894c-0.283,0.122-0.559,0.333-0.843,0.346
			c-1.165,0.054-2.332,0.071-3.498,0.059c-14.144-0.163-22.924,7.85-29.149,19.435c-2.342,4.358-1.25,5.822,4.01,6.695l-0.19-0.157
			c1.855,0.521,3.709,1.49,5.565,1.495c31.328,0.094,62.656,0.198,93.981-0.053c5.773-0.047,11.998,0.027,16.755-4.515
			c1.208-0.447,2.417-0.896,3.625-1.345C395.02,452.186,399.651,447.527,402.072,440.889z M245.478,320.406
			c-0.358-0.028-0.717-0.058-1.076-0.086c-1.787,20.521-3.574,41.04-5.361,61.561c0.464,0.037,0.928,0.073,1.391,0.109
			C242.115,361.463,243.796,340.935,245.478,320.406z M293.23,506.692c-0.126-1.897-0.112-3.066-0.296-4.203
			c-0.481-2.975-1.518-5.412-5.182-5.505c-3.932-0.099-5.327,2.432-5.532,5.633c-0.176,2.749-0.087,5.704,0.789,8.258
			c0.472,1.376,2.818,2.862,4.363,2.91c1.579,0.05,3.663-1.254,4.691-2.604C293.056,509.881,292.987,507.768,293.23,506.692z
			 M253.67,255.965c-9.155,12.695-6.193,27.435-7.599,41.438C248.989,283.654,246.026,268.915,253.67,255.965z M274.492,501.688
			c0,4.502,0,8.337,0,12.172c0.45-0.012,0.9-0.022,1.351-0.033c0-5.503,0-11.005,0-17.073c-2.28,2.05-4.102,3.688-5.923,5.326
			c0.16,0.233,0.32,0.469,0.48,0.703C271.427,502.507,272.455,502.231,274.492,501.688z"/>
		<path d="M269.213,460.129c-5.267-0.877-6.359-2.341-4.017-6.699c6.225-11.585,15.006-19.598,29.149-19.435
			c1.166,0.014,2.333-0.005,3.498-0.059c0.284-0.013,0.56-0.224,0.843-0.346c-13.675-15.108-56.835-42.253-67.124-40.894
			c3.196,3.819,5.61,7.168,8.491,10.053c7.635,7.645,15.479,15.081,23.222,22.618c1.072,1.043,2.108,2.136,3.052,3.293
			c1.971,2.417,3.724,4.995,0.895,7.882c-2.798,2.854-4.741,7.842-10.357,3.946c-3.673-2.548-7.69-4.612-11.613-6.785
			c-2.089-1.157-4.305-2.086-6.463-3.118c-0.305,0.455-0.609,0.911-0.914,1.366c5.43,4.662,11.262,8.941,16.154,14.113
			c3.549,3.751,6.62,8.403,8.36,13.213c0.767,2.121-1.653,6.298-3.78,8.338c-2.7,2.588-6.435,2.087-9.619-0.339
			c-5.946-4.531-11.934-9.01-17.93-13.475c-1.308-0.974-2.728-1.797-5.055-2.155c0.372,0.951,0.482,2.182,1.154,2.813
			c8.024,7.556,16.276,14.876,24.142,22.59c2.879,2.824,2.121,10.674-0.751,13.508c-0.733,0.725-1.996,1.297-3.009,1.285
			c-5.841-0.059-11.44-0.85-16.367-4.593c-2.49-1.893-5.568-3.012-8.742-3.913c6.822,9.627,13.699,19.09,27.604,19.277
			c-0.175,0.428-0.35,0.855-0.525,1.284c-0.923,0.421-1.846,0.841-2.938,1.338c0.466,0.292,0.848,0.514,1.211,0.761
			c4.622,3.141,9.64,5.838,13.774,9.525c7.8,6.957,15.29,14.297,22.475,21.888c2.259,2.388,3.801,5.949,4.481,9.221
			c1.115,5.362-3.229,8.942-8.504,7.369c-5.696-1.699-10.542-4.728-15.048-8.812c-7.859-7.126-16.646-13.234-24.434-20.431
			c-4.555-4.208-7.795-9.81-11.918-14.529c-1.077-1.233-3.243-1.516-4.909-2.233c-0.649,2.241-2.506,5.095-1.734,6.615
			c3.009,5.928,6.823,11.45,10.388,17.093c5.01,7.927,12.725,12.396,20.897,16.294c1.346,0.643,2.523,1.638,3.778,2.47
			c-0.246,0.421-0.491,0.844-0.736,1.265c-1.371-0.686-2.679-1.565-4.121-2.024c-11.688-3.719-18.134-13.575-26.191-21.71
			c-6.488-6.549-7.414-13.208-4.339-21.428c0.58-1.551-0.764-4.832-2.25-5.973c-8.448-6.476-7.752-15.028-6.293-23.985
			c1.236-7.594,7.467-10.479,14.293-6.506c2.67,1.555,5.426,2.96,8.822,3.471c-1.672-1.397-3.3-2.854-5.026-4.185
			c-5.298-4.081-10.695-8.038-15.901-12.231c-1.019-0.821-1.986-2.537-1.893-3.757c0.338-4.421,0.726-8.92,1.901-13.167
			c0.852-3.078,7.437-3.18,10.862-0.835c6.466,4.423,13.079,8.633,20.564,13.543c-1.242-2.167-1.787-4.065-3.039-5.143
			c-5.884-5.061-12.044-9.802-17.889-14.903c-0.977-0.854-1.236-2.946-1.16-4.433c0.048-0.941,1.372-1.792,2.052-2.733
			c1.646-2.282,3.342-6.588,4.855-6.52c4.446,0.203,9.029,1.666,13.145,3.544c3.332,1.521,6.062,4.354,9.507,6.024
			c-6.82-6.566-13.774-13.002-20.422-19.737c-6.511-6.599-7.107-11.007-2.958-18.615c0.636-1.166,1.966-2.522,3.155-2.724
			c6.262-1.058,12.418-1.563,18.217,2.374c10.016,6.801,20.313,13.187,30.392,19.897c4.419,2.941,8.564,6.293,12.892,9.377
			c1.562,1.111,3.294,1.983,5.457,3.267c0.652-10.175,1.421-19.613,1.697-29.066c0.044-1.518-1.814-3.529-3.311-4.576
			c-6.621-4.634-13.856-8.476-20.084-13.565c-15.063-12.31-24.453-28.098-27.252-47.602c-2.542-17.716-0.124-34.882,6.078-51.45
			c4.292-11.464,9.571-22.558,14.663-34.408c-3.463,1.702-6.83,3.356-10.196,5.012c-0.215-0.382-0.429-0.763-0.644-1.144
			c3.431-1.673,6.748-3.681,10.332-4.906c2.612-0.893,5.577-1.027,8.385-1.03c27.165-0.025,54.35,0.673,81.487-0.141
			c16.279-0.487,32.608,13.416,34.006,30.655c2.123,26.226,3.904,52.479,5.867,78.717c1.49,19.919,3.143,39.825,4.505,59.752
			c0.509,7.428,0.938,14.94,0.329,22.326c-0.28,3.402-3.148,6.593-4.844,9.879c0.385-1.398,0.866-2.778,1.138-4.199
			c0.985-5.155,2.646-10.322,2.662-15.489c0.022-7.447-1.272-14.892-1.821-22.352c-3.062-41.651-6.184-83.299-9.006-124.967
			c-0.613-9.058-3.37-17.053-9.814-23.213c-3.901-3.731-9.022-6.188-13.598-9.219c1.693,6.076,3.54,11.409,6.367,16.158
			c6.139,10.309,9.125,21.714,12.051,33.098c1.728,6.716,2.539,13.722,3.176,20.651c1.304,14.171-2.088,27.675-8.858,39.851
			c-4.59,8.251-10.646,16.081-17.494,22.567c-6.367,6.029-14.578,10.155-22.142,14.857c-2.715,1.688-3.884,3.371-3.536,6.735
			c1.213,11.746,1.979,23.538,3.189,35.283c0.118,1.151,1.953,2.701,3.262,3.05c4.625,1.231,9.606,1.409,14.012,3.122
			c6.665,2.593,12.053,7.032,15.564,13.624c1.668,3.131,3.12,7.312,8.225,6.265c-4.757,4.542-10.98,4.468-16.754,4.515
			c-31.326,0.251-62.655,0.146-93.982,0.053c-1.856-0.005-3.71-0.974-5.569-1.497c33.453,0.054,66.911,0.141,100.367,0.109
			c2.81-0.003,5.616-0.789,8.89-1.28c-7.892-15.123-18.87-23.584-35.657-22.158c-1.482-15.711-2.917-30.915-4.393-46.547
			c-11.331,0-22.156,0-33.505,0c-0.584,13.55-1.144,26.568-1.709,39.588c-0.093,2.152-0.211,4.305-0.316,6.455l0.083,0.033
			c-3.809,0.178-7.624,0.256-11.421,0.553c-8.925,0.697-20.894,10.181-23.403,18.794
			C267.567,456.817,268.752,458.579,269.213,460.129z M276.847,241.177c1.306,3.39,2.29,6.33,3.55,9.147
			c4.456,9.963,9.104,19.84,13.492,29.832c4.588,10.448,8.948,20.997,13.438,31.488c1.079,2.521,2.856,3.565,5.808,3.438
			c6.146-0.268,12.313-0.2,18.464-0.014c2.57,0.078,3.787-0.825,4.771-3.175c3.394-8.104,7.018-16.113,10.599-24.138
			c6.408-14.359,12.859-28.7,19.257-43.064c0.438-0.984,0.575-2.103,0.946-3.515C336.997,241.177,307.283,241.177,276.847,241.177z
			 M334.668,317.021c-6.059,0-11.814,0.652-17.354-0.161c-7.38-1.084-10.617,2.685-13.574,8.456
			c-6.496,12.68-13.313,25.2-20.213,37.668c-5.081,9.183-5.231,9.1,2.907,15.349c6.555,5.034,13.482,9.585,21.964,10.033
			c8.637,0.457,17.323,0.289,25.976,0.002c3.325-0.11,7.04-0.562,9.835-2.156c6.972-3.979,13.518-8.702,20.807-13.504
			C354.721,353.815,344.762,335.542,334.668,317.021z M276.714,369.098c4.517-8.221,8.658-15.532,12.492-23.001
			c0.514-1.002-0.183-2.988-0.883-4.19c-3.72-6.388-8.333-12.354-11.319-19.052c-7.61-17.071-2.397-32.273,7.991-46.511
			c1.178-1.613,2.09-4.536,1.437-6.183c-3.301-8.334-7.161-16.447-10.926-24.863c-0.653,0.719-1.07,1.032-1.298,1.45
			c-6.28,11.486-11.542,23.348-15.355,35.95c-3.356,11.091-5.439,22.175-5.371,33.776
			C253.606,337.243,262.251,354.063,276.714,369.098z M367.332,369.133c17.591-18.056,25.306-39.178,22.6-63.736
			c-1.904-17.295-7.516-33.604-15.135-49.202c-1.672-3.422-3.823-6.608-6.207-10.679c-3.972,8.937-7.516,16.76-10.885,24.658
			c-0.502,1.176-0.689,2.976-0.138,4.02c1.611,3.055,3.726,5.839,5.546,8.788c9.47,15.339,9.479,31.026,1.138,46.707
			c-2.337,4.393-5.923,8.108-8.74,12.268c-0.787,1.162-1.654,3.218-1.154,4.153C358.457,353.8,362.875,361.322,367.332,369.133z
			 M288.714,276.171c-19.562,20.766-15.456,51.302,3.821,65.992c4.51-8.495,9.019-16.868,13.346-25.334
			c0.404-0.792-0.149-2.245-0.571-3.262c-3.722-8.996-7.447-17.992-11.318-26.924C292.518,283.245,290.665,280.013,288.714,276.171z
			 M352.183,342.271c14.065-13.135,17.935-28.6,15.399-45.313c-1.169-7.708-7.229-14.075-12.295-21.185
			c-4.83,11.354-8.601,21.631-13.535,31.313c-3.248,6.373-4.659,11.709,0.757,17.355c0.975,1.015,1.188,2.723,1.905,4.025
			C346.788,332.776,349.233,337.047,352.183,342.271z M237.812,520.113c9.796,8.152,18.418,15.587,27.343,22.637
			c3.991,3.153,8.412,5.912,12.996,8.099c2.127,1.016,5.977,1.239,7.447-0.029c1.322-1.143,1.548-5.613,0.364-7.229
			c-4.273-5.831-9.345-11.077-14.115-16.544c-0.415,0.337-0.83,0.675-1.245,1.013c1.863,2.994,3.879,5.907,5.506,9.024
			c0.58,1.11,0.799,3.329,0.146,3.95c-1.022,0.972-3.614,1.887-4.348,1.31c-4.871-3.833-9.657-7.849-13.906-12.339
			c-0.991-1.048,0.195-4.156,0.38-6.314c1.955,0.358,3.913,0.702,5.863,1.089c0.712,0.142,1.405,0.386,2.106,0.582
			c0.341-0.476,0.681-0.949,1.022-1.425c-6.21-5.267-12.419-10.532-19.666-16.679C247.339,514.095,244.988,518.47,237.812,520.113z
			 M299.503,430.503c-0.668-4.663-0.592-4.757-6.289-9.46c-14.383-11.873-29.781-22.284-46.209-31.097
			c-3.77-2.022-8.112-3.135-13.114-0.505c13.074,4.183,23.962,10.661,34.281,18.195
			C278.341,415.062,288.514,422.483,299.503,430.503z M249.56,484.186c-8.238-4.089-16.792-8.6-25.617-12.493
			c-1.774-0.782-6.358,0.363-6.578,1.323c-0.684,2.986,0.234,6.076,4.154,7.153c2.186,0.601,4.126,2.04,6.25,2.927
			c5.309,2.218,10.587,4.543,16.019,6.416C247.207,490.69,249.614,489.433,249.56,484.186z M259.096,464.391
			c-2.442-1.154-4.626-1.75-6.26-3.041c-5.444-4.301-10.443-9.199-16.089-13.196c-4.674-3.311-9.949-5.82-15.135-8.317
			c-1.062-0.512-2.91,0.604-4.396,0.971c0.804,1.193,1.354,2.761,2.458,3.509c3.137,2.125,6.665,3.686,9.741,5.884
			c7.255,5.186,14.287,10.682,21.514,15.908C253.908,468.26,256.766,468.082,259.096,464.391z M249.878,482.982
			c0.434-0.516,0.868-1.03,1.302-1.547c-9.185-14.054-23.083-23.47-35.101-35.231c-2.227,6.953-1.512,7.318,4.339,11.89
			c7.641,5.969,14.593,12.812,21.927,19.181C244.719,479.335,247.359,481.089,249.878,482.982z M230.37,395.843
			c-1.672,8.052,25.301,35.902,36.88,36.633C255.008,420.314,242.766,408.154,230.37,395.843z M229.627,424.999
			c-2.335,3.354-2.535,5.869,0.458,8.245c2.97,2.355,6.079,4.605,8.702,7.314c5.752,5.939,11.211,12.161,16.847,18.217
			c1.158,1.243,2.563,2.259,3.854,3.38c0.384-0.395,0.768-0.788,1.152-1.183c-1.798-7.188-6.436-12.428-11.9-17.347
			c-5.617-5.057-10.759-10.64-16.126-15.975C231.744,426.788,230.78,426.019,229.627,424.999z M216.338,479.401
			c-0.528,0.199-1.055,0.399-1.583,0.601c0,3.662-1.132,7.846,0.261,10.866c2.18,4.728,5.964,8.749,9.266,12.914
			c2.32,2.927,5.917,2.47,6.775-1.118c0.501-2.102-0.392-4.996-1.609-6.938c-1.815-2.893-4.56-5.186-6.744-7.867
			C220.479,485.125,218.452,482.228,216.338,479.401z M232.359,420.415c-0.567,0.508-1.134,1.017-1.702,1.525
			c1.864,2.144,3.318,5.109,5.667,6.28c8.092,4.034,16.498,7.44,25.271,11.302c0.391-0.449,1.319-1.517,2.934-3.371
			C252.132,433.368,244.715,422.052,232.359,420.415z M229.556,507.648c1.944,2.274,3.684,4.473,5.593,6.512
			c3.447,3.684,5.22,3.477,8.933-0.304c3.578-3.645,0.63-5.641-1.817-7.543c-2.411-1.874-5.143-3.335-7.759-4.993
			C232.623,503.727,231.124,505.644,229.556,507.648z M259.998,526.479c0.391,3.962,7.996,12.904,11.559,13.173
			c0.724,0.055,2.338-1.729,2.247-2.514C273.343,533.183,264.356,526.45,259.998,526.479z"/>
		<path fill="#FFFFFF" d="M385.318,456.896c-5.104,1.046-6.557-3.135-8.225-6.266c-3.513-6.592-8.899-11.031-15.564-13.624
			c-4.404-1.713-9.387-1.891-14.012-3.122c-1.309-0.349-3.144-1.897-3.262-3.05c-1.21-11.745-1.978-23.537-3.189-35.283
			c-0.348-3.364,0.821-5.048,3.536-6.735c7.562-4.702,15.773-8.828,22.142-14.857c6.85-6.486,12.904-14.316,17.494-22.567
			c6.771-12.176,10.162-25.68,8.858-39.851c-0.637-6.93-1.448-13.936-3.176-20.651c-2.926-11.384-5.912-22.789-12.051-33.098
			c-2.827-4.749-4.674-10.082-6.367-16.158c4.574,3.03,9.695,5.487,13.598,9.219c6.444,6.16,9.201,14.155,9.814,23.213
			c2.822,41.668,5.943,83.315,9.006,124.967c0.549,7.46,1.845,14.903,1.821,22.352c-0.018,5.167-1.677,10.334-2.662,15.489
			c-0.271,1.421-0.753,2.801-1.138,4.199l0.129-0.186c-4.376,4.889-8.752,9.775-13.129,14.663
			C387.735,456,386.526,456.448,385.318,456.896z M355.621,397.787c0,4.529,0,8.312,0,12.094c0.436-0.005,0.871-0.011,1.306-0.016
			c0-5.52,0-11.037,0-17.039c-2.202,1.883-4.104,3.51-6.007,5.137c0.105,0.251,0.211,0.502,0.316,0.753
			C352.383,398.473,353.531,398.229,355.621,397.787z M366.523,397.918c0.212,4.264,0.402,8.109,0.596,11.957
			c0.492-0.031,0.984-0.062,1.479-0.094c0-5.499,0-10.998,0-17.228c-2.359,2.112-4.168,3.729-5.975,5.347
			c0.146,0.242,0.295,0.482,0.441,0.724C364.079,398.417,365.094,398.21,366.523,397.918z"/>
		<path d="M245.478,320.406c-1.682,20.528-3.363,41.057-5.045,61.584c-0.463-0.036-0.927-0.072-1.391-0.109
			c1.787-20.521,3.574-41.04,5.361-61.561C244.761,320.349,245.12,320.378,245.478,320.406z"/>
		<path d="M293.23,506.692c-0.243,1.074-0.174,3.188-1.167,4.489c-1.029,1.35-3.112,2.652-4.691,2.604
			c-1.544-0.048-3.891-1.534-4.363-2.91c-0.876-2.554-0.965-5.509-0.789-8.258c0.205-3.201,1.6-5.73,5.532-5.633
			c3.664,0.093,4.701,2.53,5.182,5.505C293.118,503.626,293.104,504.795,293.23,506.692z M291.005,505.505
			c-0.09-1.134,0.146-2.313-0.317-3.064c-0.781-1.271-1.838-2.731-3.11-3.187c-0.643-0.229-2.884,1.563-2.893,2.456
			c-0.03,3.169,0.503,6.361,1.117,9.486c0.053,0.271,2.384,0.436,3.438,0.05c0.697-0.254,1.189-1.528,1.437-2.438
			C290.977,507.713,290.92,506.52,291.005,505.505z"/>
		<path d="M261.876,245.822c-13.747,12.534-12.887,37.832-15.805,51.581C247.477,283.399,246.949,257.69,261.876,245.822z"/>
		<path d="M274.492,501.688c-2.037,0.545-3.065,0.819-4.093,1.095c-0.16-0.234-0.32-0.47-0.48-0.703
			c1.822-1.639,3.644-3.276,5.923-5.326c0,6.068,0,11.57,0,17.073c-0.45,0.011-0.9,0.021-1.351,0.033
			C274.492,510.023,274.492,506.188,274.492,501.688z"/>
		<path d="M388.943,455.552c4.377-4.888,8.753-9.774,13.129-14.663C399.651,447.527,395.02,452.186,388.943,455.552z"/>
		<path fill="#FFFFFF" d="M276.847,241.177c30.437,0,60.15,0,90.324,0c-0.371,1.412-0.509,2.53-0.946,3.515
			c-6.396,14.364-12.849,28.705-19.257,43.064c-3.581,8.024-7.205,16.034-10.599,24.138c-0.984,2.35-2.201,3.253-4.771,3.175
			c-6.149-0.187-12.318-0.254-18.464,0.014c-2.95,0.128-4.729-0.917-5.808-3.438c-4.49-10.491-8.85-21.04-13.438-31.488
			c-4.388-9.992-9.036-19.869-13.492-29.832C279.137,247.507,278.152,244.566,276.847,241.177z"/>
		<path fill="#FFFFFF" d="M334.668,317.021c10.094,18.521,20.053,36.795,30.348,55.687c-7.289,4.802-13.835,9.525-20.807,13.504
			c-2.795,1.595-6.51,2.046-9.835,2.156c-8.651,0.287-17.339,0.455-25.976-0.002c-8.482-0.448-15.41-4.999-21.964-10.033
			c-8.138-6.249-7.988-6.166-2.907-15.349c6.899-12.468,13.717-24.988,20.213-37.668c2.957-5.771,6.194-9.54,13.574-8.456
			C322.854,317.673,328.609,317.021,334.668,317.021z M321.777,337.003c0.385,0.358,0.77,0.717,1.153,1.075
			c0.554-0.475,1.033-1.179,1.672-1.379c1.533-0.481,3.144-0.728,4.722-1.067c0.113,1.768,0.783,3.759,0.188,5.242
			c-0.62,1.546-2.475,2.587-3.765,3.875c-1.397,1.396-2.767,2.823-4.571,4.67c4.66,0,8.193,0,11.728,0
			c0.006-0.391,0.012-0.781,0.018-1.172c-2.312-0.147-4.623-0.294-7.445-0.474c2.499-2.669,4.975-4.689,6.558-7.26
			c0.819-1.331,0.799-4.439-0.154-5.312c-1.449-1.327-4.117-2.049-6.117-1.806C324.307,333.573,323.096,335.729,321.777,337.003z
			 M309.908,337.887c0.17,0.281,0.342,0.562,0.513,0.843c1.138-0.222,2.275-0.444,4.132-0.808c0,4.331,0,8.137,0,11.941
			c0.445-0.002,0.893-0.004,1.337-0.006c0-5.495,0-10.989,0-16.952C313.751,334.687,311.829,336.287,309.908,337.887z"/>
		<path fill="#FFFFFF" d="M302.688,436.133c0.106-2.15,0.225-4.303,0.317-6.455c0.565-13.02,1.125-26.039,1.709-39.588
			c11.348,0,22.174,0,33.505,0c1.476,15.631,2.909,30.836,4.393,46.547c16.787-1.426,27.767,7.035,35.657,22.158
			c-3.272,0.491-6.081,1.277-8.89,1.28c-33.456,0.03-66.914-0.057-100.367-0.109c0.003,0.002,0.193,0.159,0.197,0.161
			c-0.458-1.548-1.643-3.31-1.263-4.614c2.51-8.613,14.478-18.097,23.403-18.794c3.798-0.297,7.613-0.375,11.424-0.558
			c9.728-0.004,19.451-0.004,29.176-0.004c0-0.009,0-0.018,0-0.024C322.196,436.133,312.442,436.133,302.688,436.133z
			 M322.495,422.719c-0.242,0.147-0.483,0.295-0.727,0.442c1.566,1.261,3.017,3.311,4.73,3.562c1.784,0.263,4.533-0.695,5.542-2.082
			c0.921-1.263,0.088-3.812,0.005-5.793c-0.039-0.937-0.411-1.957-0.147-2.787c0.958-3.035-0.269-5.037-3.019-5.822
			c-2.893-0.825-5.277,0.078-6.229,2.594c2.567,0.189,4.831,0.357,7.094,0.523c-1.024,1.74-2.049,3.481-2.841,4.828
			c1.219,0.963,2.806,1.934,3.925,3.288c0.311,0.375-0.879,2.791-1.197,2.752C327.229,423.938,324.869,423.269,322.495,422.719z
			 M315.904,409.88c-2.165,1.812-4.086,3.42-7.174,6.005c2.694-0.423,3.91-0.613,5.844-0.917c0,4.306,0,8.104,0,11.9
			c0.442-0.004,0.887-0.008,1.33-0.012C315.904,421.355,315.904,415.855,315.904,409.88z"/>
		<path fill="#FFFFFF" d="M276.714,369.098c-14.462-15.034-23.108-31.854-23.231-52.623c-0.069-11.602,2.015-22.686,5.371-33.776
			c3.813-12.604,9.076-24.464,15.355-35.95c0.228-0.418,0.646-0.731,1.298-1.45c3.765,8.416,7.625,16.529,10.926,24.863
			c0.653,1.646-0.259,4.569-1.437,6.183c-10.389,14.237-15.602,29.439-7.991,46.511c2.986,6.698,7.599,12.664,11.319,19.052
			c0.7,1.202,1.397,3.188,0.883,4.19C285.372,353.565,281.231,360.877,276.714,369.098z"/>
		<path fill="#FFFFFF" d="M367.332,369.133c-4.457-7.811-8.875-15.333-12.977-23.023c-0.5-0.936,0.367-2.991,1.154-4.153
			c2.817-4.159,6.403-7.875,8.74-12.268c8.341-15.681,8.332-31.368-1.138-46.707c-1.82-2.949-3.935-5.733-5.546-8.788
			c-0.553-1.044-0.364-2.844,0.138-4.02c3.369-7.898,6.913-15.722,10.885-24.658c2.384,4.07,4.535,7.257,6.207,10.679
			c7.619,15.599,13.229,31.907,15.135,49.202C392.638,329.955,384.923,351.077,367.332,369.133z"/>
		<path fill="#FFFFFF" d="M288.714,276.171c1.951,3.842,3.804,7.074,5.276,10.473c3.871,8.932,7.597,17.928,11.318,26.924
			c0.422,1.017,0.977,2.47,0.571,3.262c-4.327,8.466-8.835,16.839-13.346,25.334C273.258,327.473,269.152,296.937,288.714,276.171z"
			/>
		<path fill="#FFFFFF" d="M352.183,342.271c-2.948-5.225-5.395-9.495-7.769-13.804c-0.719-1.303-0.932-3.011-1.905-4.025
			c-5.416-5.646-4.005-10.982-0.757-17.355c4.937-9.683,8.705-19.959,13.535-31.313c5.066,7.109,11.126,13.477,12.295,21.185
			C370.116,313.672,366.248,329.137,352.183,342.271z"/>
		<path fill="#FFFFFF" d="M237.812,520.113c7.176-1.645,9.527-6.02,9.891-12.856c7.247,6.146,13.456,11.412,19.666,16.679
			c-0.341,0.476-0.681,0.949-1.022,1.425c-0.701-0.196-1.394-0.44-2.106-0.582c-1.95-0.387-3.908-0.729-5.863-1.089
			c-0.185,2.158-1.371,5.268-0.38,6.314c4.249,4.49,9.036,8.506,13.906,12.339c0.734,0.577,3.326-0.338,4.348-1.31
			c0.654-0.621,0.435-2.84-0.146-3.95c-1.626-3.117-3.643-6.03-5.506-9.024c0.415-0.338,0.83-0.676,1.245-1.013
			c4.771,5.467,9.842,10.713,14.115,16.544c1.184,1.615,0.958,6.087-0.364,7.229c-1.47,1.27-5.32,1.045-7.447,0.029
			c-4.584-2.187-9.004-4.944-12.996-8.099C256.23,535.7,247.608,528.267,237.812,520.113z"/>
		<path fill="#FFFFFF" d="M299.503,430.503c-10.989-8.02-21.162-15.44-31.332-22.866c-10.319-7.535-21.207-14.013-34.281-18.195
			c5.001-2.63,9.344-1.518,13.114,0.505c16.428,8.812,31.827,19.224,46.209,31.097C298.911,425.746,298.834,425.84,299.503,430.503z
			"/>
		<path fill="#FFFFFF" d="M249.56,484.186c0.054,5.247-2.354,6.506-5.771,5.326c-5.432-1.873-10.71-4.199-16.019-6.416
			c-2.124-0.887-4.065-2.326-6.25-2.927c-3.919-1.077-4.837-4.167-4.154-7.153c0.22-0.96,4.804-2.105,6.578-1.323
			C232.768,475.586,241.322,480.097,249.56,484.186z"/>
		<path fill="#FFFFFF" d="M259.096,464.391c-2.331,3.691-5.188,3.869-8.167,1.716c-7.227-5.228-14.259-10.724-21.514-15.908
			c-3.076-2.198-6.604-3.759-9.741-5.884c-1.104-0.748-1.655-2.314-2.458-3.509c1.486-0.365,3.333-1.481,4.396-0.971
			c5.186,2.497,10.46,5.008,15.135,8.317c5.646,3.997,10.645,8.896,16.089,13.196C254.47,462.641,256.654,463.235,259.096,464.391z"
			/>
		<path fill="#FFFFFF" d="M249.878,482.982c-2.519-1.895-5.159-3.647-7.532-5.709c-7.334-6.368-14.287-13.213-21.927-19.181
			c-5.852-4.571-6.566-4.937-4.339-11.89c12.018,11.763,25.916,21.179,35.101,35.231
			C250.746,481.952,250.312,482.468,249.878,482.982z"/>
		<path fill="#FFFFFF" d="M230.37,395.843c12.396,12.312,24.638,24.474,36.88,36.633
			C255.671,431.745,228.697,403.895,230.37,395.843z"/>
		<path fill="#FFFFFF" d="M229.627,424.999c1.153,1.02,2.117,1.789,2.987,2.653c5.368,5.335,10.509,10.918,16.126,15.975
			c5.464,4.919,10.102,10.158,11.9,17.347c-0.384,0.395-0.768,0.788-1.152,1.183c-1.292-1.121-2.696-2.137-3.854-3.38
			c-5.635-6.056-11.095-12.276-16.847-18.217c-2.623-2.709-5.732-4.959-8.702-7.314
			C227.092,430.868,227.292,428.354,229.627,424.999z"/>
		<path fill="#FFFFFF" d="M216.338,479.401c2.114,2.825,4.14,5.724,6.366,8.458c2.184,2.683,4.929,4.976,6.744,7.867
			c1.217,1.94,2.11,4.837,1.609,6.938c-0.857,3.588-4.455,4.045-6.775,1.118c-3.302-4.165-7.086-8.188-9.266-12.914
			c-1.393-3.021-0.261-7.204-0.261-10.866C215.283,479.802,215.811,479.602,216.338,479.401z"/>
		<path fill="#FFFFFF" d="M232.359,420.415c12.355,1.637,19.772,12.953,32.17,15.736c-1.614,1.854-2.543,2.922-2.934,3.371
			c-8.774-3.86-17.179-7.268-25.271-11.302c-2.349-1.171-3.803-4.138-5.667-6.28C231.225,421.432,231.792,420.923,232.359,420.415z"
			/>
		<path fill="#FFFFFF" d="M229.556,507.648c1.568-2.006,3.067-3.923,4.949-6.328c2.616,1.657,5.348,3.119,7.759,4.993
			c2.447,1.902,5.395,3.898,1.817,7.543c-3.712,3.779-5.485,3.986-8.933,0.304C233.24,512.121,231.5,509.924,229.556,507.648z"/>
		<path fill="#FFFFFF" d="M259.998,526.479c4.359-0.027,13.346,6.704,13.806,10.659c0.091,0.785-1.523,2.567-2.247,2.514
			C267.993,539.383,260.389,530.439,259.998,526.479z"/>
		<path d="M355.621,397.787c-2.09,0.441-3.238,0.686-4.385,0.929c-0.105-0.251-0.211-0.502-0.316-0.753
			c1.902-1.627,3.805-3.254,6.007-5.137c0,6.002,0,11.521,0,17.039c-0.435,0.005-0.87,0.011-1.306,0.016
			C355.621,406.1,355.621,402.316,355.621,397.787z"/>
		<path d="M366.523,397.918c-1.431,0.292-2.444,0.499-3.459,0.706c-0.146-0.24-0.296-0.481-0.441-0.724
			c1.807-1.617,3.614-3.234,5.975-5.347c0,6.229,0,11.729,0,17.228c-0.492,0.031-0.985,0.062-1.479,0.094
			C366.927,406.027,366.735,402.182,366.523,397.918z"/>
		<path fill="#FFFFFF" d="M291.005,505.505c-0.085,1.015-0.028,2.208-0.327,3.304c-0.248,0.909-0.74,2.185-1.437,2.438
			c-1.054,0.386-3.385,0.222-3.438-0.05c-0.614-3.125-1.147-6.317-1.117-9.486c0.009-0.893,2.25-2.686,2.893-2.456
			c1.272,0.454,2.329,1.916,3.11,3.187C291.151,503.19,290.916,504.371,291.005,505.505z"/>
		<path d="M321.777,337.003c1.317-1.273,2.528-3.43,3.981-3.607c2-0.243,4.668,0.479,6.117,1.806
			c0.953,0.873,0.975,3.981,0.154,5.312c-1.583,2.57-4.059,4.591-6.558,7.26c2.822,0.18,5.135,0.326,7.445,0.474
			c-0.006,0.391-0.012,0.781-0.018,1.172c-3.533,0-7.066,0-11.728,0c1.805-1.847,3.174-3.273,4.571-4.67
			c1.29-1.288,3.145-2.329,3.765-3.875c0.597-1.483-0.074-3.475-0.188-5.242c-1.578,0.34-3.188,0.586-4.722,1.067
			c-0.639,0.2-1.118,0.904-1.672,1.379C322.547,337.72,322.162,337.361,321.777,337.003z"/>
		<path d="M309.908,337.887c1.921-1.6,3.843-3.2,5.98-4.981c0,5.963,0,11.457,0,16.952c-0.444,0.002-0.892,0.004-1.337,0.006
			c0-3.805,0-7.61,0-11.941c-1.855,0.363-2.994,0.586-4.132,0.808C310.25,338.449,310.078,338.168,309.908,337.887z"/>
		<path d="M322.495,422.719c2.374,0.55,4.732,1.218,7.138,1.506c0.318,0.039,1.508-2.377,1.197-2.752
			c-1.119-1.354-2.706-2.324-3.925-3.289c0.792-1.346,1.815-3.086,2.841-4.826c-2.263-0.168-4.525-0.334-7.094-0.524
			c0.95-2.517,3.336-3.419,6.229-2.593c2.75,0.785,3.977,2.785,3.019,5.822c-0.264,0.828,0.108,1.851,0.147,2.785
			c0.083,1.981,0.916,4.531-0.005,5.794c-1.009,1.387-3.758,2.345-5.542,2.082c-1.715-0.252-3.164-2.302-4.73-3.562
			C322.012,423.014,322.253,422.866,322.495,422.719z"/>
		<path d="M315.904,409.88c0,5.976,0,11.477,0,16.978c-0.443,0.004-0.888,0.008-1.33,0.012c0-3.797,0-7.596,0-11.9
			c-1.934,0.305-3.148,0.494-5.844,0.917C311.818,413.3,313.739,411.691,315.904,409.88z"/>
		<path d="M302.688,436.133c9.755,0,19.509,0,29.263,0c0,0.008,0,0.017,0,0.024c-9.725,0-19.448,0-29.176,0.004
			C302.771,436.166,302.688,436.133,302.688,436.133z"/>
	</g>
</g>
</svg>
