<?xml version="1.0" encoding="utf-8"?>
<!-- Generator: Adobe Illustrator 16.0.4, SVG Export Plug-In . SVG Version: 6.00 Build 0)  -->
<!DOCTYPE svg PUBLIC "-//W3C//DTD SVG 1.1//EN" "http://www.w3.org/Graphics/SVG/1.1/DTD/svg11.dtd">
<svg version="1.1" id="Layer_1" xmlns="http://www.w3.org/2000/svg" xmlns:xlink="http://www.w3.org/1999/xlink" x="0px" y="0px"
	 width="276.538px" height="286.464px" viewBox="0 0 276.538 286.464" enable-background="new 0 0 276.538 286.464"
	 xml:space="preserve">
<g>
	<g>
		<path fill="#FFFFFF" d="M5.75,0.763c90.474,0,180.947,0,271.479,0c0,95.403,0,190.821,0,286.345c-90.454,0-180.966,0-271.479,0
			C5.75,191.688,5.75,96.232,5.75,0.763z M197.031,256.513c-1.274-0.503-2.548-1.441-3.824-1.444
			c-35.861-0.079-71.724-0.053-107.586-0.097c-1.814-0.002-3.757-0.154-5.419-0.804c-4.642-1.812-5.751-5.715-2.596-8.644
			c-2.403-0.571-4.801-0.99-7.103-1.714c-13.357-4.201-23.201-12.973-31.019-24.245c-0.9-1.298-1.536-3.16-1.436-4.706
			c0.578-8.986,1.457-17.952,2.149-26.933c0.79-10.236,1.328-20.495,2.27-30.716c1.587-17.222,3.495-34.415,5.068-51.638
			c0.404-4.42,0.061-8.909,0.061-13.366c-0.886,1.585-1.154,3.238-1.257,4.902c-0.356,5.729-0.435,11.486-1.018,17.191
			c-1.828,17.901-3.982,35.77-5.714,53.679c-0.857,8.865-0.991,17.798-1.602,26.689c-0.311,4.539-1.146,9.045-1.394,13.585
			c-0.28,5.119-1.085,10.372,3.322,14.594c3.709,3.553,6.937,7.604,10.622,11.184c5.819,5.651,12.783,9.477,20.53,11.836
			c3.014,0.917,3.043,0.822,2.583,4.031c-3.99-3.924-10.488-3.419-13.291,1.23c-0.763,1.266-0.516,3.097-1.02,4.569
			c-1.041,3.043,0.242,5.526,2.303,7.239c2.052,1.705,4.598,2.484,7.522,0.947c3.866-2.033,7.323-4.217,8.095-8.692
			c2.25,0.443,4.27,1.188,6.291,1.19c37.861,0.057,75.723,0.024,113.583,0.011c0.024,2.244,1.104,1.71,2.354,0.926
			c1.536-0.966,3.11-1.871,4.74-2.847c1.079,9.218,4.534,12.311,11.99,10.934c4.325-0.799,7.402-6.104,6.156-10.617
			c-1.469-5.319-7.619-7.279-14.792-4.588c0.083-3.837,0.583-7.055,4.764-8.853c4.029-1.732,8.184-3.663,11.505-6.438
			c4.949-4.133,8.713-9.371,12.008-15.068c3.178-5.496,4.235-11.072,3.636-17.133c-1.029-10.414-2.446-20.795-3.254-31.224
			c-1.31-16.909-2.153-33.854-3.395-50.77c-0.968-13.183-2.249-26.342-3.376-39.513c-1.063-12.425-2.041-24.859-3.179-37.277
			c-0.99-10.806-4.29-20.458-13.455-27.371c-6.535-4.93-13.108-9.103-21.798-9.08c-33.375,0.087-66.75-0.094-100.125-0.081
			c-4.103,0.002-8.449-0.175-12.242,1.07c-4.085,1.343-7.653,4.262-11.444,6.496c-2.656,1.801-6.168,3.038-7.803,5.514
			c-4.396,6.659-9.081,13.334-9.384,21.892c-0.18,5.089-1.076,10.149-1.357,15.238c-0.236,4.272-0.048,8.568-0.048,12.853
			c0.82-1.141,1.137-2.322,1.228-3.521c0.593-7.83,0.841-15.699,1.775-23.487c1.047-8.726,3.777-16.868,10.492-23.144
			c1.794-1.677,3.354-3.604,5.022-5.416c1.103-0.35,2.262-0.581,3.296-1.073c3.311-1.572,6.576-3.243,9.858-4.875
			c-0.666,3.121-1.527,5.571-2.831,7.757c-4.226,7.091-8.646,13.97-11.591,21.849c-3.958,10.588-7.851,21.02-9.848,32.279
			c-2.544,14.345-1.63,28.296,2.199,42.089c1.328,4.784,4.528,9.02,6.553,13.646c3.556,8.123,9.521,14.444,15.714,20.38
			c9.119,8.741,19.79,15.387,31.44,20.37c2.945,1.26,4.115,3.002,3.715,6.594c-1.383,12.417-2.261,24.891-3.299,37.346
			c-0.112,1.345-0.015,2.708-0.015,4.662c-2.583,0-4.921,0.103-7.246-0.021c-5.162-0.277-9.97,0.33-14.693,2.942
			c-7.912,4.377-15.106,9.286-19.13,17.762c-1.283,2.704,0.203,6.503,3.159,7.099c3.639,0.732,7.353,1.526,11.038,1.539
			c34.868,0.114,69.737,0.082,104.606,0.038c2.472-0.003,4.943-0.427,7.416-0.65c3.025-0.273,6.052-0.542,9.076-0.812
			C206.969,250.678,204.985,253.219,197.031,256.513z M260.874,252.366c-0.288-1.431-0.551-2.892-0.88-4.338
			c-0.564-2.473-2.518-3.772-4.641-3.316c-1.605,0.345-3.799,1.975-4.125,3.401c-0.637,2.776-0.617,5.93,0.074,8.69
			c0.346,1.38,2.775,3.104,4.251,3.094c1.483-0.01,3.264-1.747,4.328-3.167C260.687,255.659,260.567,253.896,260.874,252.366z
			 M49.754,252.419c-2.663,4.004-4.882,7.342-7.347,11.05c2.675,0.444,4.368,0.591,5.969,1.053c0.693,0.2,1.198,1.052,1.788,1.607
			c0.677-1.185,2.024-2.442,1.903-3.538C51.737,259.613,50.785,256.704,49.754,252.419z M245.291,244.339
			c-2.011,1.765-3.714,3.259-5.417,4.753c0.089,0.161,0.179,0.322,0.267,0.482c1.043-0.384,2.085-0.77,3.565-1.316
			c0,4.196,0,7.99,0,11.947C245.976,259.081,246.548,252.353,245.291,244.339z M38.064,266.237
			c2.393-0.973,2.969-6.465,1.572-13.173c-1.749,1.595-3.265,2.977-4.781,4.359c0.172,0.233,0.343,0.468,0.515,0.701
			c0.806-0.248,1.612-0.496,2.694-0.83C38.064,260.37,38.064,263.071,38.064,266.237z"/>
		<path fill-rule="evenodd" clip-rule="evenodd" d="M67.243,14.957c3.793-2.23,7.361-5.149,11.447-6.492
			c3.793-1.246,8.139-1.068,12.242-1.07c33.375-0.013,66.75,0.168,100.125,0.081c8.689-0.022,15.263,4.15,21.798,9.08
			c9.165,6.913,12.465,16.565,13.455,27.371c1.138,12.418,2.115,24.852,3.179,37.277c1.127,13.171,2.408,26.331,3.376,39.513
			c1.241,16.915,2.085,33.86,3.395,50.77c0.808,10.429,2.225,20.81,3.254,31.224c0.6,6.061-0.458,11.637-3.636,17.133
			c-3.295,5.697-7.059,10.936-12.008,15.068c-3.321,2.774-7.476,4.705-11.505,6.438c-4.181,1.798-4.681,5.016-4.764,8.853
			c7.173-2.691,13.323-0.731,14.792,4.588c1.246,4.513-1.831,9.818-6.156,10.617c-7.456,1.377-10.911-1.716-11.99-10.934
			c-1.63,0.976-3.204,1.881-4.74,2.847c-1.25,0.784-2.329,1.318-2.354-0.926l-0.118,0.117c7.95-3.292,9.934-5.833,9.554-12.701
			c-3.024,0.271-6.051,0.539-9.076,0.812c-2.473,0.224-4.944,0.647-7.416,0.65c-34.869,0.044-69.738,0.076-104.606-0.038
			c-3.685-0.013-7.398-0.807-11.038-1.539c-2.956-0.596-4.442-4.395-3.159-7.099c4.024-8.476,11.218-13.385,19.13-17.762
			c4.724-2.612,9.531-3.22,14.693-2.942c2.325,0.124,4.663,0.021,7.246,0.021c0-1.954-0.097-3.317,0.015-4.662
			c1.038-12.455,1.916-24.929,3.299-37.346c0.4-3.592-0.77-5.334-3.715-6.594c-11.65-4.983-22.321-11.629-31.44-20.37
			c-6.194-5.936-12.158-12.258-15.714-20.38c-2.025-4.625-5.225-8.861-6.553-13.646c-3.829-13.793-4.743-27.744-2.199-42.089
			c1.997-11.259,5.89-21.691,9.848-32.279c2.945-7.878,7.365-14.757,11.591-21.849c1.303-2.186,2.165-4.636,2.831-7.757
			c-3.283,1.632-6.547,3.303-9.858,4.875c-1.035,0.492-2.194,0.723-3.296,1.073L67.243,14.957z M195.069,8.282
			c3.233,6.558,5.913,12.007,8.618,17.444c0.218,0.437,0.688,0.747,0.908,1.183c2.781,5.49,6.254,10.759,8.145,16.543
			c3.423,10.477,6.615,21.136,8.531,31.962c1.412,7.979,2.013,16.604,0.521,24.477c-2.317,12.23-6.895,23.767-14.63,34.172
			c-7.667,10.312-17.156,18.21-27.423,25.393c-4.312,3.019-9.311,5.092-14.099,7.385c-3.508,1.681-5.145,3.812-4.662,8.068
			c1.306,11.518,2.267,23.08,3.056,34.646c0.426,6.236,0.177,5.863,6.532,6.455c9.436,0.877,18.719,2.575,25.646,10.096
			c0.881,0.956,2.289,1.405,3.271,2.292c1.124,1.016,2.124,2.198,3.037,3.413c2.126,2.828,4.118,5.759,6.299,8.542
			c0.31,0.395,1.569,0.524,2.055,0.228c4.573-2.798,11.006-2.922,13.214-9.212c0.324-0.925,1.477-1.755,2.442-2.222
			c3.103-1.496,4.767-4.003,6.22-7.043c2.873-6.012,5.301-12.076,4.745-18.875c-0.546-6.689-1.421-13.352-1.938-20.042
			c-1.382-17.904-2.643-35.819-3.965-53.728c-0.836-11.312-1.604-22.628-2.569-33.929c-1.05-12.282-2.242-24.552-3.469-36.818
			c-0.867-8.67-1.842-17.33-2.901-25.978c-0.173-1.411-0.71-3.027-1.631-4.053c-4.083-4.546-7.048-10.176-12.771-13.162
			C204.068,13.338,199.975,10.985,195.069,8.282z M85.037,8.453c1.879,4.376,3.268,8.036,5.001,11.524
			c1.643,3.306,3.917,6.309,5.44,9.66c3.931,8.645,7.406,17.5,11.426,26.101c4.289,9.176,8.917,18.198,13.576,27.194
			c1.088,2.102,1.615,4.973,5.175,4.913c8.497-0.146,17.001,0.052,25.497-0.15c1.257-0.03,3.029-1.191,3.628-2.323
			c3.524-6.664,6.802-13.459,10.104-20.239c5.141-10.557,10.229-21.138,15.349-31.706c2.79-5.76,5.606-11.507,8.394-17.269
			c1.173-2.426,2.299-4.873,3.632-7.706C156.139,8.453,120.972,8.453,85.037,8.453z M137.838,167.035
			c7.47-1.161,15.201,1.828,22.594-1.877c4.004-2.008,8.868-2.377,12.734-4.562c4.911-2.777,9.248-6.589,13.711-10.109
			c0.643-0.507,1.144-2.175,0.798-2.8c-4.6-8.31-9.238-16.604-14.122-24.749c-4.496-7.501-9.315-14.807-13.959-22.221
			c-1.636-2.611-3.383-5.186-4.684-7.963c-1.007-2.149-2.305-2.838-4.609-2.812c-8.244,0.094-16.491-0.042-24.737-0.006
			c-1.044,0.005-2.53,0.169-3.053,0.846c-2.264,2.928-4.432,5.966-6.293,9.162c-4.211,7.236-8.046,14.694-12.357,21.868
			c-5.069,8.434-10.504,16.647-15.727,24.99c-1.283,2.05-0.913,3.644,1.453,4.842c2.411,1.222,4.757,2.649,6.92,4.27
			c9.932,7.436,20.754,12.037,33.46,11.148C132.579,166.879,135.214,167.035,137.838,167.035z M205.538,242.449
			c-3.127-3.749-5.922-6.503-8.002-9.719c-4.312-6.667-10.886-9.973-17.983-12.093c-4.538-1.354-9.501-1.311-14.282-1.812
			c-1.626-0.171-3.229,0.113-3.413-2.351c-0.664-8.87-1.368-17.739-2.267-26.588c-0.569-5.605-2.076-11.169-2.119-16.761
			c-0.041-5.19-2.977-5.11-6.466-5.104c-3.998,0.007-7.996,0.002-11.995,0.003c-5.373,0.002-10.753-0.16-16.113,0.107
			c-1.563,0.078-4.004,1.047-4.413,2.188c-1.048,2.937-1.508,6.186-1.624,9.332c-0.429,11.565-0.626,23.14-0.901,34.712
			c-0.029,1.228-0.004,2.457-0.004,4.272c-2.673,0-5.017,0.085-7.353-0.015c-8.873-0.381-17.083,1.514-23.647,7.774
			c-3.732,3.56-7.497,7.362-10.115,11.733c-2.546,4.25-1.347,5.643,3.807,5.646c39.983,0.018,79.966-0.032,119.947-0.127
			C200.5,243.645,202.404,243.011,205.538,242.449z M83.382,12.671c-1.823,2.483-3.801,4.245-4.607,6.438
			c-3.608,9.821-10.613,18.02-12.917,28.53c-1.472,6.712-5.354,12.946-6.475,19.675c-2.376,14.262-3.618,28.807,1.384,42.805
			c2.385,6.675,5.914,13.011,9.504,19.161c2.412,4.13,5.766,7.731,8.854,11.438c1.257,1.508,2.814,2.85,4.469,3.9
			c0.652,0.413,2.548,0.167,2.85-0.363c3.819-6.712,7.44-13.536,11.147-20.312c0.347-0.634,0.901-1.167,1.409-1.699
			c1.796-1.882,1.754-3.429-0.204-5.399c-6.571-6.611-11.707-14.227-15.047-22.978c-0.75-1.964-1.685-3.93-2.001-5.977
			c-2.428-15.733,2.335-29.281,12.799-41.017c2.083-2.335,3.77-4.612,1.779-7.968c-1.695-2.858-3.045-5.924-4.511-8.916
			C89.076,24.397,86.362,18.793,83.382,12.671z M191.572,146.29c3.946-3.92,7.519-6.84,10.282-10.389
			c2.93-3.763,4.869-8.283,7.635-12.192c5.879-8.309,8.317-17.919,8.988-27.621c0.637-9.205-0.315-18.63-1.586-27.818
			c-0.925-6.692-3.115-13.297-5.446-19.684c-2.667-7.312-5.842-14.475-9.316-21.443c-2.367-4.748-5.629-9.049-8.539-13.627
			c-1.963,3.545-3.646,6.385-5.138,9.323c-2.605,5.131-5.146,10.298-7.603,15.503c-0.961,2.034-2.52,4.053-0.215,6.414
			c1.779,1.821,3.261,3.963,4.707,6.077c4.418,6.462,8.598,12.941,9.239,21.177c0.785,10.083,0.629,19.964-4.49,28.995
			c-3.34,5.893-7.068,11.616-12.43,15.979c-2.25,1.831-2.145,3.3-0.308,5.577c2.461,3.049,4.415,6.526,6.419,9.919
			C186.385,136.901,188.833,141.42,191.572,146.29z M102.684,117.852c1.544-2.312,2.499-3.58,3.282-4.944
			c3.81-6.633,7.286-13.481,11.477-19.862c2.055-3.13,3.296-5.362,0.129-8.327c-0.902-0.844-1.13-2.416-1.65-3.661
			c-0.948-2.268-1.817-4.57-2.835-6.806c-2.445-5.371-4.876-10.75-7.471-16.05c-1.685-3.439-3.567-6.794-5.585-10.047
			c-0.262-0.422-2.192-0.4-2.8,0.092c-1.95,1.581-3.899,3.293-5.367,5.306c-1.681,2.305-3.022,4.908-4.177,7.528
			c-0.918,2.086-1.322,4.397-1.975,6.603c-0.898,3.034-2.438,6.029-2.603,9.1c-0.411,7.669,3.076,14.678,4.65,22.023
			c0.433,2.019,1.832,3.975,3.195,5.624C94.56,108.792,98.388,112.969,102.684,117.852z M193.379,78.591
			c-0.824-5.291-0.654-10.029-2.39-13.919c-2.369-5.313-6.177-9.987-9.398-14.917c-0.402-0.616-0.913-1.215-1.504-1.644
			c-1.727-1.253-3.324-1.873-4.199,0.982c-0.654,2.133-1.333,4.292-2.314,6.284c-5.235,10.62-10.616,21.168-15.79,31.818
			c-0.463,0.953-0.145,2.626,0.394,3.665c2.036,3.933,4.241,7.785,6.519,11.585c2.354,3.926,4.788,7.808,7.344,11.604
			c1.087,1.615,2.396,2.046,4.355,0.566c3.464-2.615,6.957-4.76,8.34-9.49c1.033-3.531,4.31-6.401,5.364-9.931
			C191.771,89.601,192.42,83.702,193.379,78.591z"/>
		<path fill-rule="evenodd" clip-rule="evenodd" d="M197.153,256.394c-37.86,0.014-75.722,0.046-113.583-0.011
			c-2.021-0.003-4.041-0.747-6.291-1.19c-0.772,4.476-4.229,6.659-8.095,8.692c-2.924,1.537-5.47,0.758-7.522-0.947
			c-2.061-1.713-3.343-4.196-2.303-7.239c0.504-1.473,0.257-3.304,1.02-4.569c2.803-4.649,9.301-5.154,13.291-1.23
			c0.459-3.209,0.43-3.114-2.583-4.031c-7.747-2.359-14.711-6.185-20.53-11.836c-3.686-3.579-6.913-7.631-10.622-11.184
			c-4.407-4.222-3.602-9.475-3.322-14.594c0.248-4.54,1.083-9.046,1.394-13.585c0.611-8.892,0.744-17.824,1.602-26.689
			c1.732-17.909,3.886-35.778,5.714-53.679c0.583-5.706,0.661-11.462,1.018-17.191c0.104-1.664,0.371-3.317,1.257-4.902
			c0,4.457,0.343,8.945-0.061,13.366c-1.573,17.224-3.48,34.416-5.068,51.638c-0.942,10.221-1.479,20.479-2.27,30.716
			c-0.693,8.98-1.571,17.946-2.149,26.933c-0.1,1.546,0.536,3.408,1.436,4.706c7.818,11.272,17.661,20.044,31.019,24.245
			c2.301,0.724,4.699,1.143,7.103,1.714c-3.155,2.929-2.046,6.831,2.596,8.644c1.662,0.649,3.604,0.802,5.419,0.804
			c35.862,0.044,71.725,0.018,107.586,0.097c1.276,0.003,2.55,0.941,3.826,1.442C197.035,256.511,197.153,256.394,197.153,256.394z"
			/>
		<path fill-rule="evenodd" clip-rule="evenodd" d="M67.171,14.891c-1.667,1.812-3.228,3.738-5.022,5.416
			c-6.715,6.275-9.445,14.418-10.492,23.144c-0.935,7.788-1.183,15.657-1.775,23.487c-0.091,1.199-0.407,2.38-1.228,3.521
			c0-4.285-0.188-8.58,0.048-12.853c0.281-5.089,1.177-10.149,1.357-15.238c0.304-8.557,4.989-15.233,9.384-21.892
			c1.635-2.476,5.146-3.713,7.801-5.517C67.243,14.957,67.171,14.891,67.171,14.891z"/>
		<path fill-rule="evenodd" clip-rule="evenodd" d="M260.874,252.366c-0.307,1.529-0.188,3.293-0.992,4.364
			c-1.064,1.42-2.845,3.157-4.328,3.167c-1.476,0.01-3.905-1.714-4.251-3.094c-0.691-2.761-0.711-5.914-0.074-8.69
			c0.326-1.427,2.52-3.057,4.125-3.401c2.123-0.456,4.076,0.844,4.641,3.316C260.323,249.475,260.586,250.936,260.874,252.366z
			 M258.476,252.135c0.018,0,0.034,0,0.052,0c0-0.745,0.029-1.492-0.006-2.236c-0.095-2.025-1.03-3.66-3.162-3.065
			c-1.14,0.319-2.389,1.889-2.705,3.12c-0.448,1.744-0.387,3.775,0.062,5.528c0.254,0.995,1.791,2.412,2.615,2.328
			c1.116-0.115,2.405-1.308,3.047-2.381C258.87,254.604,258.476,253.252,258.476,252.135z"/>
		<path fill-rule="evenodd" clip-rule="evenodd" d="M49.754,252.419c1.03,4.285,1.982,7.194,2.313,10.172
			c0.122,1.096-1.226,2.354-1.903,3.538c-0.59-0.556-1.095-1.407-1.788-1.607c-1.602-0.462-3.294-0.608-5.969-1.053
			C44.873,259.761,47.092,256.423,49.754,252.419z"/>
		<path fill-rule="evenodd" clip-rule="evenodd" d="M245.291,244.339c1.257,8.014,0.685,14.742-1.585,15.866
			c0-3.957,0-7.751,0-11.947c-1.48,0.547-2.522,0.933-3.565,1.316c-0.088-0.16-0.178-0.321-0.267-0.482
			C241.577,247.598,243.28,246.104,245.291,244.339z"/>
		<path fill-rule="evenodd" clip-rule="evenodd" d="M38.064,266.237c0-3.166,0-5.867,0-8.942c-1.083,0.334-1.889,0.582-2.694,0.83
			c-0.171-0.233-0.343-0.468-0.515-0.701c1.516-1.383,3.032-2.765,4.781-4.359C41.033,259.772,40.457,265.265,38.064,266.237z"/>
		<path fill-rule="evenodd" clip-rule="evenodd" fill="#FFFFFF" d="M195.069,8.282c4.905,2.703,8.999,5.056,13.182,7.238
			c5.724,2.986,8.688,8.616,12.771,13.162c0.921,1.026,1.458,2.642,1.631,4.053c1.06,8.648,2.034,17.308,2.901,25.978
			c1.227,12.266,2.419,24.536,3.469,36.818c0.966,11.3,1.733,22.617,2.569,33.929c1.322,17.909,2.583,35.824,3.965,53.728
			c0.517,6.69,1.392,13.353,1.938,20.042c0.556,6.799-1.872,12.863-4.745,18.875c-1.453,3.04-3.117,5.547-6.22,7.043
			c-0.966,0.467-2.118,1.297-2.442,2.222c-2.208,6.29-8.641,6.414-13.214,9.212c-0.485,0.297-1.745,0.167-2.055-0.228
			c-2.181-2.783-4.173-5.714-6.299-8.542c-0.913-1.215-1.913-2.397-3.037-3.413c-0.981-0.887-2.39-1.336-3.271-2.292
			c-6.928-7.521-16.211-9.219-25.646-10.096c-6.355-0.592-6.106-0.219-6.532-6.455c-0.789-11.566-1.75-23.129-3.056-34.646
			c-0.482-4.256,1.154-6.388,4.662-8.068c4.788-2.293,9.786-4.366,14.099-7.385c10.267-7.183,19.756-15.08,27.423-25.393
			c7.735-10.405,12.312-21.941,14.63-34.172c1.492-7.873,0.892-16.498-0.521-24.477c-1.916-10.826-5.108-21.485-8.531-31.962
			c-1.891-5.785-5.363-11.053-8.145-16.543c-0.221-0.436-0.69-0.746-0.908-1.183C200.982,20.289,198.303,14.84,195.069,8.282z
			 M177.455,189.893c1.225-0.43,2.379-0.638,2.383-0.865c0.101-5.698,0.078-11.398,0.078-17.931
			c-3.104,2.521-5.411,4.394-7.717,6.266c0.21,0.338,0.421,0.675,0.631,1.012c1.344-0.509,2.688-1.017,4.625-1.749
			C177.455,181.171,177.455,185.303,177.455,189.893z M193.943,172.035c-0.393-0.179-0.786-0.355-1.179-0.533
			c-2.22,1.951-4.438,3.902-6.657,5.854c0.24,0.302,0.481,0.605,0.723,0.908c1.358-0.531,2.718-1.062,4.663-1.824
			c0,4.274-0.063,7.85,0.063,11.418c0.021,0.593,0.878,1.156,1.349,1.733c0.347-0.573,0.984-1.144,0.992-1.721
			C193.976,182.592,193.943,177.313,193.943,172.035z"/>
		<path fill-rule="evenodd" clip-rule="evenodd" fill="#FFFFFF" d="M85.037,8.453c35.935,0,71.102,0,107.22,0
			c-1.333,2.833-2.459,5.28-3.632,7.706c-2.787,5.762-5.604,11.509-8.394,17.269c-5.119,10.567-10.208,21.149-15.349,31.706
			c-3.302,6.78-6.579,13.575-10.104,20.239c-0.599,1.132-2.371,2.293-3.628,2.323c-8.495,0.202-17,0.004-25.497,0.15
			c-3.561,0.061-4.087-2.811-5.175-4.913c-4.659-8.997-9.287-18.019-13.576-27.194c-4.02-8.602-7.495-17.456-11.426-26.101
			c-1.523-3.351-3.798-6.354-5.44-9.66C88.304,16.488,86.916,12.829,85.037,8.453z"/>
		<path fill-rule="evenodd" clip-rule="evenodd" fill="#FFFFFF" d="M137.838,167.035c-2.624,0-5.259-0.156-7.871,0.026
			c-12.706,0.889-23.528-3.713-33.46-11.148c-2.163-1.62-4.509-3.048-6.92-4.27c-2.366-1.198-2.736-2.792-1.453-4.842
			c5.222-8.343,10.658-16.556,15.727-24.99c4.312-7.173,8.146-14.631,12.357-21.868c1.861-3.196,4.029-6.234,6.293-9.162
			c0.523-0.677,2.009-0.841,3.053-0.846c8.246-0.035,16.493,0.1,24.737,0.006c2.305-0.026,3.603,0.663,4.609,2.812
			c1.301,2.777,3.048,5.352,4.684,7.963c4.644,7.414,9.463,14.72,13.959,22.221c4.884,8.145,9.522,16.438,14.122,24.749
			c0.346,0.625-0.155,2.293-0.798,2.8c-4.463,3.521-8.8,7.332-13.711,10.109c-3.866,2.186-8.73,2.555-12.734,4.562
			C153.039,168.863,145.309,165.874,137.838,167.035z M138.653,113.245c1.482-1.071,2.329-1.49,2.914-2.143
			c1.802-2.007,3.803-2.438,5.865-0.64c2.223,1.937,1.007,3.943-0.521,5.496c-1.985,2.018-4.291,3.715-6.385,5.631
			c-0.883,0.808-1.579,1.821-2.36,2.74c0.183,0.303,0.367,0.604,0.55,0.906c4.174-0.071,8.38,0.388,12.523-0.216
			c0.004-0.553,0.009-1.106,0.013-1.659c-2.685-0.176-5.369-0.352-8.673-0.569c2.576-2.265,4.696-4.088,6.769-5.963
			c2.087-1.89,2.662-4.306,1.509-6.784c-1.607-3.452-4.921-2.954-7.855-2.646C140.433,107.668,138.763,109.175,138.653,113.245z
			 M128.922,112.12c0,4.105-0.061,7.56,0.051,11.009c0.022,0.686,0.706,1.351,1.085,2.025c0.548-0.384,1.567-0.759,1.575-1.153
			c0.105-5.487,0.071-10.978,0.071-16.467c-0.349-0.102-0.697-0.202-1.046-0.303c-2.158,1.871-4.315,3.742-6.473,5.614
			c0.251,0.312,0.503,0.625,0.755,0.938C125.993,113.344,127.045,112.904,128.922,112.12z"/>
		<path fill-rule="evenodd" clip-rule="evenodd" fill="#FFFFFF" d="M205.538,242.449c-3.134,0.562-5.038,1.195-6.943,1.2
			c-39.981,0.095-79.964,0.145-119.947,0.127c-5.154-0.003-6.353-1.396-3.807-5.646c2.618-4.371,6.382-8.174,10.115-11.733
			c6.564-6.261,14.774-8.155,23.647-7.774c2.336,0.1,4.68,0.015,7.353,0.015c0-1.815-0.025-3.045,0.004-4.272
			c0.275-11.572,0.472-23.146,0.901-34.712c0.116-3.146,0.576-6.396,1.624-9.332c0.408-1.142,2.849-2.11,4.413-2.188
			c5.359-0.268,10.74-0.105,16.113-0.107c3.999-0.001,7.997,0.004,11.995-0.003c3.489-0.006,6.425-0.086,6.466,5.104
			c0.043,5.592,1.55,11.155,2.119,16.761c0.898,8.849,1.603,17.718,2.267,26.588c0.185,2.464,1.787,2.18,3.413,2.351
			c4.781,0.501,9.744,0.457,14.282,1.812c7.098,2.12,13.671,5.426,17.983,12.093C199.616,235.946,202.411,238.7,205.538,242.449z
			 M139.217,203.067c0.339,3.896,2.696,5.52,5.506,5.177c2.198-0.269,4.926-1.498,6.15-3.208c1.875-2.618,0.546-5.38-1.273-6.463
			c0.33-2.383,1.328-4.743,0.621-5.488c-1.468-1.55-3.765-2.875-5.858-3.12c-2.364-0.276-4.81,0.822-5.626,5.005
			c1.93-1.13,3.03-2.212,4.251-2.37c1.341-0.174,3.342,0.041,4.072,0.91c1.231,1.469,0.509,3.007-1.554,3.623
			c-0.817,0.244-1.554,0.767-3.009,1.512c1.248,0.514,1.689,0.635,2.068,0.861c1.468,0.877,3.117,1.604,4.224,2.82
			c0.265,0.29-1.171,3.107-2.067,3.251c-1.494,0.241-3.203-0.683-4.785-1.224C140.994,204.031,140.122,203.503,139.217,203.067z
			 M124.199,195.484c0.125,0.228,0.251,0.456,0.376,0.685c1.396-0.124,2.791-0.249,4.338-0.387c0,3.815-0.063,7.177,0.054,10.53
			c0.023,0.67,0.734,1.317,1.128,1.975c0.546-0.396,1.56-0.783,1.567-1.188c0.104-5.626,0.07-11.253,0.07-17.802
			C128.65,191.828,126.425,193.656,124.199,195.484z"/>
		<path fill-rule="evenodd" clip-rule="evenodd" fill="#FFFFFF" d="M83.382,12.671c2.979,6.122,5.693,11.726,8.434,17.317
			c1.466,2.992,2.816,6.057,4.511,8.916c1.991,3.356,0.304,5.633-1.779,7.968C84.084,58.608,79.321,72.156,81.749,87.889
			c0.316,2.047,1.251,4.012,2.001,5.977c3.34,8.75,8.476,16.366,15.047,22.978c1.958,1.97,2,3.518,0.204,5.399
			c-0.508,0.533-1.062,1.065-1.409,1.699c-3.707,6.776-7.328,13.6-11.147,20.312c-0.302,0.53-2.198,0.776-2.85,0.363
			c-1.655-1.05-3.212-2.392-4.469-3.9c-3.089-3.707-6.442-7.308-8.854-11.438c-3.591-6.15-7.119-12.486-9.504-19.161
			c-5.002-13.998-3.76-28.542-1.384-42.805c1.121-6.729,5.002-12.963,6.475-19.675c2.305-10.51,9.309-18.708,12.917-28.53
			C79.581,16.916,81.56,15.155,83.382,12.671z"/>
		<path fill-rule="evenodd" clip-rule="evenodd" fill="#FFFFFF" d="M191.572,146.29c-2.739-4.87-5.188-9.389-7.8-13.811
			c-2.004-3.393-3.958-6.87-6.419-9.919c-1.837-2.277-1.942-3.747,0.308-5.577c5.361-4.363,9.09-10.086,12.43-15.979
			c5.119-9.031,5.275-18.913,4.49-28.995c-0.642-8.236-4.821-14.715-9.239-21.177c-1.446-2.114-2.928-4.256-4.707-6.077
			c-2.305-2.36-0.746-4.38,0.215-6.414c2.456-5.205,4.997-10.372,7.603-15.503c1.491-2.938,3.175-5.778,5.138-9.323
			c2.91,4.578,6.172,8.88,8.539,13.627c3.475,6.968,6.649,14.132,9.316,21.443c2.331,6.387,4.521,12.992,5.446,19.684
			c1.271,9.188,2.223,18.613,1.586,27.818c-0.671,9.701-3.109,19.312-8.988,27.621c-2.766,3.91-4.705,8.429-7.635,12.192
			C199.091,139.45,195.519,142.37,191.572,146.29z"/>
		<path fill-rule="evenodd" clip-rule="evenodd" fill="#FFFFFF" d="M102.684,117.852c-4.296-4.882-8.125-9.06-11.73-13.421
			c-1.363-1.648-2.762-3.604-3.195-5.624c-1.575-7.346-5.062-14.354-4.65-22.023c0.165-3.07,1.705-6.066,2.603-9.1
			c0.653-2.206,1.056-4.517,1.975-6.603c1.154-2.621,2.496-5.224,4.177-7.528c1.467-2.012,3.417-3.725,5.367-5.306
			c0.608-0.493,2.539-0.514,2.8-0.092c2.019,3.253,3.9,6.607,5.585,10.047c2.595,5.299,5.026,10.679,7.471,16.05
			c1.018,2.236,1.888,4.538,2.835,6.806c0.52,1.246,0.748,2.817,1.65,3.661c3.167,2.965,1.926,5.197-0.129,8.327
			c-4.191,6.381-7.667,13.229-11.477,19.862C105.183,114.272,104.228,115.539,102.684,117.852z"/>
		<path fill-rule="evenodd" clip-rule="evenodd" fill="#FFFFFF" d="M193.379,78.591c-0.959,5.111-1.608,11.01-3.28,16.604
			c-1.055,3.53-4.331,6.4-5.364,9.931c-1.383,4.73-4.876,6.875-8.34,9.49c-1.959,1.48-3.269,1.048-4.355-0.566
			c-2.556-3.795-4.99-7.678-7.344-11.604c-2.277-3.8-4.482-7.652-6.519-11.585c-0.538-1.039-0.856-2.712-0.394-3.665
			c5.174-10.65,10.555-21.198,15.79-31.818c0.981-1.992,1.66-4.151,2.314-6.284c0.875-2.854,2.473-2.235,4.199-0.982
			c0.591,0.429,1.102,1.027,1.504,1.644c3.222,4.929,7.029,9.604,9.398,14.917C192.725,68.562,192.555,73.3,193.379,78.591z"/>
		<path fill-rule="evenodd" clip-rule="evenodd" fill="#FFFFFF" d="M258.476,252.135c0,1.117,0.395,2.47-0.098,3.294
			c-0.642,1.073-1.931,2.266-3.047,2.381c-0.824,0.084-2.361-1.333-2.615-2.328c-0.448-1.753-0.51-3.784-0.062-5.528
			c0.316-1.231,1.565-2.801,2.705-3.12c2.132-0.595,3.067,1.04,3.162,3.065c0.035,0.744,0.006,1.491,0.006,2.236
			C258.51,252.135,258.493,252.135,258.476,252.135z"/>
		<path fill-rule="evenodd" clip-rule="evenodd" d="M177.455,189.893c0-4.59,0-8.722,0-13.268c-1.938,0.732-3.281,1.24-4.625,1.749
			c-0.21-0.337-0.421-0.674-0.631-1.012c2.306-1.872,4.612-3.744,7.717-6.266c0,6.532,0.022,12.232-0.078,17.931
			C179.834,189.255,178.68,189.463,177.455,189.893z"/>
		<path fill-rule="evenodd" clip-rule="evenodd" d="M193.943,172.035c0,5.278,0.032,10.557-0.046,15.835
			c-0.008,0.577-0.646,1.147-0.992,1.721c-0.471-0.577-1.327-1.141-1.349-1.733c-0.127-3.568-0.063-7.144-0.063-11.418
			c-1.945,0.762-3.305,1.293-4.663,1.824c-0.241-0.303-0.482-0.606-0.723-0.908c2.219-1.951,4.438-3.902,6.657-5.854
			C193.157,171.68,193.551,171.856,193.943,172.035z"/>
		<path fill-rule="evenodd" clip-rule="evenodd" d="M138.653,113.245c0.109-4.07,1.779-5.577,4.348-5.848
			c2.935-0.309,6.248-0.807,7.855,2.646c1.153,2.478,0.578,4.894-1.509,6.784c-2.072,1.875-4.192,3.698-6.769,5.963
			c3.304,0.217,5.988,0.393,8.673,0.569c-0.004,0.553-0.009,1.106-0.013,1.659c-4.143,0.604-8.349,0.146-12.523,0.216
			c-0.183-0.301-0.367-0.603-0.55-0.906c0.781-0.919,1.477-1.932,2.36-2.74c2.094-1.916,4.399-3.613,6.385-5.631
			c1.528-1.553,2.744-3.559,0.521-5.496c-2.062-1.798-4.063-1.367-5.865,0.64C140.982,111.755,140.136,112.174,138.653,113.245z"/>
		<path fill-rule="evenodd" clip-rule="evenodd" d="M128.922,112.12c-1.877,0.785-2.93,1.224-3.983,1.664
			c-0.251-0.313-0.503-0.625-0.755-0.938c2.158-1.872,4.315-3.743,6.473-5.614c0.349,0.101,0.698,0.201,1.046,0.303
			c0,5.489,0.034,10.979-0.071,16.467c-0.008,0.394-1.026,0.769-1.575,1.153c-0.379-0.674-1.063-1.339-1.085-2.025
			C128.861,119.68,128.922,116.225,128.922,112.12z"/>
		<path fill-rule="evenodd" clip-rule="evenodd" d="M139.217,203.067c0.904,0.436,1.777,0.964,2.72,1.286
			c1.582,0.541,3.291,1.465,4.785,1.224c0.896-0.144,2.332-2.961,2.067-3.251c-1.106-1.216-2.756-1.943-4.224-2.82
			c-0.379-0.227-0.82-0.348-2.068-0.861c1.455-0.745,2.191-1.268,3.009-1.512c2.062-0.616,2.785-2.154,1.554-3.623
			c-0.73-0.869-2.731-1.084-4.072-0.91c-1.221,0.158-2.321,1.24-4.251,2.37c0.816-4.183,3.262-5.281,5.626-5.005
			c2.094,0.245,4.391,1.57,5.858,3.12c0.707,0.745-0.291,3.105-0.621,5.488c1.819,1.083,3.148,3.845,1.273,6.463
			c-1.225,1.71-3.952,2.939-6.15,3.208C141.913,208.587,139.557,206.964,139.217,203.067z"/>
		<path fill-rule="evenodd" clip-rule="evenodd" d="M124.199,195.484c2.226-1.828,4.451-3.656,7.534-6.188
			c0,6.549,0.034,12.176-0.07,17.802c-0.007,0.405-1.021,0.792-1.567,1.188c-0.394-0.657-1.105-1.305-1.128-1.975
			c-0.117-3.354-0.054-6.715-0.054-10.53c-1.548,0.138-2.943,0.263-4.338,0.387C124.451,195.94,124.325,195.712,124.199,195.484z"/>
	</g>
</g>
</svg>
