<?xml version="1.0" encoding="utf-8"?>
<!-- Generator: Adobe Illustrator 16.0.4, SVG Export Plug-In . SVG Version: 6.00 Build 0)  -->
<!DOCTYPE svg PUBLIC "-//W3C//DTD SVG 1.1//EN" "http://www.w3.org/Graphics/SVG/1.1/DTD/svg11.dtd">
<svg version="1.1" id="Layer_1" xmlns="http://www.w3.org/2000/svg" xmlns:xlink="http://www.w3.org/1999/xlink" x="0px" y="0px"
	 width="342px" height="225.417px" viewBox="157.5 280.083 342 225.417" enable-background="new 157.5 280.083 342 225.417"
	 xml:space="preserve">
<g>
	<g>
		<path fill="#FFFFFF" d="M311.768,491.082c-49.681,0-99.361,0-149.117,0c0-70.268,0-140.567,0-210.999c49.656,0,99.387,0,149.117,0
			C311.768,350.348,311.768,420.697,311.768,491.082z M241.605,412.757c0,1.076-0.251,1.938,0.039,2.202
			c2.733,2.48,5.446,5.007,8.381,7.235c5.214,3.96,10.627,7.656,15.857,11.597c2.375,1.788,5.472,3.465,6.574,5.937
			c3.065,6.868,5.392,14.082,7.713,21.256c0.751,2.322-0.163,5.38,0.985,7.341c2.554,4.367,5.594,8.572,9.081,12.229
			c2.469,2.59,5.846,4.468,9.099,6.102c2.024,1.018,4.835,1.84,6.824,1.228c2.873-0.885,4.229-3.48,2.895-6.859
			c-1.285-3.257-2.052-6.725-3.446-9.925c-1.347-3.084-4.569-4.639-5.218-8.817c-0.949-6.125-4.188-11.867-6.152-17.87
			c-1.552-4.742-2.549-9.663-3.999-14.443c-0.759-2.502-1.398-5.382-3.06-7.21c-7.149-7.863-14.626-15.43-22.048-23.043
			c-3.46-3.549-6.706-6.534-5.648-12.701c1.146-6.687,0.254-13.723,0.257-20.605c0.001-1.46-0.287-2.721,1.9-3.37
			c2.712-0.804,5.237-2.359,7.715-3.807c6.726-3.929,13.441-7.88,20.041-12.016c2.673-1.674,5.171-3.24,4.934-7.535
			c-0.512-9.277-0.164-18.602-0.148-27.908c0.001-1.013-0.27-2.587,0.25-2.949c4.567-3.184,3.357-7.913,3.504-12.26
			c0.101-2.945-1.033-5.569-3.812-6.583c-3.632-1.325-6.236,0.162-8.229,3.879c-0.528,0.984-1.03,2.019-1.746,2.859
			c-3.378,3.968-4.48,6.804-1.36,12.01c1.536,2.563,2.246,4.17,1.013,7.579c-2.177,6.018-2.523,12.699-3.587,18.819
			c-6.374,2.046-12.565,4.016-18.742,6.025c-2.862,0.932-5.663,2.58-8.555,2.736c-2.82,0.152-5.72-1.183-9.989-2.199
			c9.714-1.965,9.703-10.219,10.1-16.052c0.432-6.359-2.08-13.675-9.482-16.887c-0.664,0.172-1.699,0.712-2.69,0.643
			c-2.478-0.176-5.143-1.37-7.342-0.757c-2.15,0.599-4.094,2.697-5.643,4.545c-3.873,4.62-3.656,10.32-3.231,15.834
			c0.277,3.603,0.819,7.385,3.69,10.106c1.232,1.168,2.739,2.048,4.251,3.154c-13.226,2.433-24.22-4.399-35.783-6.755
			c-0.747-2.256-1.592-4.237-2.051-6.303c-1.11-4.999-2.113-10.025-2.987-15.07c-0.195-1.125,0.061-2.487,0.543-3.542
			c2.579-5.653,3.387-11.306-0.309-16.711c-1.065-1.558-3.438-3.75-4.567-3.424c-2.508,0.725-5.836,2.412-6.607,4.519
			c-1.407,3.85-3.718,8.28-0.287,12.5c0.28,0.345,0.359,0.945,0.349,1.423c-0.22,10.902-0.506,21.804-0.636,32.707
			c-0.012,0.985,0.7,2.417,1.515,2.9c4.812,2.854,9.724,5.546,14.667,8.171c2.227,1.183,4.725,1.88,6.888,3.157
			c4.503,2.659,8.865,5.556,13.584,8.544c0,6.686-0.269,13.832,0.089,20.947c0.264,5.235,0.011,9.526-4.559,13.458
			c-5.348,4.603-9.425,10.646-14.446,15.67c-4.168,4.173-9.392,7.33-10.318,13.953c-0.307,2.193-1.532,4.258-2.328,6.384
			c-3.443,9.193-6.885,18.387-10.319,27.582c-0.447,1.196-0.73,2.47-1.294,3.604c-2.631,5.297-5.5,10.482-7.94,15.865
			c-1.125,2.48,3.539,7.094,6.074,6.089c6.289-2.488,12.147-5.488,16.088-11.521c2.48-3.797,6.412-6.402,7.129-11.602
			c0.557-4.041,2.718-7.866,4.21-11.771c1.445-3.782,3.552-7.434,4.253-11.342c0.734-4.094,4.195-4.887,6.507-6.978
			c3.728-3.369,7.871-6.278,11.81-9.418c2.875-2.292,5.978-4.389,8.461-7.055c1.774-1.903,3.535-2.909,6.026-2.882
			c1.37,0.016,2.74,0.003,4.263,0.003c-1.061-2.846-3.412-3.048-6.485-0.829c-4.477-5.752-8.994-11.482-13.375-17.314
			c-0.372-0.494,0.162-1.669,0.184-1.836c2.042,0.655,3.563,1.609,5.033,1.538c10.164-0.498,20.515,1.908,30.439-2.423
			c0.202,0.318,0.403,0.637,0.605,0.956c-4.408,6.344-8.817,12.69-13.279,19.113C243.112,414.052,242.531,413.553,241.605,412.757z"
			/>
		<path d="M241.605,412.757c0.926,0.796,1.507,1.295,2.123,1.824c4.462-6.423,8.871-12.769,13.279-19.113
			c-0.202-0.318-0.403-0.637-0.605-0.956c-9.924,4.332-20.275,1.926-30.439,2.423c-1.47,0.071-2.991-0.882-5.033-1.538
			c-0.022,0.167-0.556,1.342-0.184,1.836c4.381,5.832,8.898,11.562,13.375,17.314c3.073-2.219,5.424-2.017,6.485,0.829
			c-1.523,0-2.894,0.013-4.263-0.003c-2.491-0.027-4.252,0.979-6.026,2.882c-2.484,2.666-5.586,4.762-8.461,7.054
			c-3.939,3.141-8.082,6.05-11.81,9.418c-2.312,2.092-5.773,2.885-6.507,6.979c-0.702,3.908-2.809,7.56-4.253,11.342
			c-1.492,3.904-3.653,7.729-4.21,11.771c-0.717,5.197-4.649,7.805-7.129,11.602c-3.94,6.033-9.799,9.033-16.088,11.521
			c-2.535,1.005-7.2-3.607-6.074-6.09c2.44-5.382,5.309-10.567,7.94-15.864c0.564-1.136,0.848-2.407,1.294-3.604
			c3.435-9.195,6.876-18.389,10.319-27.582c0.796-2.126,2.021-4.189,2.328-6.384c0.926-6.623,6.15-9.78,10.318-13.953
			c5.021-5.024,9.098-11.067,14.446-15.67c4.57-3.931,4.823-8.222,4.559-13.458c-0.358-7.115-0.089-14.262-0.089-20.947
			c-4.719-2.988-9.081-5.886-13.584-8.544c-2.163-1.277-4.661-1.974-6.888-3.157c-4.943-2.625-9.854-5.316-14.667-8.171
			c-0.815-0.483-1.526-1.916-1.515-2.9c0.13-10.903,0.416-21.804,0.636-32.707c0.01-0.478-0.069-1.078-0.349-1.423
			c-3.431-4.221-1.12-8.65,0.287-12.5c0.771-2.107,4.1-3.793,6.607-4.52c1.129-0.327,3.501,1.866,4.567,3.424
			c3.696,5.405,2.888,11.058,0.309,16.711c-0.482,1.055-0.738,2.418-0.543,3.542c0.875,5.044,1.877,10.071,2.987,15.07
			c0.459,2.066,1.304,4.047,2.051,6.303c11.563,2.355,22.558,9.188,35.783,6.755c-1.512-1.106-3.019-1.985-4.251-3.154
			c-2.871-2.721-3.413-6.503-3.69-10.106c-0.425-5.514-0.642-11.215,3.231-15.834c1.549-1.848,3.493-3.946,5.643-4.545
			c2.2-0.613,4.865,0.581,7.342,0.757c0.991,0.069,2.026-0.471,2.69-0.643c7.402,3.212,9.914,10.528,9.482,16.887
			c-0.397,5.833-0.386,14.086-10.1,16.052c4.269,1.016,7.169,2.351,9.989,2.199c2.892-0.157,5.693-1.804,8.555-2.736
			c6.177-2.01,12.368-3.979,18.742-6.025c1.063-6.121,1.41-12.801,3.587-18.819c1.233-3.409,0.523-5.016-1.013-7.579
			c-3.12-5.206-2.019-8.042,1.36-12.01c0.715-0.841,1.218-1.875,1.746-2.859c1.993-3.718,4.597-5.204,8.229-3.879
			c2.78,1.014,3.913,3.639,3.812,6.583c-0.147,4.347,1.062,9.076-3.504,12.26c-0.52,0.362-0.249,1.937-0.25,2.949
			c-0.015,9.306-0.364,18.631,0.148,27.908c0.237,4.295-2.261,5.86-4.934,7.535c-6.599,4.136-13.315,8.086-20.041,12.016
			c-2.479,1.448-5.003,3.003-7.715,3.807c-2.187,0.648-1.899,1.91-1.9,3.37c-0.003,6.883,0.889,13.918-0.257,20.605
			c-1.058,6.167,2.188,9.152,5.648,12.701c7.422,7.613,14.899,15.18,22.048,23.043c1.662,1.828,2.301,4.708,3.06,7.21
			c1.45,4.78,2.447,9.701,3.999,14.443c1.964,6.003,5.202,11.745,6.152,17.87c0.648,4.18,3.871,5.733,5.218,8.817
			c1.396,3.2,2.161,6.668,3.446,9.925c1.335,3.379-0.021,5.976-2.895,6.859c-1.989,0.612-4.8-0.21-6.824-1.228
			c-3.253-1.635-6.63-3.512-9.099-6.102c-3.486-3.657-6.526-7.862-9.081-12.229c-1.147-1.961-0.233-5.019-0.985-7.341
			c-2.321-7.174-4.648-14.388-7.713-21.256c-1.103-2.472-4.199-4.147-6.574-5.937c-5.23-3.939-10.644-7.637-15.857-11.597
			c-2.935-2.229-5.648-4.755-8.381-7.235C241.354,414.695,241.605,413.833,241.605,412.757z M297.829,462.888
			c0.049-0.896,0.271-1.578,0.088-2.126c-3.308-9.881-6.628-19.757-10.028-29.605c-1.387-4.021-2.624-8.03-6.457-10.787
			c-2.507-1.803-4.321-4.561-6.484-6.854c-3.381-3.584-6.794-7.14-10.229-10.744c-4.225,6.396-8.383,12.69-12.354,18.699
			c2.306,1.951,4.459,3.867,6.711,5.656c4.645,3.689,9.339,7.315,14.022,10.957c0.614,0.479,1.639,0.758,1.86,1.356
			c2.08,5.631,4.026,11.31,6.151,17.377c0.703-0.279,1.507-0.708,2.366-0.915c1.127-0.271,2.627-0.911,3.392-0.446
			C290.48,457.652,293.894,460.172,297.829,462.888z M195.652,456.994c1.62-5.312,2.83-10.037,4.54-14.572
			c0.843-2.234,2.31-4.434,4.033-6.089c2.371-2.279,5.285-3.985,7.905-6.017c2.979-2.31,5.77-4.879,8.869-7.006
			c2.256-1.546,2.588-3.297,0.992-5.498c-3.521-4.852-6.792-9.885-10.171-14.853c-1.364,1.138-2.89,2.171-4.117,3.483
			c-2.528,2.703-4.738,5.716-7.364,8.312c-5.614,5.553-10.899,11.136-12.614,19.348c-0.891,4.263-2.935,8.283-4.453,12.416
			c-1.688,4.596-3.372,9.191-5.18,14.122C184.288,459.368,188.653,452.138,195.652,456.994z M220.123,345.384
			c-2.839-1.131-5.348-2.316-7.972-3.133c-4.055-1.264-8.234-2.135-12.27-3.453c-2.063-0.673-5.115-1.53-5.654-3.041
			c-1.453-4.073-2.122-8.514-2.51-12.861c-0.736-8.239-2.818-11.256-9.987-12.896c0,10.354-0.074,20.647,0.108,30.937
			c0.02,1.098,1.318,2.521,2.397,3.187c3.553,2.191,7.293,4.077,10.93,6.134c2.264,1.28,4.438,2.723,6.712,3.983
			c4.875,2.702,9.788,5.333,14.682,7.992C218.177,356.903,214.53,350.436,220.123,345.384z M260.015,362.371
			c11.107-6.458,21.828-12.69,32.411-18.843c0-10.962,0-21.848,0-32.771c-3.839,0.1-5.645,2.895-6.483,5.526
			c-1.354,4.248-1.638,8.827-2.52,13.237c-0.486,2.434-0.522,5.99-2.071,6.97c-3.532,2.234-7.83,3.319-11.893,4.637
			c-4.236,1.373-8.562,2.47-13.95,4.001C261.932,350.229,258.824,356.747,260.015,362.371z"/>
		<path fill="#FFFFFF" d="M297.829,462.888c-3.935-2.716-7.349-5.234-10.958-7.432c-0.765-0.465-2.265,0.175-3.392,0.446
			c-0.859,0.207-1.664,0.636-2.366,0.915c-2.125-6.067-4.071-11.746-6.151-17.377c-0.221-0.6-1.247-0.88-1.86-1.356
			c-4.683-3.642-9.378-7.268-14.022-10.957c-2.252-1.789-4.405-3.705-6.711-5.656c3.97-6.009,8.129-12.304,12.354-18.699
			c3.435,3.604,6.848,7.16,10.229,10.744c2.163,2.293,3.977,5.051,6.484,6.854c3.833,2.757,5.069,6.768,6.457,10.787
			c3.399,9.85,6.72,19.726,10.028,29.605C298.1,461.31,297.877,461.992,297.829,462.888z"/>
		<path fill="#FFFFFF" d="M195.652,456.994c-6.999-4.856-11.364,2.374-17.561,3.647c1.808-4.931,3.491-9.526,5.18-14.123
			c1.518-4.132,3.562-8.152,4.453-12.415c1.715-8.212,7-13.795,12.614-19.348c2.625-2.597,4.835-5.609,7.364-8.312
			c1.228-1.312,2.753-2.346,4.117-3.483c3.379,4.968,6.65,10.001,10.171,14.853c1.597,2.201,1.264,3.952-0.992,5.498
			c-3.1,2.127-5.891,4.696-8.869,7.006c-2.62,2.03-5.534,3.736-7.905,6.017c-1.723,1.655-3.19,3.854-4.033,6.089
			C198.482,446.957,197.271,451.682,195.652,456.994z"/>
		<path fill="#FFFFFF" d="M220.123,345.384c-5.593,5.052-1.945,11.52-3.563,16.849c-4.894-2.658-9.808-5.29-14.682-7.992
			c-2.274-1.261-4.448-2.703-6.712-3.983c-3.637-2.058-7.377-3.943-10.93-6.134c-1.08-0.666-2.378-2.089-2.397-3.187
			c-0.182-10.289-0.108-20.583-0.108-30.937c7.169,1.639,9.251,4.657,9.987,12.896c0.389,4.347,1.058,8.788,2.51,12.861
			c0.539,1.511,3.591,2.368,5.654,3.041c4.036,1.317,8.215,2.189,12.27,3.453C214.774,343.068,217.284,344.253,220.123,345.384z"/>
		<path fill="#FFFFFF" d="M260.015,362.371c-1.191-5.624,1.917-12.142-4.505-17.242c5.388-1.531,9.714-2.628,13.95-4.001
			c4.063-1.317,8.361-2.402,11.893-4.637c1.549-0.98,1.585-4.537,2.071-6.97c0.881-4.411,1.166-8.99,2.52-13.237
			c0.838-2.631,2.645-5.426,6.483-5.526c0,10.922,0,21.809,0,32.771C281.843,349.681,271.123,355.913,260.015,362.371z"/>
	</g>
	<g>
		<g>
			<path d="M337.814,432.367c2.516-11.729,5.088-23.721,7.659-35.711c-0.771-0.378-1.544-0.756-2.315-1.134
				c-1.451,1.821-2.56,4.166-4.408,5.376c-12.007,7.865-21.579,3.486-28.252-6.924c-1.447-2.259-1.129-7.03,0.328-9.484
				c3.031-5.104,7.302-9.083,14.301-8.995c7.061,0.088,13.59,0.674,18.771,7.41c1.41-12.842-4.64-23.509-6.414-34.792
				c-6.867-1.268-13.427-2.781-20.071-3.573c-3.017-0.359-6.373,0.226-9.274,1.243c-5.317,1.863-13.859-1.138-15.218-6.565
				c-0.533-2.129,0.993-6.485,2.611-7.096c3.597-1.356,7.844-1.21,11.827-1.23c1.986-0.01,3.972,1.38,5.971,1.416
				c9.363,0.164,18.739-0.116,28.094,0.232c2.031,0.076,4.812,1.582,5.844,3.281c5.32,8.751,10.427,17.655,15.102,26.764
				c2.33,4.541,4.804,7.076,10.411,6.701c6.555-0.438,13.186,0.414,19.782,0.402c1.453-0.003,3.193-0.977,4.312-2.027
				c8.88-8.354,17.608-16.869,26.479-25.234c1.217-1.147,2.865-2.005,4.467-2.543c13.015-4.379,26.146-8.426,39.062-13.076
				c4.396-1.583,8.101-5.026,12.454-6.799c2.527-1.03,6.197-1.435,8.503-0.337c3.845,1.832,2.712,5.688,0.986,8.7
				c-6.126,10.693-14.2,18.454-27.257,20.458c-6.845,1.049-13.875,3.474-19.808,6.989c-4.312,2.555-7.066,7.836-10.327,12.048
				c-4.216,5.446-8.347,10.963-12.3,16.601c-1.515,2.16-2.438,4.735-4.667,7.063c0.314-2.249,0.63-4.499,1.007-7.195
				c-5.815-4.025-12.264-8.487-18.919-13.092c4.182,12.939,4,25.268-0.497,38.777c7.533-5.547,14.185-10.441,21.402-15.757
				c4.506,5.794,10.69,12.412,15.276,19.998c5.299,8.765,13.15,12.754,22.276,15.408c3.876,1.127,7.734,2.369,11.679,3.194
				c6.926,1.446,21.102,14.856,22.093,21.711c0.298,2.062-0.355,5.094-1.761,6.331c-1.351,1.188-4.311,1.06-6.432,0.714
				c-1.812-0.297-3.507-1.621-5.141-2.666c-14.021-8.969-30.469-11.554-45.634-17.499c-2.855-1.12-5.659-2.86-7.91-4.939
				c-8.692-8.03-17.124-16.344-25.736-24.463c-0.933-0.88-2.45-1.744-3.626-1.658c-6.757,0.498-13.497,1.854-20.233,1.797
				c-5.468-0.045-8.214,1.824-10.576,6.725c-4.134,8.565-9.099,16.748-14.059,24.881c-0.945,1.553-3.447,2.968-5.282,3.031
				c-8.995,0.312-18.011,0.049-27.014,0.215c-2.225,0.041-4.411,1.161-6.653,1.368c-3.726,0.343-7.688,1.166-11.173,0.288
				c-4.254-1.074-5.057-6.232-2.175-9.598c3.651-4.263,9.236-5.087,14.673-4.119c4.67,0.831,9.686,0.014,14.513-0.442
				C328.608,434.16,332.602,433.248,337.814,432.367z M407.561,365.285c-0.818-0.649-1.639-1.3-2.458-1.949
				c4.604,3.249,9.561,6.108,13.702,9.863c3.637,3.297,4.965,2.4,7.767-1.109c7.137-8.938,12.024-20.586,25.35-22.792
				c2.326-0.385,4.514-1.604,6.831-2.461c-3.668-7.272,3.55-10.738,5.515-16.759c-12.804,4.199-25.058,8.207-37.296,12.264
				c-0.636,0.21-1.232,0.761-1.675,1.297C419.365,350.84,413.467,358.065,407.561,365.285z M404.982,417.195
				c0.911-0.858,1.822-1.719,2.734-2.578c5.928,7.459,11.848,14.925,17.805,22.361c0.426,0.532,1.063,1.026,1.702,1.238
				c12.119,4.001,24.254,7.957,36.854,12.075c-3.85-5.438-8.911-9.893-5.838-17.033c-1.721-0.505-3.604-0.67-5.053-1.552
				c-4.965-3.025-11.66-2.565-15.37-8.247c-3.658-5.601-7.901-10.819-11.884-16.211c-1.963-2.658-3.646-3.075-6.523-0.588
				C414.919,410.543,409.822,413.721,404.982,417.195z M311.58,334.567c1.691,4.53,3,8.182,8.076,8.645
				c5.268,0.479,10.553,1.149,15.707,2.298c1.693,0.378,3.801,2.24,4.346,3.881c2.484,7.481,4.479,15.124,6.768,23.119
				c5.138-5.977,11.82-1.993,17.79-3.923c-5.976-10.562-11.833-20.988-17.802-31.35c-0.625-1.085-1.898-2.537-2.895-2.555
				C333.053,334.497,322.529,334.567,311.58,334.567z M345.959,409.751c-1.912,6.622-3.821,13.881-6.193,20.986
				c-0.569,1.709-2.475,3.797-4.115,4.171c-5.146,1.177-10.477,1.514-15.7,2.379c-3.896,0.646-7.713,1.634-6.818,7.525
				c6.178,0,12.494-0.507,18.695,0.116c9.715,0.978,17.574-0.396,20.134-11.539c0.106-0.465,0.753-0.777,1.005-1.238
				c3.486-6.405,6.948-12.823,10.175-18.794C357.223,412.116,351.91,411.001,345.959,409.751z M378.749,389.754
				c-0.538-8.176-4.579-12.412-11.417-11.969c-6.67,0.432-12.645,6.396-12.385,12.364c0.237,5.499,7.033,11.712,12.48,11.416
				C373.67,401.223,379.129,395.526,378.749,389.754z"/>
			<path fill="#FFFFFF" d="M407.561,365.285c5.906-7.219,11.806-14.445,17.734-21.646c0.441-0.536,1.039-1.087,1.675-1.297
				c12.238-4.057,24.492-8.065,37.296-12.264c-1.965,6.021-9.183,9.487-5.515,16.759c-2.317,0.857-4.505,2.076-6.831,2.461
				c-13.324,2.206-18.213,13.854-25.35,22.792c-2.802,3.509-4.13,4.406-7.767,1.109c-4.143-3.755-9.1-6.615-13.702-9.863
				C405.922,363.985,406.741,364.635,407.561,365.285z"/>
			<path fill="#FFFFFF" d="M404.982,417.195c4.84-3.475,9.937-6.652,14.427-10.533c2.878-2.487,4.562-2.07,6.523,0.588
				c3.981,5.391,8.226,10.609,11.884,16.211c3.71,5.682,10.405,5.222,15.37,8.247c1.448,0.882,3.332,1.047,5.053,1.552
				c-3.073,7.142,1.988,11.597,5.838,17.033c-12.6-4.118-24.733-8.074-36.854-12.075c-0.639-0.212-1.276-0.706-1.702-1.237
				c-5.957-7.438-11.877-14.903-17.805-22.362C406.806,415.477,405.895,416.337,404.982,417.195z"/>
			<path fill="#FFFFFF" d="M311.58,334.567c10.949,0,21.473-0.071,31.99,0.115c0.995,0.018,2.27,1.47,2.895,2.555
				c5.969,10.361,11.826,20.788,17.802,31.35c-5.97,1.93-12.652-2.053-17.79,3.923c-2.287-7.996-4.282-15.638-6.768-23.119
				c-0.545-1.641-2.651-3.503-4.346-3.881c-5.154-1.149-10.439-1.819-15.707-2.298C314.58,342.75,313.271,339.098,311.58,334.567z"
				/>
			<path fill="#FFFFFF" d="M345.959,409.751c5.951,1.25,11.264,2.365,17.181,3.606c-3.227,5.971-6.688,12.389-10.175,18.794
				c-0.252,0.461-0.897,0.773-1.005,1.238c-2.56,11.145-10.419,12.517-20.134,11.539c-6.201-0.623-12.519-0.115-18.695-0.115
				c-0.895-5.894,2.922-6.882,6.818-7.526c5.225-0.865,10.555-1.202,15.7-2.379c1.642-0.374,3.546-2.462,4.115-4.171
				C342.138,423.632,344.047,416.373,345.959,409.751z"/>
			<path fill="#FFFFFF" d="M378.749,389.754c0.38,5.772-5.079,11.469-11.32,11.811c-5.447,0.297-12.243-5.917-12.48-11.416
				c-0.259-5.968,5.715-11.932,12.385-12.364C374.17,377.342,378.211,381.578,378.749,389.754z"/>
		</g>
	</g>
</g>
</svg>
